<svg width="28" height="28" viewBox="0 0 28 28" fill="none" xmlns="http://www.w3.org/2000/svg">
<path d="M4.66663 13C4.11434 13 3.66663 13.4477 3.66663 14C3.66663 14.5523 4.11434 15 4.66663 15V13ZM23.3333 15C23.8856 15 24.3333 14.5523 24.3333 14C24.3333 13.4477 23.8856 13 23.3333 13V15ZM4.66663 6C4.11434 6 3.66663 6.44772 3.66663 7C3.66663 7.55228 4.11434 8 4.66663 8V6ZM23.3333 8C23.8856 8 24.3333 7.55228 24.3333 7C24.3333 6.44772 23.8856 6 23.3333 6V8ZM4.66663 20C4.11434 20 3.66663 20.4477 3.66663 21C3.66663 21.5523 4.11434 22 4.66663 22V20ZM23.3333 22C23.8856 22 24.3333 21.5523 24.3333 21C24.3333 20.4477 23.8856 20 23.3333 20V22ZM4.66663 15H23.3333V13H4.66663V15ZM4.66663 8H23.3333V6H4.66663V8ZM4.66663 22H23.3333V20H4.66663V22Z" fill="#484848"/>
</svg>
