<svg width="231" height="220" viewBox="0 0 231 220" fill="none" xmlns="http://www.w3.org/2000/svg">
<path d="M188.088 25.6722C213.708 47.2323 233.373 77.6251 230.768 110.943C228.193 143.879 202.274 167.917 175.449 187.325C147.685 207.413 115.997 226.074 82.6289 218.124C47.4267 209.738 19.5637 181.453 7.72464 147.365C-3.47543 115.117 6.44882 80.3781 24.7773 51.5533C41.8579 24.691 69.0462 6.35945 100.56 1.36527C132.03 -3.62203 163.741 5.18308 188.088 25.6722Z" fill="#27606C"/>
<path d="M187.523 24.622C213.48 45.3001 233.404 74.4495 230.765 106.404C228.156 137.993 201.896 161.047 174.719 179.661C146.589 198.928 114.484 216.826 80.6766 209.201C45.0112 201.157 16.7817 174.03 4.78681 141.336C-6.56064 110.407 3.4942 77.0899 22.0638 49.4443C39.3692 23.6809 66.9152 6.09929 98.8432 1.30942C130.727 -3.47386 162.856 4.97105 187.523 24.622Z" fill="#4BCC94"/>
</svg>
