<svg width="795" height="360" viewBox="0 0 795 360" fill="none" xmlns="http://www.w3.org/2000/svg">
<path d="M645.268 42.0091C734.286 77.2892 802.617 127.023 793.566 181.542C784.618 235.438 694.558 274.773 601.354 306.531C504.884 339.402 394.78 369.94 278.837 356.931C156.522 343.207 59.7085 296.923 18.5721 241.142C-20.344 188.373 14.1391 131.528 77.8237 84.36C137.173 40.4035 231.642 10.4064 341.139 2.23408C450.486 -5.92696 560.672 8.48141 645.268 42.0091Z" fill="#27606C"/>
<path d="M643.113 40.1224C732.131 73.8182 800.461 121.318 791.41 173.389C782.462 224.865 692.403 262.433 599.198 292.765C502.728 324.16 392.624 353.326 276.681 340.901C154.366 327.793 57.5528 283.588 16.4164 230.313C-22.4997 179.913 11.9834 125.621 75.668 80.5714C135.017 38.5889 229.486 9.93901 338.983 2.13375C448.33 -5.66078 558.516 8.10051 643.113 40.1224Z" fill="#4BCC94"/>
</svg>
