<svg width="184" height="183" viewBox="0 0 184 183" fill="none" xmlns="http://www.w3.org/2000/svg">
<path d="M149.558 25.7712C170.121 43.2152 185.905 67.8058 183.814 94.7626C181.747 121.411 160.944 140.86 139.414 156.563C117.129 172.816 91.6956 187.915 64.9129 181.482C36.6585 174.697 14.2948 151.812 4.79239 124.231C-4.19714 98.1398 3.76838 70.0332 18.4794 46.7113C32.1888 24.9773 54.011 10.1454 79.3046 6.10463C104.564 2.06945 130.016 9.19359 149.558 25.7712Z" fill="#27606C"/>
<path d="M148.558 20.7712C169.121 38.2152 184.905 62.8058 182.814 89.7626C180.747 116.411 159.943 135.86 138.413 151.563C116.129 167.816 90.6953 182.915 63.9127 176.482C35.6583 169.697 13.2946 146.812 3.79215 119.231C-5.19739 93.1398 2.76813 65.0332 17.4791 41.7113C31.1886 19.9773 53.0107 5.14537 78.3044 1.10463C103.563 -2.93055 129.016 4.19359 148.558 20.7712Z" fill="#4BCC94"/>
</svg>
