<svg width="24" height="24" fill="none" xmlns="http://www.w3.org/2000/svg"><path d="M3.111 6.444v-.75h-.698l-.05.697.748.053ZM2 22l-.748-.053-.057.803H2V22Zm20 0v.75h.805l-.057-.803L22 22ZM20.889 6.444l.748-.053-.05-.697h-.698v.75ZM14.5 2l.684-.308-.2-.442H14.5V2Zm-5 13-.67.335.206.415H9.5V15Zm0-13v-.75h-.485l-.199.442L9.5 2Zm5 13v.75h.463l.208-.415L14.5 15ZM2.363 6.391 1.252 21.947l1.496.106L3.86 6.498 2.363 6.39ZM2 22.75h20v-1.5H2v1.5Zm20.748-.803L21.637 6.39l-1.496.107 1.11 15.555 1.497-.106ZM7.5 5.694H3.111v1.5H7.5v-1.5Zm13.389 0H16.5v1.5h4.389v-1.5Zm-4.389 0h-9v1.5h9v-1.5Zm-2.684-3.386 2 4.444 1.368-.615-2-4.445-1.368.616ZM6.83 11.335l2 4 1.342-.67-2-4-1.342.67Zm1.355-4.583 2-4.444-1.368-.616-2 4.445 1.368.615ZM9.5 2.75h5v-1.5h-5v1.5Zm0 13h5v-1.5h-5v1.5Zm5.67-.415 2-4-1.34-.67-2 4 1.34.67Z" fill="currentColor"/></svg>
