<svg width="200px" viewBox="0 0 397 129" fill="none" xmlns="http://www.w3.org/2000/svg">
  <path d="M56.3956 29.5974H1.59711V47.0469L37.3128 47.0471C38.3737 47.0471 39.3911 47.4685 40.1412 48.2187C40.8914 48.9688 41.3128 49.9862 41.3128 51.0471V81.9463H33.6798C32.6189 81.9463 31.6015 81.5249 30.8514 80.7747C30.1012 80.0246 29.6798 79.0072 29.6798 77.9463V55.772H14.597C10.884 55.772 7.32306 57.247 4.69756 59.8725C2.07205 62.498 0.597046 66.059 0.597046 69.772V85.396C0.597046 89.109 2.07205 92.67 4.69756 95.2955C7.32306 97.921 10.884 99.396 14.597 99.396H70.3956V43.5974C70.3956 39.8844 68.9206 36.3234 66.2951 33.6979C63.6695 31.0724 60.1086 29.5974 56.3956 29.5974Z" fill="#0ABF53"/>
  <path d="M122.743 81.9463H115.11C114.05 81.9463 113.032 81.5249 112.282 80.7747C111.532 80.0246 111.11 79.0072 111.11 77.9463V29.5972H96.0286C92.3155 29.5972 88.7546 31.0722 86.1291 33.6977C83.5035 36.3232 82.0286 39.8841 82.0286 43.5972V85.396C82.0286 89.109 83.5035 92.67 86.1291 95.2955C88.7546 97.921 92.3155 99.396 96.0286 99.396H151.827V0.514648H122.744L122.743 81.9463Z" fill="#0ABF53"/>
  <path d="M204.175 81.9463H196.542C195.481 81.9463 194.464 81.5249 193.714 80.7747C192.964 80.0246 192.542 79.0072 192.542 77.9463V29.5972H163.46V85.396C163.46 89.109 164.935 92.67 167.561 95.2955C170.186 97.921 173.747 99.396 177.46 99.396H204.176V108.121H164.46V128.475H219.259C222.972 128.475 226.533 127 229.158 124.375C231.784 121.749 233.259 118.188 233.259 114.475V29.5972H204.175V81.9463Z" fill="#0ABF53"/>
  <path d="M300.69 29.5974H244.892V85.396C244.892 89.109 246.367 92.67 248.992 95.2955C251.618 97.921 255.179 99.396 258.892 99.396H313.69V81.9463H277.974C276.914 81.9463 275.896 81.5249 275.146 80.7747C274.396 80.0246 273.974 79.0072 273.974 77.9463V47.0474H281.607C282.668 47.0474 283.686 47.4688 284.436 48.2189C285.186 48.9691 285.607 49.9865 285.607 51.0474V73.2214H300.69C304.403 73.2214 307.964 71.7465 310.59 69.1209C313.215 66.4954 314.69 62.9345 314.69 59.2214V43.5974C314.69 41.7589 314.328 39.9384 313.625 38.2399C312.921 36.5413 311.89 34.9979 310.59 33.6979C309.29 32.3979 307.746 31.3667 306.048 30.6631C304.349 29.9595 302.529 29.5974 300.69 29.5974Z" fill="#0ABF53"/>
  <path d="M382.122 29.5974H326.323V99.396H355.406V47.0469H363.039C364.099 47.05 365.114 47.4724 365.864 48.2219C366.613 48.9714 367.036 49.987 367.039 51.0469V99.396H396.122V43.5974C396.122 39.8844 394.647 36.3234 392.021 33.6979C389.396 31.0724 385.835 29.5974 382.122 29.5974Z" fill="#0ABF53"/>
</svg>