<svg width="200px" height="60" viewBox="0 0 200 60" fill="none" xmlns="http://www.w3.org/2000/svg">
  <path fill-rule="evenodd" clip-rule="evenodd" d="M84.5914 19.7528C73.6092 19.7528 64.6948 28.6868 64.6948 39.6476C64.6948 50.608 73.6298 59.5421 84.5914 59.5421C95.5533 59.5421 104.488 50.608 104.488 39.6476C104.488 28.6868 95.574 19.7528 84.5914 19.7528V19.7528ZM84.5914 50.1323C78.821 50.1323 74.1261 45.4381 74.1261 39.6682C74.1261 33.8984 78.821 29.2038 84.5914 29.2038C90.3619 29.2038 95.057 33.8984 95.057 39.6682C95.057 45.4381 90.3619 50.1323 84.5914 50.1323Z" fill="white"/>
  <path d="M150.775 12.8662C154.202 12.8662 156.98 10.0885 156.98 6.66204C156.98 3.23559 154.202 0.457901 150.775 0.457901C147.349 0.457901 144.571 3.23559 144.571 6.66204C144.571 10.0885 147.349 12.8662 150.775 12.8662V12.8662Z" fill="white"/>
  <path fill-rule="evenodd" clip-rule="evenodd" d="M43.971 19.7735C43.4541 19.7321 42.9575 19.7115 42.4405 19.7115C37.6422 19.7115 33.0922 21.6761 29.8242 25.1504C26.5564 21.6968 22.0269 19.7115 17.2699 19.7115C7.75595 19.7115 0 27.446 0 36.9589V58.7356H9.30715V37.2278C9.30715 33.278 12.5543 29.6381 16.3806 29.2452C16.6494 29.2245 16.9183 29.2038 17.1665 29.2038C21.4684 29.2038 24.9845 32.7193 25.0052 37.021V58.7356H34.5191V37.1864C34.5191 33.2573 37.7456 29.6174 41.5926 29.2245C41.8614 29.2038 42.1303 29.1831 42.3784 29.1831C46.6804 29.1831 50.2171 32.678 50.2378 36.9589V58.7356H59.7518V37.2278C59.7518 32.8644 58.1386 28.6661 55.2225 25.4193C52.3061 22.1518 48.3143 20.1458 43.971 19.7735V19.7735Z" fill="white"/>
  <path d="M119.131 1.38852H109.617V58.777H119.131V1.38852Z" fill="white"/>
  <path d="M137.332 1.38852H127.818V58.777H137.332V1.38852Z" fill="white"/>
  <path d="M155.533 20.7041H146.019V58.7563H155.533V20.7041Z" fill="white"/>
  <path fill-rule="evenodd" clip-rule="evenodd" d="M200 38.758C200 33.7123 198.035 28.9556 194.478 25.3365C190.9 21.7175 186.184 19.7115 181.158 19.7115C181.076 19.7115 180.993 19.7115 180.91 19.7115C175.698 19.7735 170.775 21.8415 167.094 25.5434C163.413 29.2452 161.344 34.1465 161.282 39.3787C161.22 44.714 163.268 49.7601 167.053 53.5861C170.838 57.4121 175.843 59.5214 181.179 59.5214H181.2C188.19 59.5214 194.747 55.7781 198.325 49.7601L198.78 48.995L190.92 45.1279L190.527 45.769C188.562 49.0157 185.15 50.9391 181.365 50.9391C176.525 50.9391 172.347 47.7128 171.065 43.1217H200V38.758ZM180.786 28.3559C185.129 28.3559 189.017 31.2097 190.383 35.2632H171.21C172.554 31.2097 176.443 28.3559 180.786 28.3559Z" fill="white"/>
</svg>