<svg width="200" height="84" xmlns="http://www.w3.org/2000/svg">
  <path d="M200 43c0-14.2-6.9-25.4-20-25.4-13.3 0-21.3 11.2-21.3 25.3 0 16.7 9.5 25.2 23 25.2a31 31 0 0 0 15.4-3.7v-11c-3.8 1.8-8.1 3-13.6 3-5.4 0-10.2-1.9-10.8-8.5H200l.1-4.9Zm-27.4-5.3c0-6.3 3.8-8.9 7.3-8.9 3.4 0 7 2.6 7 9h-14.3Zm-35.3-20.1c-5.5 0-9 2.5-11 4.3l-.6-3.5h-12.3v64.8l14-3V64.7c2 1.4 5 3.5 9.8 3.5 10 0 19-8 19-25.7 0-16-9.2-24.8-19-24.8Zm-3.4 38.2a8.3 8.3 0 0 1-6.5-2.6V32.6a8.3 8.3 0 0 1 6.5-2.7c5.1 0 8.6 5.7 8.6 13 0 7.4-3.4 13-8.6 13ZM94.3 14.3l14-3V0l-14 3v11.3Zm0 4.2h14v48.6h-14V18.5Zm-15 4.1-.8-4.1h-12v48.6h13.9v-33c3.3-4.2 8.8-3.4 10.5-2.8V18.5c-1.7-.7-8.2-1.9-11.5 4.1ZM51.7 6.4l-13.5 3-.1 44.4a14 14 0 0 0 14.4 14.3c4.5 0 7.9-.8 9.7-1.8V55c-1.8.7-10.5 3.3-10.5-5V30.4H62V18.5H51.6v-12ZM14.1 32.6c0-2.2 1.7-3 4.7-3a31 31 0 0 1 13.8 3.6v-13a36.6 36.6 0 0 0-13.8-2.6C7.5 17.6 0 23.4 0 33.3c0 15.3 21.1 12.9 21.1 19.5 0 2.5-2.2 3.4-5.3 3.4-4.6 0-10.5-2-15.2-4.5V65a38.5 38.5 0 0 0 15.2 3.2c11.5 0 19.5-5.7 19.5-15.7C35.3 36 14 38.8 14 32.6Z" fill="#635BFF" fill-rule="nonzero"/>
</svg>
