<?xml version="1.0" encoding="UTF-8"?>
<svg version="1.1" xmlns="http://www.w3.org/2000/svg" width="747" height="555">
<path d="M0 0 C0.90387955 -0.00570007 1.80775909 -0.01140015 2.73902893 -0.01727295 C4.65486474 -0.02673729 6.57071694 -0.0332626 8.48657227 -0.03710938 C11.42557993 -0.04682269 14.36389082 -0.07783547 17.30273438 -0.109375 C19.16015208 -0.11590388 21.0175748 -0.12115481 22.875 -0.125 C23.75836533 -0.1373468 24.64173065 -0.1496936 25.55186462 -0.16241455 C28.02905273 -0.15332031 28.02905273 -0.15332031 32.00390625 0.203125 C34.59386066 4.08805662 34.25616167 7.30879736 34.19921875 11.80859375 C34.19638885 12.64779861 34.19355896 13.48700348 34.19064331 14.35163879 C34.1794501 17.03144603 34.15434726 19.71091881 34.12890625 22.390625 C34.11887533 24.20767746 34.10974968 26.02473517 34.1015625 27.84179688 C34.07951359 32.29570175 34.04498976 36.74935667 34.00390625 41.203125 C33.34390625 41.203125 32.68390625 41.203125 32.00390625 41.203125 C32.00390625 42.193125 32.00390625 43.183125 32.00390625 44.203125 C29.52890625 44.698125 29.52890625 44.698125 27.00390625 45.203125 C26.67390625 51.143125 26.34390625 57.083125 26.00390625 63.203125 C29.2265625 63.43098958 32.44921875 63.65885417 35.671875 63.88671875 C38.51988796 64.15716312 41.21601107 64.57834247 44.00390625 65.203125 C44.00390625 65.863125 44.00390625 66.523125 44.00390625 67.203125 C44.57496094 67.21730469 45.14601563 67.23148437 45.734375 67.24609375 C53.45115311 67.70002187 59.93182752 70.19915425 67.00390625 73.203125 C67.00390625 73.863125 67.00390625 74.523125 67.00390625 75.203125 C68.42703125 75.4196875 68.42703125 75.4196875 69.87890625 75.640625 C73.00390625 76.203125 73.00390625 76.203125 75.00390625 77.203125 C75.00390625 77.863125 75.00390625 78.523125 75.00390625 79.203125 C75.78765625 79.3475 76.57140625 79.491875 77.37890625 79.640625 C80.00390625 80.203125 80.00390625 80.203125 82.00390625 81.203125 C82.00390625 81.863125 82.00390625 82.523125 82.00390625 83.203125 C82.53628906 83.27660156 83.06867188 83.35007812 83.6171875 83.42578125 C86.94687101 84.51024445 89.45213628 86.52917323 92.19140625 88.640625 C92.73732422 89.04861328 93.28324219 89.45660156 93.84570312 89.87695312 C97.86879917 92.93291084 97.86879917 92.93291084 99.00390625 95.203125 C99.99390625 95.533125 100.98390625 95.863125 102.00390625 96.203125 C103.69122902 98.18572926 105.35756682 100.1863592 107.00390625 102.203125 C107.99390625 102.863125 108.98390625 103.523125 110.00390625 104.203125 C110.33390625 105.193125 110.66390625 106.183125 111.00390625 107.203125 C112.64878919 108.89129433 114.31728167 110.55665815 116.00390625 112.203125 C119.00390625 115.82381466 119.00390625 115.82381466 119.00390625 118.203125 C119.66390625 118.203125 120.32390625 118.203125 121.00390625 118.203125 C121.66390625 120.183125 122.32390625 122.163125 123.00390625 124.203125 C123.66390625 124.203125 124.32390625 124.203125 125.00390625 124.203125 C126.46453475 126.85051416 127.00390625 128.09760834 127.00390625 131.203125 C127.66390625 131.203125 128.32390625 131.203125 129.00390625 131.203125 C135.38378493 144.52747339 140.2912465 157.30813002 142.4609375 171.94921875 C142.65392199 175.046834 142.65392199 175.046834 144.00390625 176.203125 C144.10490113 178.93036779 144.14361154 181.63175023 144.13671875 184.359375 C144.13815384 185.58557556 144.13815384 185.58557556 144.13961792 186.83654785 C144.1402997 188.56827878 144.13844554 190.30001224 144.13427734 192.03173828 C144.12892904 194.69178982 144.13422237 197.3516725 144.140625 200.01171875 C144.13996422 201.69010454 144.13868305 203.36849023 144.13671875 205.046875 C144.13874298 205.84790649 144.14076721 206.64893799 144.14285278 207.47424316 C144.11885704 213.08817421 144.11885704 213.08817421 143.00390625 214.203125 C142.5103023 216.7008799 142.05864249 219.19436412 141.62890625 221.703125 C139.7340682 232.19512716 136.19746795 241.40457631 132.00390625 251.203125 C131.67777344 251.96882812 131.35164062 252.73453125 131.015625 253.5234375 C130.3486882 255.08489142 129.67702414 256.64432567 129.00390625 258.203125 C128.34390625 258.203125 127.68390625 258.203125 127.00390625 258.203125 C126.85953125 258.80125 126.71515625 259.399375 126.56640625 260.015625 C126.11666235 261.76462904 125.57498284 263.48989523 125.00390625 265.203125 C124.34390625 265.533125 123.68390625 265.863125 123.00390625 266.203125 C121.87040091 268.21982327 121.87040091 268.21982327 121.00390625 270.203125 C120.34390625 270.203125 119.68390625 270.203125 119.00390625 270.203125 C118.88402344 270.79222656 118.76414062 271.38132812 118.640625 271.98828125 C116.83922108 278.2545145 111.88036993 282.22233832 107.00390625 286.203125 C105.9815684 287.35026773 104.9820703 288.51809074 104.00390625 289.703125 C101.26510293 292.99689636 98.43386584 295.63065531 95.00390625 298.203125 C94.34390625 298.203125 93.68390625 298.203125 93.00390625 298.203125 C93.00390625 298.863125 93.00390625 299.523125 93.00390625 300.203125 C90.00390625 302.203125 90.00390625 302.203125 87.00390625 302.203125 C86.67390625 303.193125 86.34390625 304.183125 86.00390625 305.203125 C85.01390625 305.533125 84.02390625 305.863125 83.00390625 306.203125 C82.67390625 306.863125 82.34390625 307.523125 82.00390625 308.203125 C79.10130814 309.5780399 77.2425192 310.203125 74.00390625 310.203125 C74.00390625 310.863125 74.00390625 311.523125 74.00390625 312.203125 C70.9158093 313.96775183 69.77078489 314.203125 66.00390625 314.203125 C66.00390625 314.863125 66.00390625 315.523125 66.00390625 316.203125 C65.01390625 316.533125 64.02390625 316.863125 63.00390625 317.203125 C63.66777344 317.42226563 64.33164062 317.64140625 65.015625 317.8671875 C70.97280447 320.00655414 74.74447427 321.66209064 78.00390625 327.203125 C78.00390625 329.513125 78.00390625 331.823125 78.00390625 334.203125 C34.11390625 334.203125 -9.77609375 334.203125 -54.99609375 334.203125 C-54.99609375 331.893125 -54.99609375 329.583125 -54.99609375 327.203125 C-54.33609375 327.203125 -53.67609375 327.203125 -52.99609375 327.203125 C-52.91359375 326.605 -52.83109375 326.006875 -52.74609375 325.390625 C-51.74366819 322.46688378 -50.63461049 321.80012197 -47.99609375 320.203125 C-45.68697596 319.12289393 -43.3619954 318.15858528 -40.99609375 317.203125 C-46.30295655 314.15450169 -51.64095058 311.16606136 -56.99609375 308.203125 C-56.99609375 307.543125 -56.99609375 306.883125 -56.99609375 306.203125 C-57.59421875 306.05875 -58.19234375 305.914375 -58.80859375 305.765625 C-60.55759779 305.3158811 -62.28286398 304.77420159 -63.99609375 304.203125 C-64.32609375 303.543125 -64.65609375 302.883125 -64.99609375 302.203125 C-67.01279202 301.06961966 -67.01279202 301.06961966 -68.99609375 300.203125 C-68.99609375 299.543125 -68.99609375 298.883125 -68.99609375 298.203125 C-69.71796875 297.955625 -70.43984375 297.708125 -71.18359375 297.453125 C-76.50540481 295.08787564 -79.86664897 291.32752772 -83.515625 286.9375 C-84.8306764 285.39691208 -86.25132783 283.94789092 -87.68359375 282.515625 C-89.70024158 280.49897717 -91.4351314 278.58564648 -92.99609375 276.203125 C-92.99609375 275.543125 -92.99609375 274.883125 -92.99609375 274.203125 C-93.65609375 274.203125 -94.31609375 274.203125 -94.99609375 274.203125 C-95.28484375 273.56375 -95.57359375 272.924375 -95.87109375 272.265625 C-96.82432826 270.05106421 -96.82432826 270.05106421 -98.99609375 269.203125 C-99.72685023 266.8890628 -100.39747633 264.55483631 -100.99609375 262.203125 C-101.65609375 262.203125 -102.31609375 262.203125 -102.99609375 262.203125 C-103.66666793 260.86197664 -104.33578943 259.52009259 -105 258.17578125 C-105.73766657 256.71491216 -106.49924498 255.26606354 -107.2734375 253.82421875 C-109.88953515 248.85742466 -111.62953611 244.82367555 -111.99609375 239.203125 C-112.65609375 239.203125 -113.31609375 239.203125 -113.99609375 239.203125 C-114.18945312 238.39488281 -114.3828125 237.58664062 -114.58203125 236.75390625 C-114.84242188 235.68527344 -115.1028125 234.61664063 -115.37109375 233.515625 C-115.62632812 232.45988281 -115.8815625 231.40414062 -116.14453125 230.31640625 C-116.89542861 227.28512014 -116.89542861 227.28512014 -118.01196289 224.85131836 C-119.05601457 222.04188433 -119.37924709 219.70165685 -119.59375 216.71875 C-119.67302734 215.70167969 -119.75230469 214.68460938 -119.83398438 213.63671875 C-119.90810547 212.58613281 -119.98222656 211.53554687 -120.05859375 210.453125 C-120.21216669 208.35387178 -120.36950771 206.2548896 -120.53125 204.15625 C-120.59707275 203.22973633 -120.66289551 202.30322266 -120.73071289 201.34863281 C-120.77025017 199.22398281 -120.77025017 199.22398281 -121.99609375 198.203125 C-122.12109375 194.703125 -122.12109375 194.703125 -121.99609375 191.203125 C-121.66609375 190.873125 -121.33609375 190.543125 -120.99609375 190.203125 C-120.79252805 188.55737033 -120.64876497 186.90412747 -120.53125 185.25 C-120.45326172 184.23808594 -120.37527344 183.22617188 -120.29492188 182.18359375 C-120.13852743 180.04577222 -119.98484035 177.90775074 -119.83398438 175.76953125 C-119.75470703 174.75246094 -119.67542969 173.73539063 -119.59375 172.6875 C-119.52679932 171.75647461 -119.45984863 170.82544922 -119.39086914 169.86621094 C-118.97394931 167.05374244 -118.11193808 164.80785333 -116.99609375 162.203125 C-116.59806353 160.2702248 -116.22499365 158.33208994 -115.87109375 156.390625 C-114.15043846 148.59446004 -110.66070602 142.05784427 -106.9453125 135.07128906 C-105.47421399 132.17600979 -104.23661383 129.20363294 -102.99609375 126.203125 C-102.33609375 126.203125 -101.67609375 126.203125 -100.99609375 126.203125 C-100.33609375 124.223125 -99.67609375 122.243125 -98.99609375 120.203125 C-98.33609375 120.203125 -97.67609375 120.203125 -96.99609375 120.203125 C-96.33609375 118.553125 -95.67609375 116.903125 -94.99609375 115.203125 C-94.33609375 115.203125 -93.67609375 115.203125 -92.99609375 115.203125 C-92.89296875 114.56375 -92.78984375 113.924375 -92.68359375 113.265625 C-92.45671875 112.585 -92.22984375 111.904375 -91.99609375 111.203125 C-90.51109375 110.708125 -90.51109375 110.708125 -88.99609375 110.203125 C-88.30410969 108.54680973 -87.64031677 106.87859476 -86.99609375 105.203125 C-75.90748009 91.52994725 -54.98729235 74.66066088 -37.08203125 71.515625 C-36.06367188 71.4125 -35.0453125 71.309375 -33.99609375 71.203125 C-33.99609375 70.543125 -33.99609375 69.883125 -33.99609375 69.203125 C-25.56752232 66.91741071 -25.56752232 66.91741071 -20.99609375 67.203125 C-20.99609375 66.543125 -20.99609375 65.883125 -20.99609375 65.203125 C-13.07609375 64.213125 -13.07609375 64.213125 -4.99609375 63.203125 C-4.66609375 56.933125 -4.33609375 50.663125 -3.99609375 44.203125 C-5.64609375 44.203125 -7.29609375 44.203125 -8.99609375 44.203125 C-10.70985987 40.77559276 -10.13754735 36.84515756 -10.12890625 33.07421875 C-10.12986298 32.16938248 -10.1308197 31.2645462 -10.13180542 30.33229065 C-10.13248648 28.41822236 -10.13063736 26.50415176 -10.12646484 24.59008789 C-10.12110936 21.64919896 -10.12641553 18.70846233 -10.1328125 15.76757812 C-10.13215183 13.91145799 -10.13087089 12.05533796 -10.12890625 10.19921875 C-10.13093048 9.31382919 -10.13295471 8.42843964 -10.13504028 7.51622009 C-10.10147144 -1.15585626 -7.87455971 0.03779796 0 0 Z M-5.62109375 72.203125 C-6.52988281 72.29851562 -7.43867188 72.39390625 -8.375 72.4921875 C-10.58256418 72.72456268 -12.78951636 72.96158989 -14.99609375 73.203125 C-14.99609375 73.863125 -14.99609375 74.523125 -14.99609375 75.203125 C-15.90101563 75.29400391 -15.90101563 75.29400391 -16.82421875 75.38671875 C-17.6234375 75.47050781 -18.42265625 75.55429688 -19.24609375 75.640625 C-20.035 75.72183594 -20.82390625 75.80304688 -21.63671875 75.88671875 C-23.81974014 76.17947493 -25.87341195 76.62376919 -27.99609375 77.203125 C-27.99609375 77.863125 -27.99609375 78.523125 -27.99609375 79.203125 C-29.98177083 79.43098958 -31.96744792 79.65885417 -33.953125 79.88671875 C-36.19005768 80.17483235 -36.19005768 80.17483235 -38.99609375 81.203125 C-38.99609375 81.863125 -38.99609375 82.523125 -38.99609375 83.203125 C-41.63609375 83.863125 -44.27609375 84.523125 -46.99609375 85.203125 C-46.99609375 85.863125 -46.99609375 86.523125 -46.99609375 87.203125 C-47.84171875 87.450625 -48.68734375 87.698125 -49.55859375 87.953125 C-54.66923275 89.81153918 -59.2932656 92.11052547 -62.99609375 96.203125 C-63.98609375 96.698125 -63.98609375 96.698125 -64.99609375 97.203125 C-64.99609375 97.863125 -64.99609375 98.523125 -64.99609375 99.203125 C-65.58310059 99.46778564 -66.17010742 99.73244629 -66.77490234 100.00512695 C-78.08336581 106.10433889 -91.88895065 122.22162902 -95.75 134.625 C-95.83121094 135.14578125 -95.91242188 135.6665625 -95.99609375 136.203125 C-96.65609375 136.203125 -97.31609375 136.203125 -97.99609375 136.203125 C-98.65609375 138.843125 -99.31609375 141.483125 -99.99609375 144.203125 C-100.65609375 144.203125 -101.31609375 144.203125 -101.99609375 144.203125 C-102.98609375 149.153125 -102.98609375 149.153125 -103.99609375 154.203125 C-104.65609375 154.203125 -105.31609375 154.203125 -105.99609375 154.203125 C-107.72538212 161.11471538 -107.72538212 161.11471538 -107.99609375 168.203125 C-108.65609375 168.203125 -109.31609375 168.203125 -109.99609375 168.203125 C-112.01827195 186.31245296 -112.01827195 203.09379704 -109.99609375 221.203125 C-109.33609375 221.203125 -108.67609375 221.203125 -107.99609375 221.203125 C-107.98191406 221.76257813 -107.96773438 222.32203125 -107.953125 222.8984375 C-107.4775449 230.89332459 -104.88366791 237.80837788 -101.99609375 245.203125 C-101.33609375 245.203125 -100.67609375 245.203125 -99.99609375 245.203125 C-99.77953125 246.3478125 -99.77953125 246.3478125 -99.55859375 247.515625 C-99.03283435 250.28485408 -99.03283435 250.28485408 -97.99609375 253.203125 C-97.33609375 253.203125 -96.67609375 253.203125 -95.99609375 253.203125 C-95.90328125 253.92113281 -95.81046875 254.63914062 -95.71484375 255.37890625 C-94.8753221 258.67767884 -93.511547 260.66067706 -91.49609375 263.390625 C-88.04140119 268.11251011 -88.04140119 268.11251011 -86.99609375 270.203125 C-86.33609375 270.203125 -85.67609375 270.203125 -84.99609375 270.203125 C-84.72796875 270.80125 -84.45984375 271.399375 -84.18359375 272.015625 C-83.11372407 274.23345735 -83.11372407 274.23345735 -81.43359375 275.765625 C-79.99609375 277.203125 -79.99609375 277.203125 -78.99609375 280.203125 C-77.02768261 281.94265112 -75.05127319 283.57511911 -72.99609375 285.203125 C-71.91176562 286.13947423 -70.82838894 287.07692671 -69.74609375 288.015625 C-67.3208806 290.41063286 -67.3208806 290.41063286 -64.99609375 290.203125 C-64.99609375 290.863125 -64.99609375 291.523125 -64.99609375 292.203125 C-64.35671875 292.491875 -63.71734375 292.780625 -63.05859375 293.078125 C-60.99609375 294.203125 -60.99609375 294.203125 -59.99609375 296.203125 C-55.75119114 298.8665933 -51.83186176 300.78777826 -46.99609375 302.203125 C-46.99609375 302.863125 -46.99609375 303.523125 -46.99609375 304.203125 C-44.35609375 304.863125 -41.71609375 305.523125 -38.99609375 306.203125 C-38.99609375 306.863125 -38.99609375 307.523125 -38.99609375 308.203125 C-38.37863281 308.38488281 -37.76117188 308.56664062 -37.125 308.75390625 C-22.76837098 313.01500619 -22.76837098 313.01500619 -17.37109375 315.328125 C-11.55553942 317.47069765 -5.36259484 317.3519522 0.75390625 317.3359375 C1.97932129 317.33737259 1.97932129 317.33737259 3.22949219 317.33883667 C4.94726641 317.33951357 6.66504327 317.33769365 8.3828125 317.33349609 C10.99615279 317.32814089 13.60932124 317.33345778 16.22265625 317.33984375 C17.89973996 317.33918288 19.57682356 317.33790154 21.25390625 317.3359375 C22.02702148 317.33796173 22.80013672 317.33998596 23.59667969 317.34207153 C30.40384717 317.31298346 36.56760926 316.52019192 43.00390625 314.203125 C49.29466827 312.0535789 55.62675034 310.08032538 62.00390625 308.203125 C62.00390625 307.543125 62.00390625 306.883125 62.00390625 306.203125 C58.49509909 306.86815163 55.07065954 307.68896542 51.62890625 308.640625 C50.28699219 309.00994141 50.28699219 309.00994141 48.91796875 309.38671875 C46.83807371 309.96942393 44.76851391 310.58955104 42.70703125 311.234375 C38.51118781 312.33202181 34.4345408 312.8387733 30.12890625 313.265625 C25.1675609 313.34286607 25.1675609 313.34286607 21.00390625 315.203125 C19.66375404 315.35894803 18.31631722 315.45356642 16.96875 315.51953125 C15.75541992 315.58237305 15.75541992 315.58237305 14.51757812 315.64648438 C13.66744141 315.68580078 12.81730469 315.72511719 11.94140625 315.765625 C11.08740234 315.80880859 10.23339844 315.85199219 9.35351562 315.89648438 C7.23718588 316.00289202 5.12056812 316.10354231 3.00390625 316.203125 C3.00390625 315.543125 3.00390625 314.883125 3.00390625 314.203125 C1.45896484 314.07357422 1.45896484 314.07357422 -0.1171875 313.94140625 C-8.0213553 313.19339842 -15.56091411 312.03023019 -23.18359375 309.765625 C-24.22374634 309.45782104 -24.22374634 309.45782104 -25.28491211 309.14379883 C-28.44403286 308.15977255 -31.33806665 307.0311268 -34.296875 305.54296875 C-36.94170966 303.98081541 -36.94170966 303.98081541 -39.99609375 304.203125 C-39.99609375 303.543125 -39.99609375 302.883125 -39.99609375 302.203125 C-42.90209636 300.94647522 -44.79213959 300.203125 -47.99609375 300.203125 C-47.99609375 299.543125 -47.99609375 298.883125 -47.99609375 298.203125 C-52.57677352 295.52590994 -52.57677352 295.52590994 -57.30859375 293.140625 C-58.99609375 292.203125 -58.99609375 292.203125 -60.99609375 289.203125 C-61.98609375 288.873125 -62.97609375 288.543125 -63.99609375 288.203125 C-65.19283062 286.7736893 -66.3851919 285.34007644 -67.54296875 283.87890625 C-69.56851078 281.54299891 -71.90784278 279.68756698 -74.2890625 277.7265625 C-75.99720439 276.20213381 -77.38480612 274.61730946 -78.80859375 272.828125 C-79.53046875 271.961875 -80.25234375 271.095625 -80.99609375 270.203125 C-81.65609375 270.203125 -82.31609375 270.203125 -82.99609375 270.203125 C-83.98609375 267.728125 -83.98609375 267.728125 -84.99609375 265.203125 C-85.65609375 265.203125 -86.31609375 265.203125 -86.99609375 265.203125 C-87.14046875 264.605 -87.28484375 264.006875 -87.43359375 263.390625 C-87.88333765 261.64162096 -88.42501716 259.91635477 -88.99609375 258.203125 C-89.65609375 257.873125 -90.31609375 257.543125 -90.99609375 257.203125 C-91.72303279 255.22423539 -92.39425626 253.22357942 -92.99609375 251.203125 C-93.65609375 251.203125 -94.31609375 251.203125 -94.99609375 251.203125 C-95.65609375 248.563125 -96.31609375 245.923125 -96.99609375 243.203125 C-97.65609375 243.203125 -98.31609375 243.203125 -98.99609375 243.203125 C-99.11726563 242.52765625 -99.2384375 241.8521875 -99.36328125 241.15625 C-99.53085937 240.26421875 -99.6984375 239.3721875 -99.87109375 238.453125 C-100.11472656 237.13054687 -100.11472656 237.13054687 -100.36328125 235.78125 C-100.88372192 233.24763054 -100.88372192 233.24763054 -101.96875 231.265625 C-103.31354821 228.56580198 -103.89338192 225.89259506 -104.55859375 222.953125 C-104.80738281 221.87546875 -105.05617188 220.7978125 -105.3125 219.6875 C-108.94741395 201.1598243 -108.33734979 181.24395841 -103.87109375 162.94921875 C-102.84445754 159.19508691 -102.84445754 159.19508691 -102.99609375 155.203125 C-102.33609375 155.203125 -101.67609375 155.203125 -100.99609375 155.203125 C-100.33609375 152.233125 -99.67609375 149.263125 -98.99609375 146.203125 C-98.33609375 146.203125 -97.67609375 146.203125 -96.99609375 146.203125 C-96.81433594 145.61144531 -96.63257813 145.01976562 -96.4453125 144.41015625 C-95.03038386 139.96220109 -93.51629017 136.16343365 -90.99609375 132.203125 C-90.99609375 131.543125 -90.99609375 130.883125 -90.99609375 130.203125 C-90.33609375 130.203125 -89.67609375 130.203125 -88.99609375 130.203125 C-88.33609375 128.223125 -87.67609375 126.243125 -86.99609375 124.203125 C-86.33609375 124.203125 -85.67609375 124.203125 -84.99609375 124.203125 C-84.72796875 123.584375 -84.45984375 122.965625 -84.18359375 122.328125 C-82.99609375 120.203125 -82.99609375 120.203125 -79.99609375 118.203125 C-79.66609375 117.213125 -79.33609375 116.223125 -78.99609375 115.203125 C-77.54885321 113.98612727 -76.09743389 112.77326195 -74.61328125 111.6015625 C-72.9752759 110.18512309 -71.70652307 108.71601637 -70.37109375 107.015625 C-68.10906038 104.33690127 -67.02333053 103.62214224 -63.99609375 102.203125 C-63.28710938 101.45675781 -62.578125 100.71039063 -61.84765625 99.94140625 C-58.59775839 96.82061392 -55.24701392 94.7014615 -51.37109375 92.453125 C-50.70335937 92.05480469 -50.035625 91.65648438 -49.34765625 91.24609375 C-46.59393808 89.62140003 -44.03769333 88.21699153 -40.99609375 87.203125 C-40.99609375 86.543125 -40.99609375 85.883125 -40.99609375 85.203125 C-40.42761719 85.09355469 -39.85914063 84.98398438 -39.2734375 84.87109375 C-34.15592486 83.82025226 -29.75111362 82.34754573 -24.99609375 80.203125 C-23.67333319 79.83003869 -22.34377298 79.47266085 -20.99609375 79.203125 C-20.99609375 78.543125 -20.99609375 77.883125 -20.99609375 77.203125 C-19.97902344 77.11224609 -19.97902344 77.11224609 -18.94140625 77.01953125 C-16.99591853 76.84438346 -15.05061566 76.66717429 -13.10546875 76.48828125 C-11.09547277 76.30394745 -9.08507149 76.12395863 -7.07421875 75.94921875 C-6.1821875 75.86800781 -5.29015625 75.78679687 -4.37109375 75.703125 C-3.55382812 75.6309375 -2.7365625 75.55875 -1.89453125 75.484375 C0.01088883 75.39475806 0.01088883 75.39475806 1.00390625 74.203125 C3.35377887 73.96784727 5.70946664 73.78926083 8.06640625 73.640625 C9.35675781 73.55683594 10.64710938 73.47304687 11.9765625 73.38671875 C12.97558594 73.32613281 13.97460938 73.26554687 15.00390625 73.203125 C15.00390625 72.543125 15.00390625 71.883125 15.00390625 71.203125 C8.05424532 71.0684344 1.28534242 71.44597496 -5.62109375 72.203125 Z M21.00390625 72.203125 C21.00390625 72.533125 21.00390625 72.863125 21.00390625 73.203125 C22.98390625 73.203125 24.96390625 73.203125 27.00390625 73.203125 C27.00390625 72.873125 27.00390625 72.543125 27.00390625 72.203125 C25.02390625 72.203125 23.04390625 72.203125 21.00390625 72.203125 Z M34.00390625 73.203125 C34.00390625 73.863125 34.00390625 74.523125 34.00390625 75.203125 C34.66390625 74.873125 35.32390625 74.543125 36.00390625 74.203125 C35.34390625 73.873125 34.68390625 73.543125 34.00390625 73.203125 Z M58.00390625 81.203125 C58.33390625 81.863125 58.66390625 82.523125 59.00390625 83.203125 C59.66390625 83.203125 60.32390625 83.203125 61.00390625 83.203125 C61.00390625 82.543125 61.00390625 81.883125 61.00390625 81.203125 C60.01390625 81.203125 59.02390625 81.203125 58.00390625 81.203125 Z M-14.99609375 85.203125 C-14.99609375 85.863125 -14.99609375 86.523125 -14.99609375 87.203125 C-15.91841797 87.29400391 -15.91841797 87.29400391 -16.859375 87.38671875 C-17.66761719 87.47050781 -18.47585938 87.55429688 -19.30859375 87.640625 C-20.10910156 87.72183594 -20.90960938 87.80304688 -21.734375 87.88671875 C-24.15696554 88.15578193 -24.15696554 88.15578193 -26.99609375 89.203125 C-26.99609375 89.863125 -26.99609375 90.523125 -26.99609375 91.203125 C-27.92421875 91.3475 -28.85234375 91.491875 -29.80859375 91.640625 C-33.00334486 92.12412611 -33.00334486 92.12412611 -35.99609375 93.203125 C-35.99609375 93.863125 -35.99609375 94.523125 -35.99609375 95.203125 C-36.75921875 95.3475 -37.52234375 95.491875 -38.30859375 95.640625 C-41.07782283 96.1663844 -41.07782283 96.1663844 -43.99609375 97.203125 C-44.32609375 97.863125 -44.65609375 98.523125 -44.99609375 99.203125 C-46.45015625 99.6671875 -46.45015625 99.6671875 -47.93359375 100.140625 C-51.26413805 100.95056622 -51.26413805 100.95056622 -52.99609375 104.203125 C-53.98609375 104.533125 -54.97609375 104.863125 -55.99609375 105.203125 C-58.20467035 107.07820662 -58.20467035 107.07820662 -59.99609375 109.203125 C-59.99609375 109.863125 -59.99609375 110.523125 -59.99609375 111.203125 C-61.64609375 111.863125 -63.29609375 112.523125 -64.99609375 113.203125 C-64.99609375 113.863125 -64.99609375 114.523125 -64.99609375 115.203125 C-65.57359375 115.409375 -66.15109375 115.615625 -66.74609375 115.828125 C-69.8166492 117.70457555 -71.06964505 120.19304891 -72.99609375 123.203125 C-74.32942708 124.53645833 -75.66276042 125.86979167 -76.99609375 127.203125 C-80.61058051 131.62824863 -83.60132408 135.99710398 -85.99609375 141.203125 C-86.36347656 141.88503906 -86.73085938 142.56695312 -87.109375 143.26953125 C-91.03310473 150.64322768 -93.48168289 158.26288016 -95.99609375 166.203125 C-96.34800781 167.12609375 -96.69992187 168.0490625 -97.0625 169 C-101.76998929 185.15121848 -101.99027423 207.36903534 -95.99609375 223.203125 C-95.57171534 224.4726926 -95.15144555 225.74363793 -94.734375 227.015625 C-91.52382313 236.51944679 -87.73565507 245.35500904 -82.99609375 254.203125 C-82.33609375 254.203125 -81.67609375 254.203125 -80.99609375 254.203125 C-80.70734375 255.1725 -80.41859375 256.141875 -80.12109375 257.140625 C-79.35394693 260.30976703 -79.35394693 260.30976703 -76.99609375 261.203125 C-76.72796875 261.780625 -76.45984375 262.358125 -76.18359375 262.953125 C-74.59866164 265.95615426 -72.50741839 267.94293283 -69.99609375 270.203125 C-69.33609375 270.203125 -68.67609375 270.203125 -67.99609375 270.203125 C-67.74859375 270.780625 -67.50109375 271.358125 -67.24609375 271.953125 C-65.81309387 274.53252479 -64.21184699 276.26434092 -61.99609375 278.203125 C-61.33609375 278.203125 -60.67609375 278.203125 -59.99609375 278.203125 C-59.66609375 279.193125 -59.33609375 280.183125 -58.99609375 281.203125 C-55.94362021 285.10350785 -51.01331003 287.2476015 -46.62109375 289.328125 C-44.99609375 290.203125 -44.99609375 290.203125 -43.99609375 292.203125 C-41.09349564 293.5780399 -39.2347067 294.203125 -35.99609375 294.203125 C-35.99609375 294.863125 -35.99609375 295.523125 -35.99609375 296.203125 C-32.62511992 297.70133559 -30.79167256 298.203125 -26.99609375 298.203125 C-26.99609375 298.863125 -26.99609375 299.523125 -26.99609375 300.203125 C-25.71412109 300.51056641 -25.71412109 300.51056641 -24.40625 300.82421875 C-22.74916016 301.22833984 -22.74916016 301.22833984 -21.05859375 301.640625 C-19.95644531 301.90746094 -18.85429687 302.17429687 -17.71875 302.44921875 C-14.99609375 303.203125 -14.99609375 303.203125 -13.99609375 304.203125 C0.96994042 306.74697944 16.11206273 307.03113973 31.19140625 305.390625 C31.86171875 305.32069336 32.53203125 305.25076172 33.22265625 305.17871094 C38.18088653 304.55520603 42.41345204 303.04847966 47.00390625 301.203125 C48.28282789 300.73448181 49.56405284 300.27206981 50.84765625 299.81640625 C53.30611613 298.94176187 55.76444737 298.06675584 58.22265625 297.19140625 C59.14046875 296.86527344 60.05828125 296.53914062 61.00390625 296.203125 C61.00390625 295.543125 61.00390625 294.883125 61.00390625 294.203125 C61.56980469 294.08195313 62.13570312 293.96078125 62.71875 293.8359375 C63.45222656 293.66835938 64.18570313 293.50078125 64.94140625 293.328125 C65.67230469 293.16570312 66.40320313 293.00328125 67.15625 292.8359375 C69.21090919 292.37350977 69.21090919 292.37350977 70.00390625 290.203125 C73.00039859 288.39392208 75.89350286 286.66034993 79.12890625 285.328125 C81.32870379 284.14822964 81.32870379 284.14822964 83.50390625 281.203125 C86.00390625 278.203125 86.00390625 278.203125 87.9453125 277.25 C90.40187272 276.00074357 91.67484695 274.55830883 93.44140625 272.453125 C94.04597656 271.73640625 94.65054688 271.0196875 95.2734375 270.28125 C95.84449219 269.59546875 96.41554688 268.9096875 97.00390625 268.203125 C98.30328125 266.718125 98.30328125 266.718125 99.62890625 265.203125 C104.71249614 259.28911769 104.71249614 259.28911769 107.00390625 252.203125 C107.66390625 252.203125 108.32390625 252.203125 109.00390625 252.203125 C110.46453475 249.55573584 111.00390625 248.30864166 111.00390625 245.203125 C111.66390625 245.203125 112.32390625 245.203125 113.00390625 245.203125 C117.18332773 235.20686486 120.70556283 225.65840683 122.49609375 214.94921875 C123.00390625 212.203125 123.00390625 212.203125 124.00390625 211.203125 C124.39456971 207.99028458 124.48029113 204.7476566 124.62890625 201.515625 C124.67394287 200.56985596 124.71897949 199.62408691 124.76538086 198.6496582 C125.07419763 191.08589433 124.82677762 183.73556292 124.00390625 176.203125 C123.34390625 176.203125 122.68390625 176.203125 122.00390625 176.203125 C121.96523438 175.11257812 121.96523438 175.11257812 121.92578125 174 C121.12851884 159.86671184 115.44582523 148.52407684 109.00390625 136.203125 C108.34390625 136.203125 107.68390625 136.203125 107.00390625 136.203125 C106.60171875 134.8109375 106.60171875 134.8109375 106.19140625 133.390625 C105.05722325 130.34623905 104.30706467 129.30600878 102.00390625 127.203125 C101.67390625 126.213125 101.34390625 125.223125 101.00390625 124.203125 C99.57447055 123.00638813 98.14085769 121.81402685 96.6796875 120.65625 C94.91449895 119.12559699 93.48855826 117.50507731 92.00390625 115.703125 C89.26510293 112.40935364 86.43386584 109.77559469 83.00390625 107.203125 C82.34390625 107.203125 81.68390625 107.203125 81.00390625 107.203125 C81.00390625 106.543125 81.00390625 105.883125 81.00390625 105.203125 C77.48532492 101.94818377 73.84981163 99.64366185 69.00390625 99.203125 C69.00390625 98.543125 69.00390625 97.883125 69.00390625 97.203125 C66.35651709 95.7424965 65.10942291 95.203125 62.00390625 95.203125 C62.00390625 94.543125 62.00390625 93.883125 62.00390625 93.203125 C57.54890625 92.213125 57.54890625 92.213125 53.00390625 91.203125 C53.00390625 90.543125 53.00390625 89.883125 53.00390625 89.203125 C51.70066406 88.91308594 51.70066406 88.91308594 50.37109375 88.6171875 C49.21867188 88.35679688 48.06625 88.09640625 46.87890625 87.828125 C45.74195313 87.57289062 44.605 87.31765625 43.43359375 87.0546875 C40.00390625 86.203125 40.00390625 86.203125 37.01171875 85.1640625 C28.99402949 82.60256697 20.63781584 83.01969415 12.31640625 83.015625 C11.01767578 83.00337891 9.71894531 82.99113281 8.38085938 82.97851562 C0.38149523 82.96646234 -7.15872134 83.58466679 -14.99609375 85.203125 Z M91.00390625 101.203125 C91.00390625 101.863125 91.00390625 102.523125 91.00390625 103.203125 C91.66390625 103.203125 92.32390625 103.203125 93.00390625 103.203125 C93.00390625 102.543125 93.00390625 101.883125 93.00390625 101.203125 C92.34390625 101.203125 91.68390625 101.203125 91.00390625 101.203125 Z M102.00390625 112.203125 C102.33390625 113.193125 102.66390625 114.183125 103.00390625 115.203125 C103.66390625 115.203125 104.32390625 115.203125 105.00390625 115.203125 C105.00390625 114.543125 105.00390625 113.883125 105.00390625 113.203125 C104.01390625 112.873125 103.02390625 112.543125 102.00390625 112.203125 Z M109.00390625 120.203125 C110.00390625 122.203125 110.00390625 122.203125 110.00390625 122.203125 Z M111.00390625 123.203125 C111.00390625 124.193125 111.00390625 125.183125 111.00390625 126.203125 C111.99390625 126.533125 112.98390625 126.863125 114.00390625 127.203125 C113.34390625 125.883125 112.68390625 124.563125 112.00390625 123.203125 C111.67390625 123.203125 111.34390625 123.203125 111.00390625 123.203125 Z M114.00390625 128.203125 C114.33390625 129.193125 114.66390625 130.183125 115.00390625 131.203125 C115.00390625 130.213125 115.00390625 129.223125 115.00390625 128.203125 C114.67390625 128.203125 114.34390625 128.203125 114.00390625 128.203125 Z M119.00390625 136.203125 C119.00390625 137.193125 119.00390625 138.183125 119.00390625 139.203125 C119.66390625 138.873125 120.32390625 138.543125 121.00390625 138.203125 C120.34390625 137.543125 119.68390625 136.883125 119.00390625 136.203125 Z M123.00390625 143.203125 C124.00390625 146.203125 124.00390625 146.203125 124.00390625 146.203125 Z M125.00390625 148.203125 C126.00390625 150.203125 126.00390625 150.203125 126.00390625 150.203125 Z M126.00390625 152.203125 C126.33390625 154.183125 126.66390625 156.163125 127.00390625 158.203125 C127.66390625 158.203125 128.32390625 158.203125 129.00390625 158.203125 C128.67390625 156.223125 128.34390625 154.243125 128.00390625 152.203125 C127.34390625 152.203125 126.68390625 152.203125 126.00390625 152.203125 Z M130.00390625 167.203125 C130.66390625 168.523125 131.32390625 169.843125 132.00390625 171.203125 C132.00390625 169.883125 132.00390625 168.563125 132.00390625 167.203125 C131.34390625 167.203125 130.68390625 167.203125 130.00390625 167.203125 Z M132.00390625 172.203125 C133.00390625 174.203125 133.00390625 174.203125 133.00390625 174.203125 Z M133.00390625 184.203125 C133.00390625 187.173125 133.00390625 190.143125 133.00390625 193.203125 C133.33390625 193.203125 133.66390625 193.203125 134.00390625 193.203125 C134.00390625 190.233125 134.00390625 187.263125 134.00390625 184.203125 C133.67390625 184.203125 133.34390625 184.203125 133.00390625 184.203125 Z M133.00390625 202.203125 C133.00390625 204.513125 133.00390625 206.823125 133.00390625 209.203125 C133.33390625 209.203125 133.66390625 209.203125 134.00390625 209.203125 C134.00390625 206.893125 134.00390625 204.583125 134.00390625 202.203125 C133.67390625 202.203125 133.34390625 202.203125 133.00390625 202.203125 Z M131.00390625 219.203125 C132.00390625 222.203125 132.00390625 222.203125 132.00390625 222.203125 Z M127.00390625 231.203125 C127.00390625 233.183125 127.00390625 235.163125 127.00390625 237.203125 C129.28125635 234.38802507 129.28125635 234.38802507 129.00390625 231.203125 C128.34390625 231.203125 127.68390625 231.203125 127.00390625 231.203125 Z M125.00390625 239.203125 C126.00390625 241.203125 126.00390625 241.203125 126.00390625 241.203125 Z M123.00390625 242.203125 C123.33390625 243.523125 123.66390625 244.843125 124.00390625 246.203125 C124.33390625 244.883125 124.66390625 243.563125 125.00390625 242.203125 C124.34390625 242.203125 123.68390625 242.203125 123.00390625 242.203125 Z M119.00390625 250.203125 C119.33390625 251.523125 119.66390625 252.843125 120.00390625 254.203125 C120.33390625 252.883125 120.66390625 251.563125 121.00390625 250.203125 C120.34390625 250.203125 119.68390625 250.203125 119.00390625 250.203125 Z M117.00390625 255.203125 C118.00390625 257.203125 118.00390625 257.203125 118.00390625 257.203125 Z M115.00390625 258.203125 C116.00390625 260.203125 116.00390625 260.203125 116.00390625 260.203125 Z M75.00390625 298.203125 C75.00390625 298.863125 75.00390625 299.523125 75.00390625 300.203125 C75.66390625 300.203125 76.32390625 300.203125 77.00390625 300.203125 C77.00390625 299.543125 77.00390625 298.883125 77.00390625 298.203125 C76.34390625 298.203125 75.68390625 298.203125 75.00390625 298.203125 Z M67.00390625 302.203125 C67.00390625 302.863125 67.00390625 303.523125 67.00390625 304.203125 C67.99390625 304.203125 68.98390625 304.203125 70.00390625 304.203125 C70.00390625 303.543125 70.00390625 302.883125 70.00390625 302.203125 C69.01390625 302.203125 68.02390625 302.203125 67.00390625 302.203125 Z M64.00390625 304.203125 C63.34390625 304.863125 62.68390625 305.523125 62.00390625 306.203125 C63.65390625 305.873125 65.30390625 305.543125 67.00390625 305.203125 C66.01390625 304.873125 65.02390625 304.543125 64.00390625 304.203125 Z " fill="#FAFDFE" transform="translate(366.99609375,21.796875)"/>
<path d="M0 0 C1 1 1 1 1.09765625 2.84765625 C1.06510417 4.8984375 1.03255208 6.94921875 1 9 C1.680625 9.0825 2.36125 9.165 3.0625 9.25 C6.8746907 10.22332528 9.64070329 11.95807455 13 14 C13 14.66 13 15.32 13 16 C13.99 16 14.98 16 16 16 C16.33 14.68 16.66 13.36 17 12 C24.55497403 11.86179926 32.07967218 12.08132052 39.625 12.4375 C40.51413086 12.47673584 41.40326172 12.51597168 42.31933594 12.55639648 C43.57278809 12.61935913 43.57278809 12.61935913 44.8515625 12.68359375 C45.97812256 12.73858032 45.97812256 12.73858032 47.12744141 12.79467773 C49 13 49 13 51 14 C51.85571373 18.36414001 52.10827397 22.56076733 52 27 C54.97 27.99 57.94 28.98 61 30 C61 30.66 61 31.32 61 32 C61.556875 32.061875 62.11375 32.12375 62.6875 32.1875 C66.05268543 33.36986245 67.67976762 35.32280879 70 38 C70.474375 38.99 70.94875 39.98 71.4375 41 C73.03631126 44.06971762 74.72425313 45.61104804 77.4375 47.70703125 C80.03650574 49.8577085 81.96808595 52.31070199 84 55 C84 55.66 84 56.32 84 57 C84.66 57 85.32 57 86 57 C88 60 88 60 88 63 C88.66 63 89.32 63 90 63 C90 63.99 90 64.98 90 66 C88.02 66 86.04 66 84 66 C84.33 66.556875 84.66 67.11375 85 67.6875 C86.18371577 70.42484273 86.36087286 72.04084254 86 75 C83.66666667 79.66666667 83.66666667 79.66666667 81 81 C80.84674532 82.70348473 80.77795863 84.41486388 80.75 86.125 C80.36846796 91.27233571 79.29040824 94.04169737 75.69140625 97.71875 C74 99 74 99 70.75 100.0625 C67.81544952 100.74165126 67.81544952 100.74165126 66.5 103.375 C65.87915444 107.8761303 66.62757564 111.58839333 67.48046875 116.0234375 C68.35687695 121.04466341 68.63630855 126.09107434 67 131 C66.34 131 65.68 131 65 131 C64.731875 131.804375 64.46375 132.60875 64.1875 133.4375 C63.795625 134.283125 63.40375 135.12875 63 136 C62.01 136.33 61.02 136.66 60 137 C57.35703248 139.33203016 56.12775574 140.61673278 55 144 C54.34 144 53.68 144 53 144 C53.04125 145.2375 53.0825 146.475 53.125 147.75 C53.13658291 151.01637962 52.8568702 153.2146947 51 156 C50.34 156 49.68 156 49 156 C48.79375 157.051875 48.5875 158.10375 48.375 159.1875 C47.34825609 162.79556486 45.70472588 164.44073358 42.640625 166.671875 C40.77221205 168.18439977 39.4673717 169.85013981 38 171.75 C35.76443699 174.47644061 35.20166633 174.94398158 31.625 175.9375 C30.325625 175.9684375 30.325625 175.9684375 29 176 C29 176.66 29 177.32 29 178 C24.38 178.33 19.76 178.66 15 179 C15 178.01 15 177.02 15 176 C14.34 176 13.68 176 13 176 C12.87882812 175.14535156 12.75765625 174.29070312 12.6328125 173.41015625 C12.46523438 172.30542969 12.29765625 171.20070313 12.125 170.0625 C11.96257812 168.96035156 11.80015625 167.85820312 11.6328125 166.72265625 C11.42398438 165.82417969 11.21515625 164.92570313 11 164 C10.34 163.67 9.68 163.34 9 163 C7.27335137 159.54670274 6.78047477 156.84169158 7 153 C6.34 153 5.68 153 5 153 C4.83564453 151.73542969 4.83564453 151.73542969 4.66796875 150.4453125 C4.50941406 149.34960938 4.35085938 148.25390625 4.1875 147.125 C4.03667969 146.03445313 3.88585937 144.94390625 3.73046875 143.8203125 C3.25334259 140.68761154 3.25334259 140.68761154 0 139 C-0.92350727 136.22947819 -1.16329585 134.43311242 -1.1875 131.5625 C-1.20167969 130.80066406 -1.21585937 130.03882813 -1.23046875 129.25390625 C-0.97612666 126.76652685 -0.24017196 125.15191894 1 123 C1.66 123 2.32 123 3 123 C3 120.69 3 118.38 3 116 C2.34 116 1.68 116 1 116 C-0.26305335 110.92523206 -1.27036084 106.27203646 -1 101 C-2.32 100.34 -3.64 99.68 -5 99 C-5 98.34 -5 97.68 -5 97 C-5.99 96.67 -6.98 96.34 -8 96 C-8.28571429 88.57142857 -8.28571429 88.57142857 -6 85 C-10.09550146 80.90449854 -16.15907526 79.80615985 -21.8125 79.75 C-23.94926771 79.79670531 -25.79083552 79.9441678 -27.85668945 80.49560547 C-31.65408861 81.38926382 -35.4891879 81.30984157 -39.375 81.375 C-40.21289062 81.41238281 -41.05078125 81.44976562 -41.9140625 81.48828125 C-46.1612218 81.54838256 -49.07130133 81.42154607 -52.45703125 78.69921875 C-55.88604894 75.05950873 -58.38640687 71.59072656 -59.5625 66.625 C-59.706875 66.08875 -59.85125 65.5525 -60 65 C-60.99 64.67 -61.98 64.34 -63 64 C-66.49588279 59.72725437 -66.3521676 56.28251395 -66 51 C-65.505 50.505 -65.505 50.505 -65 50 C-64.94291855 48.24315987 -64.89017245 46.48605014 -64.86157227 44.72851562 C-64.67901371 36.67050798 -63.65273756 30.23750351 -58 24 C-57.34 24 -56.68 24 -56 24 C-55.67 23.01 -55.34 22.02 -55 21 C-53.35 20.67 -51.7 20.34 -50 20 C-50 19.34 -50 18.68 -50 18 C-49.34 17.67 -48.68 17.34 -48 17 C-47.27840576 15.35636866 -46.60648579 13.68949614 -46 12 C-45.34 12 -44.68 12 -44 12 C-43.67 11.01 -43.34 10.02 -43 9 C-42.01 8.67 -41.02 8.34 -40 8 C-38.64567325 6.68799596 -37.31266518 5.35368596 -36 4 C-32.92804676 1.95203118 -31.8199142 1.67753681 -28.28125 1.3671875 C-27.34796875 1.28339844 -26.4146875 1.19960937 -25.453125 1.11328125 C-23.99132812 0.99533203 -23.99132812 0.99533203 -22.5 0.875 C-21.55640625 0.78863281 -20.6128125 0.70226562 -19.640625 0.61328125 C-13.12247234 0.0522927 -6.54036639 -0.40002706 0 0 Z M64 80 C64.33 80.99 64.66 81.98 65 83 C65.66 83 66.32 83 67 83 C67 82.01 67 81.02 67 80 C66.01 80 65.02 80 64 80 Z " fill="#F5FEFE" transform="translate(358,136)"/>
<path d="M0 0 C1 1 1 1 1.234375 4.09765625 C0.9813827 8.30997802 -0.09683494 11.61815258 -1.75 15.4375 C-2.02658447 16.09854736 -2.30316895 16.75959473 -2.58813477 17.44067383 C-4.54387276 22.06638464 -6.56544964 26.60776997 -9 31 C-9.57105469 32.03769531 -10.14210938 33.07539063 -10.73046875 34.14453125 C-14.37171884 40.59367317 -14.37171884 40.59367317 -16 43 C-16.66 43 -17.32 43 -18 43 C-18.144375 43.598125 -18.28875 44.19625 -18.4375 44.8125 C-19.52003067 49.02234148 -20.72833215 51.12489795 -24 54 C-24.66 54 -25.32 54 -26 54 C-26.1546875 54.9590625 -26.1546875 54.9590625 -26.3125 55.9375 C-26.6528125 56.9584375 -26.6528125 56.9584375 -27 58 C-27.99 58.33 -28.98 58.66 -30 59 C-30 60.98 -30 62.96 -30 65 C-29.443125 65.061875 -28.88625 65.12375 -28.3125 65.1875 C-25.02800125 66.34151307 -23.34557016 68.47400137 -21 71 C-20.401875 71.556875 -19.80375 72.11375 -19.1875 72.6875 C-18 74 -18 74 -18 76 C-17.34 76 -16.68 76 -16 76 C-12.08892395 82.7091186 -10.14868372 89.0454642 -8.68359375 96.65234375 C-7.66416853 101.6446147 -6.30567809 106.53839902 -3.91015625 111.0546875 C-3 113 -3 113 -3 116 C-2.4225 116.2475 -1.845 116.495 -1.25 116.75 C1.32939979 118.18299988 3.06121592 119.78424676 5 122 C5 122.66 5 123.32 5 124 C5.5775 124.12375 6.155 124.2475 6.75 124.375 C9 125 9 125 10.875 126 C17.08530844 128.92249809 24.30142471 128.09755207 31 128 C31 127.34 31 126.68 31 126 C32.32 125.67 33.64 125.34 35 125 C36.52588243 119.2779409 37.16761402 111.63081344 35 106 C32.03739474 104.76242123 32.03739474 104.76242123 29 104 C28.67 103.67 28.34 103.34 28 103 C24.87506846 102.66216956 23.44174118 102.69709176 20.8125 104.5 C20.214375 104.995 19.61625 105.49 19 106 C18.34 106 17.68 106 17 106 C17 107.98 17 109.96 17 112 C22.05009595 112.93786082 22.05009595 112.93786082 27 112 C27 111.34 27 110.68 27 110 C28.65 110 30.3 110 32 110 C33.11445498 112.22890995 33.16480286 113.53055106 33.1875 116 C33.20167969 116.70125 33.21585938 117.4025 33.23046875 118.125 C33 120 33 120 31 122 C30.01 122 29.02 122 28 122 C28 122.66 28 123.32 28 124 C26.56359829 124.19573608 25.12580496 124.38127816 23.6875 124.5625 C22.48673828 124.71912109 22.48673828 124.71912109 21.26171875 124.87890625 C19 125 19 125 16 124 C16 123.34 16 122.68 16 122 C15.360625 121.896875 14.72125 121.79375 14.0625 121.6875 C13.381875 121.460625 12.70125 121.23375 12 121 C11.67 120.01 11.34 119.02 11 118 C10.34 118 9.68 118 9 118 C7.64172299 115.28344597 7.8676555 113.09210594 7.875 110.0625 C7.87242187 109.00160156 7.86984375 107.94070313 7.8671875 106.84765625 C8 104 8 104 9 101 C9.66 101 10.32 101 11 101 C11.33 99.68 11.66 98.36 12 97 C13.32 96.67 14.64 96.34 16 96 C16 95.34 16 94.68 16 94 C19.22400573 93.04192283 22.14285676 92.86577708 25.5 92.875 C26.90765625 92.87113281 26.90765625 92.87113281 28.34375 92.8671875 C30.7214263 92.98607132 32.72683096 93.32448278 35 94 C35 94.66 35 95.32 35 96 C35.721875 96.20625 36.44375 96.4125 37.1875 96.625 C41.02703273 98.50210489 42.54518644 100.49312348 45 104 C45 105.32 45 106.64 45 108 C45.66 108 46.32 108 47 108 C47.83830296 110.92075397 48.13527361 113.52664783 48.125 116.5625 C48.12757813 117.32691406 48.13015625 118.09132813 48.1328125 118.87890625 C48 121 48 121 47 124 C46.34 124 45.68 124 45 124 C44.9175 124.9075 44.835 125.815 44.75 126.75 C43.89965742 130.43481784 42.97192627 131.7273505 40 134 C39.01 134 38.02 134 37 134 C36.67 134.99 36.34 135.98 36 137 C31.77931174 138.59302689 27.13413311 138.18409262 22.6875 138.1875 C21.85798828 138.19974609 21.02847656 138.21199219 20.17382812 138.22460938 C11.99196271 138.24398238 5.92490636 136.23973859 -1 132 C-1 131.34 -1 130.68 -1 130 C-2.32 129.34 -3.64 128.68 -5 128 C-5 127.34 -5 126.68 -5 126 C-6.32 125.34 -7.64 124.68 -9 124 C-9 123.01 -9 122.02 -9 121 C-9.66 121 -10.32 121 -11 121 C-12.625 119 -12.625 119 -14 117 C-14.20625 117.556875 -14.4125 118.11375 -14.625 118.6875 C-16.51040088 121.85840149 -19.15359359 123.68729479 -22 126 C-22.66 126.99 -23.32 127.98 -24 129 C-27.125 129.6875 -27.125 129.6875 -30 130 C-30 130.66 -30 131.32 -30 132 C-39.76836426 135.12587656 -50.23163574 135.12587656 -60 132 C-60 131.34 -60 130.68 -60 130 C-60.94875 129.855625 -61.8975 129.71125 -62.875 129.5625 C-66 129 -66 129 -68 128 C-68 127.34 -68 126.68 -68 126 C-69.98 125.01 -69.98 125.01 -72 124 C-72 123.34 -72 122.68 -72 122 C-73.485 121.505 -73.485 121.505 -75 121 C-75.33 119.35 -75.66 117.7 -76 116 C-76.66 116 -77.32 116 -78 116 C-80.7848669 108.16756183 -81.35802471 99.76543213 -78 92 C-77.34 92 -76.68 92 -76 92 C-75.9175 91.4225 -75.835 90.845 -75.75 90.25 C-74.774018 87.32205399 -73.36488777 85.94755463 -71 84 C-70.01 84 -69.02 84 -68 84 C-67.505 82.515 -67.505 82.515 -67 81 C-60.22111611 77.9882819 -51.86546508 77.87971644 -44.67578125 79.53515625 C-41.07609277 80.96409983 -38.3532516 82.94948867 -36 86 C-34.26896397 90.32448786 -33.72824139 93.97953578 -33.75 98.625 C-33.74226562 100.28402344 -33.74226562 100.28402344 -33.734375 101.9765625 C-33.99444197 104.9367366 -34.3708845 106.55082299 -36 109 C-39.90660883 112.10752975 -43.00091865 113.67397296 -48 114 C-50.375 113.5625 -50.375 113.5625 -52 113 C-52 112.01 -52 111.02 -52 110 C-52.66 110 -53.32 110 -54 110 C-54 109.34 -54 108.68 -54 108 C-53.34 108 -52.68 108 -52 108 C-52 107.01 -52 106.02 -52 105 C-50.865625 104.54625 -49.73125 104.0925 -48.5625 103.625 C-44.95278308 102.42904194 -44.95278308 102.42904194 -44 100 C-43.49957854 97.08461971 -43.49957854 97.08461971 -44 94 C-45.79131449 91.39691117 -45.79131449 91.39691117 -49 90 C-54.03560469 89.41388863 -59.09192994 89.69118132 -64 91 C-64 91.66 -64 92.32 -64 93 C-64.99 93.66 -65.98 94.32 -67 95 C-67.72382467 97.05925139 -67.72382467 97.05925139 -68 99 C-68.66 99 -69.32 99 -70 99 C-70 102.3 -70 105.6 -70 109 C-69.34 109 -68.68 109 -68 109 C-67.7525 110.11375 -67.505 111.2275 -67.25 112.375 C-66.38994661 116.04615198 -66.38994661 116.04615198 -63.875 117.4375 C-63.25625 117.623125 -62.6375 117.80875 -62 118 C-62 118.66 -62 119.32 -62 120 C-61.236875 120.144375 -60.47375 120.28875 -59.6875 120.4375 C-57 121 -57 121 -54 122 C-54 122.66 -54 123.32 -54 124 C-48.06 124 -42.12 124 -36 124 C-36 123.34 -36 122.68 -36 122 C-35.071875 121.566875 -34.14375 121.13375 -33.1875 120.6875 C-30.48254066 119.2554627 -29.0458389 118.14813084 -27 116 C-26.34 116 -25.68 116 -25 116 C-24.34 114.02 -23.68 112.04 -23 110 C-22.34 110 -21.68 110 -21 110 C-21 102.41 -21 94.82 -21 87 C-21.66 87 -22.32 87 -23 87 C-23.4021875 85.8553125 -23.4021875 85.8553125 -23.8125 84.6875 C-24.99983875 82.00036494 -25.84798276 80.91290422 -28 79 C-28.845625 78.13375 -29.69125 77.2675 -30.5625 76.375 C-32.75959819 73.99358358 -32.75959819 73.99358358 -35 73 C-35 72.34 -35 71.68 -35 71 C-37.97 70.34 -40.94 69.68 -44 69 C-44 68.34 -44 67.68 -44 67 C-52.91 67 -61.82 67 -71 67 C-71 67.66 -71 68.32 -71 69 C-76.445 69.99 -76.445 69.99 -82 71 C-82 71.66 -82 72.32 -82 73 C-84.90600261 74.25664978 -86.79604584 75 -90 75 C-90.495 76.485 -90.495 76.485 -91 78 C-96.78773006 81.71288344 -96.78773006 81.71288344 -100.375 82.5625 C-100.91125 82.706875 -101.4475 82.85125 -102 83 C-102.495 84.485 -102.495 84.485 -103 86 C-105.33203016 88.64296752 -106.61673278 89.87224426 -110 91 C-111.14974553 92.42027388 -112.29746175 93.84225032 -113.43359375 95.2734375 C-115.19893289 97.21927266 -117.08041401 98.68176316 -119.1875 100.25 C-128.29754068 107.05707008 -128.29754068 107.05707008 -135 116 C-135.66 116 -136.32 116 -137 116 C-137.2475 116.556875 -137.495 117.11375 -137.75 117.6875 C-139.56239774 121.04043581 -141.53114492 124.26557246 -145 126 C-145.33 126.99 -145.66 127.98 -146 129 C-147.1875 130.6875 -147.1875 130.6875 -149 132 C-152.1875 132.1875 -152.1875 132.1875 -155 132 C-155 131.34 -155 130.68 -155 130 C-155.99 129.67 -156.98 129.34 -158 129 C-157.54283533 124.08547977 -156.33180262 121.61738571 -153 118 C-152.29875 117.236875 -151.5975 116.47375 -150.875 115.6875 C-149 114 -149 114 -147 114 C-146.79375 113.278125 -146.5875 112.55625 -146.375 111.8125 C-144.60768726 108.19754213 -142.09827794 106.51735083 -139 104 C-137.62745412 101.85019503 -137.62745412 101.85019503 -137 100 C-136.34 100 -135.68 100 -135 100 C-134.7525 99.28457031 -134.505 98.56914062 -134.25 97.83203125 C-132.86136405 94.68590294 -131.15536054 92.36189037 -129 89.6875 C-128.29875 88.80449219 -127.5975 87.92148437 -126.875 87.01171875 C-126.25625 86.34785156 -125.6375 85.68398438 -125 85 C-124.34 85 -123.68 85 -123 85 C-122.896875 84.360625 -122.79375 83.72125 -122.6875 83.0625 C-122.460625 82.381875 -122.23375 81.70125 -122 81 C-121.01 80.67 -120.02 80.34 -119 80 C-118.31775051 78.67457258 -117.65469461 77.33925248 -117 76 C-113.51291618 71.83963588 -109.74636664 67.92694129 -106 64 C-105.43651855 63.40783691 -104.87303711 62.81567383 -104.29248047 62.20556641 C-102.5808578 60.41778593 -100.85586833 58.64413878 -99.125 56.875 C-98.32292114 56.04077515 -98.32292114 56.04077515 -97.50463867 55.18969727 C-94.50566725 52.16537051 -92.00661981 50.39484455 -88 49 C-86.65589738 46.98264795 -86.65589738 46.98264795 -86 45 C-85.34 45 -84.68 45 -84 45 C-84 44.34 -84 43.68 -84 43 C-83.38125 42.731875 -82.7625 42.46375 -82.125 42.1875 C-79.7004767 41.04443152 -79.7004767 41.04443152 -78 38 C-77.01 37.67 -76.02 37.34 -75 37 C-74.525625 36.505 -74.05125 36.01 -73.5625 35.5 C-72 34 -72 34 -69.875 33.5 C-69.25625 33.335 -68.6375 33.17 -68 33 C-67.67 32.01 -67.34 31.02 -67 30 C-66.01 29.67 -65.02 29.34 -64 29 C-63.67 28.34 -63.34 27.68 -63 27 C-60.37418862 25.42451317 -59.12900213 25 -56 25 C-55.505 23.515 -55.505 23.515 -55 22 C-53.35 21.67 -51.7 21.34 -50 21 C-50 20.34 -50 19.68 -50 19 C-47.35261084 17.5393715 -46.10551666 17 -43 17 C-43 16.34 -43 15.68 -43 15 C-40.09399739 13.74335022 -38.20395416 13 -35 13 C-35 12.34 -35 11.68 -35 11 C-27.09189095 7.73836055 -19.07753512 4.81373854 -11 2 C-9.92878906 1.62488281 -8.85757813 1.24976563 -7.75390625 0.86328125 C-4.98194934 -0.00565844 -2.88377936 -0.24718109 0 0 Z M-43.12060547 26.98925781 C-45.7176883 28.38597422 -48.35364311 29.69959927 -51 31 C-51 31.66 -51 32.32 -51 33 C-51.66128906 33.20882812 -52.32257813 33.41765625 -53.00390625 33.6328125 C-57.09581145 35.50004434 -60.39347009 38.13059801 -63.9375 40.875 C-65.32044571 41.93642052 -66.70454227 42.99634343 -68.08984375 44.0546875 C-68.75177734 44.56112793 -69.41371094 45.06756836 -70.09570312 45.58935547 C-71.7991802 46.85123887 -73.56642488 48.02596249 -75.33984375 49.1875 C-77.6242309 50.74396936 -79.02633226 51.92826951 -80.625 54.125 C-82.75768126 56.70666679 -83.93271401 57.86396815 -87 59 C-87 59.99 -87 60.98 -87 62 C-87.99 62.495 -87.99 62.495 -89 63 C-85.7 62.34 -82.4 61.68 -79 61 C-79 60.34 -79 59.68 -79 59 C-78.2575 58.9175 -77.515 58.835 -76.75 58.75 C-73.4602774 57.85280293 -72.29714895 56.45029221 -70 54 C-68.515 53.505 -68.515 53.505 -67 53 C-65.81616148 51.54870934 -64.63422645 50.09577106 -63.46728516 48.63085938 C-60.9322237 45.81318707 -57.82416967 43.84326668 -54.6875 41.75 C-52.40415507 40.21712508 -50.2001999 38.65536014 -48 37 C-48 36.34 -48 35.68 -48 35 C-47.05125 34.71125 -46.1025 34.4225 -45.125 34.125 C-41.94788422 33.23174891 -41.94788422 33.23174891 -40 31 C-37.31160615 30.73008094 -34.70858064 30.91262643 -32 31 C-32 33.31 -32 35.62 -32 38 C-32.99 38.33 -33.98 38.66 -35 39 C-35 39.66 -35 40.32 -35 41 C-35.598125 41.144375 -36.19625 41.28875 -36.8125 41.4375 C-38.56150404 41.8872439 -40.28677023 42.42892341 -42 43 C-42.33 43.66 -42.66 44.32 -43 45 C-45 46 -45 46 -47 47 C-48.02297922 47.97648017 -49.01904252 48.98131338 -50 50 C-51.05813666 50.85956603 -52.12101788 51.71331049 -53.1875 52.5625 C-54.5796875 53.7690625 -54.5796875 53.7690625 -56 55 C-56 55.66 -56 56.32 -56 57 C-47.00287632 58.51335073 -47.00287632 58.51335073 -38.5625 56.125 C-37.23683391 54.7002214 -37.23683391 54.7002214 -36 53 C-35.44183594 52.33226562 -34.88367188 51.66453125 -34.30859375 50.9765625 C-26.82803051 42.73023516 -26.82803051 42.73023516 -23 33 C-22.34 33 -21.68 33 -21 33 C-20.71125 32.030625 -20.4225 31.06125 -20.125 30.0625 C-19 27 -19 27 -17 26 C-15.37265234 22.65489648 -15 20.81164166 -15 17 C-14.34 17 -13.68 17 -13 17 C-13 16.01 -13 15.02 -13 14 C-22.9674306 14 -34.58315758 22.32553659 -43.12060547 26.98925781 Z " fill="#FAFDFE" transform="translate(587,269)"/>
<path d="M0 0 C2.0625 0.3125 2.0625 0.3125 5 1 C6.175625 1.268125 7.35125 1.53625 8.5625 1.8125 C16.61112588 3.85514369 24.42398551 6.61497225 32 10 C32.99 10.33 33.98 10.66 35 11 C35 11.66 35 12.32 35 13 C35.763125 13.144375 36.52625 13.28875 37.3125 13.4375 C40 14 40 14 43 15 C43 15.66 43 16.32 43 17 C43.56203125 17.11214844 44.1240625 17.22429687 44.703125 17.33984375 C47.31513108 18.09057339 49.39471322 19.21167376 51.75 20.5625 C52.54921875 21.01753906 53.3484375 21.47257812 54.171875 21.94140625 C54.77515625 22.29074219 55.3784375 22.64007813 56 23 C56 23.66 56 24.32 56 25 C56.61875 25.144375 57.2375 25.28875 57.875 25.4375 C60 26 60 26 62 27 C62 27.66 62 28.32 62 29 C63.98 29.66 65.96 30.32 68 31 C68 31.66 68 32.32 68 33 C68.763125 33.268125 69.52625 33.53625 70.3125 33.8125 C72.92313504 34.96603641 74.07385089 35.98629865 76 38 C77.485 38.495 77.485 38.495 79 39 C80.2065625 40.4540625 80.2065625 40.4540625 81.4375 41.9375 C83.67613927 44.61294693 84.8250163 45.82408011 88 47 C88 47.66 88 48.32 88 49 C89.32 49.66 90.64 50.32 92 51 C92 51.66 92 52.32 92 53 C93.32 53.66 94.64 54.32 96 55 C96 55.66 96 56.32 96 57 C96.58426758 57.26047119 97.16853516 57.52094238 97.77050781 57.78930664 C101.71445839 59.93101173 104.60568414 63.27832442 107.75 66.4375 C108.44738281 67.11876953 109.14476562 67.80003906 109.86328125 68.50195312 C110.52199219 69.16001953 111.18070313 69.81808594 111.859375 70.49609375 C112.76381348 71.39606079 112.76381348 71.39606079 113.68652344 72.31420898 C115 74 115 74 115 77 C115.99 77.33 116.98 77.66 118 78 C122.82829979 82.6880102 127.36773502 88.33207003 131 94 C131 94.66 131 95.32 131 96 C131.99 96.33 132.98 96.66 134 97 C134.33 97.99 134.66 98.98 135 100 C135.99 100.66 136.98 101.32 138 102 C138.33 102.99 138.66 103.98 139 105 C140.40527808 106.17106507 141.81432031 107.33804386 143.24609375 108.4765625 C147.69803243 112.34350256 151.66008112 117.14652272 155 122 C155 122.66 155 123.32 155 124 C155.66 124 156.32 124 157 124 C157 125.98 157 127.96 157 130 C156.34 130 155.68 130 155 130 C155 130.66 155 131.32 155 132 C153.35 132 151.7 132 150 132 C150 131.34 150 130.68 150 130 C149.0409375 129.8453125 149.0409375 129.8453125 148.0625 129.6875 C147.381875 129.460625 146.70125 129.23375 146 129 C145.67 128.01 145.34 127.02 145 126 C143.60073792 124.87376467 142.20012023 123.74917495 140.79296875 122.6328125 C138.66678705 120.69655117 137.00822365 118.58784825 135.25 116.3125 C129.34614906 108.74607035 123.01807795 102.28464228 115 97 C113.38113788 95.2180584 111.87185628 93.38886193 110.39453125 91.48828125 C108.96211074 89.72289858 108.96211074 89.72289858 106 89 C103.8125 87.0625 103.8125 87.0625 102 85 C102 84.34 102 83.68 102 83 C101.360625 82.896875 100.72125 82.79375 100.0625 82.6875 C99.381875 82.460625 98.70125 82.23375 98 82 C97.67 81.01 97.34 80.02 97 79 C94.03 78.505 94.03 78.505 91 78 C90.67 77.01 90.34 76.02 90 75 C89.236875 74.855625 88.47375 74.71125 87.6875 74.5625 C85 74 85 74 82 73 C82 72.34 82 71.68 82 71 C81.12988281 70.81824219 81.12988281 70.81824219 80.2421875 70.6328125 C79.46101563 70.46523438 78.67984375 70.29765625 77.875 70.125 C77.10929687 69.96257812 76.34359375 69.80015625 75.5546875 69.6328125 C73 69 73 69 70.46875 67.9375 C65.20992511 66.51619598 60.04412022 66.79202172 54.625 66.875 C52.94857422 66.88853516 52.94857422 66.88853516 51.23828125 66.90234375 C48.49196538 66.92581654 45.74609528 66.95865272 43 67 C43 67.66 43 68.32 43 69 C40.09399739 70.25664978 38.20395416 71 35 71 C35 71.66 35 72.32 35 73 C33.55930853 73.93812468 32.1168955 74.87375925 30.6640625 75.79296875 C27.03391947 78.42610066 24.42253563 81.73239311 23 86 C22.34 86 21.68 86 21 86 C19.69487386 94.80960142 19.69487386 103.19039858 21 112 C22.485 112.495 22.485 112.495 24 113 C24 113.99 24 114.98 24 116 C25.98 116.99 25.98 116.99 28 118 C28 118.66 28 119.32 28 120 C28.763125 120.144375 29.52625 120.28875 30.3125 120.4375 C33 121 33 121 36 122 C36 122.66 36 123.32 36 124 C41.94 124 47.88 124 54 124 C54 123.34 54 122.68 54 122 C56.90600261 120.74335022 58.79604584 120 62 120 C62.99 118.02 62.99 118.02 64 116 C64.66 116 65.32 116 66 116 C66.144375 115.4225 66.28875 114.845 66.4375 114.25 C66.95833333 112.16666667 67.47916667 110.08333333 68 108 C68.66 108 69.32 108 70 108 C70 105.03 70 102.06 70 99 C69.34 99 68.68 99 68 99 C67.71125 98.195625 67.4225 97.39125 67.125 96.5625 C66.26737432 93.8673532 66.26737432 93.8673532 64 93 C64 92.34 64 91.68 64 91 C58.65584653 89.807022 53.45530474 89.394789 48 90 C44.97782129 91.94282917 44.30467261 93.18753969 43.0625 96.5 C42.79913268 99.03919185 42.79913268 99.03919185 44.125 101.1875 C46.27988811 103.27055851 48.18571843 104.03721946 51 105 C52 106 52 106 52.0625 109.0625 C52.041875 110.031875 52.02125 111.00125 52 112 C48.35477464 113.60034284 46.34649818 114.05974107 42.375 113.375 C38.89298255 111.9564003 37.18907748 111.03103036 35 108 C34.25 104.75 34.25 104.75 34 102 C33.34 102 32.68 102 32 102 C32 99.03 32 96.06 32 93 C32.66 93 33.32 93 34 93 C34.0928125 91.948125 34.0928125 91.948125 34.1875 90.875 C35.63779857 85.74317429 38.5815471 82.90539547 42.9375 80.125 C49.65162684 77.64593778 58.79815917 77.68135393 65.375 80.5 C66.24125 80.995 67.1075 81.49 68 82 C68 82.66 68 83.32 68 84 C68.86625 84.0928125 68.86625 84.0928125 69.75 84.1875 C72.94710041 85.34200848 74.1436532 87.21547979 76 90 C76 90.99 76 91.98 76 93 C76.66 93 77.32 93 78 93 C80.2407369 99.7222107 80.17102703 108.56471441 77.8828125 115.27734375 C76.69525903 117.61554932 75.46360466 119.82550165 74 122 C73.34 122 72.68 122 72 122 C71.01 123.98 71.01 123.98 70 126 C69.34 126 68.68 126 68 126 C68 126.66 68 127.32 68 128 C65.09399739 129.25664978 63.20395416 130 60 130 C60 130.66 60 131.32 60 132 C50.23163574 135.12587656 39.76836426 135.12587656 30 132 C30 131.34 30 130.68 30 130 C29.13375 129.979375 28.2675 129.95875 27.375 129.9375 C23.19708901 128.77696917 21.94363026 127.05509337 19.39453125 123.69140625 C17.92172293 121.73900951 17.92172293 121.73900951 15 120 C14.34 119.01 13.68 118.02 13 117 C12.71125 117.639375 12.4225 118.27875 12.125 118.9375 C11 121 11 121 9 122 C7.86649466 124.01669827 7.86649466 124.01669827 7 126 C6.34 126 5.68 126 5 126 C4.34 127.32 3.68 128.64 3 130 C2.34 130 1.68 130 1 130 C1 130.66 1 131.32 1 132 C-0.58074564 132.81752303 -2.16471223 133.62881997 -3.75 134.4375 C-4.63171875 134.88996094 -5.5134375 135.34242188 -6.421875 135.80859375 C-11.7402717 138.26633768 -16.67115295 138.18312824 -22.4375 138.1875 C-23.28376953 138.19974609 -24.13003906 138.21199219 -25.00195312 138.22460938 C-29.45046872 138.23506008 -32.95733487 138.10019359 -37 136 C-37 135.34 -37 134.68 -37 134 C-37.8971875 133.8453125 -37.8971875 133.8453125 -38.8125 133.6875 C-41.36316765 132.8858616 -42.36691995 132.09967436 -44 130 C-44.6875 127.8125 -44.6875 127.8125 -45 126 C-45.66 126 -46.32 126 -47 126 C-48.09848394 122.4517225 -48.13341955 119.13789215 -48.125 115.4375 C-48.12757812 114.30183594 -48.13015625 113.16617188 -48.1328125 111.99609375 C-48 109 -48 109 -47 106 C-46.34 106 -45.68 106 -45 106 C-44.34 104.02 -43.68 102.04 -43 100 C-42.34 100 -41.68 100 -41 100 C-40.67 99.01 -40.34 98.02 -40 97 C-37.525 96.505 -37.525 96.505 -35 96 C-35 95.34 -35 94.68 -35 94 C-31.77599427 93.04192283 -28.85714324 92.86577708 -25.5 92.875 C-24.09234375 92.87113281 -24.09234375 92.87113281 -22.65625 92.8671875 C-20.22012186 92.98899391 -18.28031784 93.14855085 -16 94 C-14.2856382 95.95927063 -12.61594832 97.95880212 -11 100 C-10.01 100.495 -10.01 100.495 -9 101 C-8.00584642 103.86291063 -7.86480302 106.54929222 -7.875 109.5625 C-7.87113281 110.70912109 -7.87113281 110.70912109 -7.8671875 111.87890625 C-8 114 -8 114 -9 117 C-9.66 117 -10.32 117 -11 117 C-11.495 118.98 -11.495 118.98 -12 121 C-13.98 121.495 -13.98 121.495 -16 122 C-16 122.66 -16 123.32 -16 124 C-17.43640171 124.19573608 -18.87419504 124.38127816 -20.3125 124.5625 C-21.51326172 124.71912109 -21.51326172 124.71912109 -22.73828125 124.87890625 C-25 125 -25 125 -28 124 C-28 123.34 -28 122.68 -28 122 C-29.32 121.67 -30.64 121.34 -32 121 C-32.33 119.68 -32.66 118.36 -33 117 C-33.66 117 -34.32 117 -35 117 C-35 115.68 -35 114.36 -35 113 C-34.34 113 -33.68 113 -33 113 C-33 112.01 -33 111.02 -33 110 C-31.02 110 -29.04 110 -27 110 C-27 110.66 -27 111.32 -27 112 C-23.535 112.495 -23.535 112.495 -20 113 C-19.34 111.35 -18.68 109.7 -18 108 C-21.13032708 104.25865029 -21.13032708 104.25865029 -25.5 102.5 C-28.48098522 103.09619704 -30.46461446 104.3554256 -33 106 C-33.66 106 -34.32 106 -35 106 C-35.96604701 109.24315782 -36.13419024 112.18508666 -36.125 115.5625 C-36.12757813 116.51253906 -36.13015625 117.46257812 -36.1328125 118.44140625 C-36.10770994 121.1212438 -36.10770994 121.1212438 -35 124 C-32.99983534 125.20882096 -32.99983534 125.20882096 -31 126 C-31 126.66 -31 127.32 -31 128 C-25.06 128 -19.12 128 -13 128 C-13 127.34 -13 126.68 -13 126 C-9.535 125.01 -9.535 125.01 -6 124 C-6 123.34 -6 122.68 -6 122 C-5.21625 121.773125 -4.4325 121.54625 -3.625 121.3125 C-0.21830055 119.60915028 -0.21351986 118.56471458 1 115 C1.7740179 113.69385578 2.56075831 112.39522079 3.35546875 111.1015625 C6.51356375 105.48938108 7.88709075 99.67695633 9.3125 93.4375 C9.57611328 92.33341797 9.83972656 91.22933594 10.11132812 90.09179688 C10.75291773 87.39712054 11.38214446 84.70019828 12 82 C12.66 82 13.32 82 14 82 C14.165 81.195625 14.33 80.39125 14.5 79.5625 C17.0302357 73.55319022 21.58681401 68.60879066 27 65 C27.99 65 28.98 65 30 65 C30 63.02 30 61.04 30 59 C28.68 58.34 27.36 57.68 26 57 C26 56.34 26 55.68 26 55 C25.34 55 24.68 55 24 55 C23.71125 54.360625 23.4225 53.72125 23.125 53.0625 C22.17176549 50.84793921 22.17176549 50.84793921 20 50 C18.42451317 47.37418862 18 46.12900213 18 43 C16.515 42.505 16.515 42.505 15 42 C14.67 41.01 14.34 40.02 14 39 C13.01 38.505 13.01 38.505 12 38 C11.01025391 36.31689453 11.01025391 36.31689453 9.9765625 34.1328125 C9.59685303 33.33456055 9.21714355 32.53630859 8.82592773 31.71386719 C8.42962158 30.85954102 8.03331543 30.00521484 7.625 29.125 C7.221604 28.26036133 6.81820801 27.39572266 6.40258789 26.50488281 C-1.83329536 8.66631727 -1.83329536 8.66631727 -1 1 C-0.67 0.67 -0.34 0.34 0 0 Z M12 14 C12.33 15.32 12.66 16.64 13 18 C13.66 18 14.32 18 15 18 C15.66 20.97 16.32 23.94 17 27 C17.66 27 18.32 27 19 27 C19.28875 28.134375 19.5775 29.26875 19.875 30.4375 C20.24625 31.613125 20.6175 32.78875 21 34 C21.66 34.33 22.32 34.66 23 35 C23.96846236 36.66976268 24.93269497 38.34224128 25.8671875 40.03125 C28.89511612 45.29358112 32.45502794 49.94637627 37 54 C37.66 54 38.32 54 39 54 C39.66 55.32 40.32 56.64 41 58 C48.92 57.505 48.92 57.505 57 57 C56.01 55.68 55.02 54.36 54 53 C53.34 53 52.68 53 52 53 C51.67 52.01 51.34 51.02 51 50 C50.01 49.67 49.02 49.34 48 49 C47.34 48.01 46.68 47.02 46 46 C45.01 45.67 44.02 45.34 43 45 C42.67 44.34 42.34 43.68 42 43 C39.37418862 41.42451317 38.12900213 41 35 41 C35 40.34 35 39.68 35 39 C34.01 39 33.02 39 32 39 C32 36.36 32 33.72 32 31 C37.77294736 30.53816421 40.39371468 31.57206674 45 35 C45.66 35 46.32 35 47 35 C47 35.66 47 36.32 47 37 C47.598125 37.268125 48.19625 37.53625 48.8125 37.8125 C51.04321446 39.02345928 52.24962151 40.18229926 54 42 C57.50898935 45.59330759 57.50898935 45.59330759 62 47 C62 47.66 62 48.32 62 49 C62.60199219 49.25652344 63.20398438 49.51304687 63.82421875 49.77734375 C66.21195025 51.1191031 67.21982941 52.36397201 68.8125 54.5625 C71.28024312 57.60457719 71.81491961 57.95522249 75.875 58.9375 C76.90625 58.958125 77.9375 58.97875 79 59 C79 59.66 79 60.32 79 61 C80.27057182 61.47985967 81.54146848 61.9588593 82.8125 62.4375 C83.87404297 62.83775391 83.87404297 62.83775391 84.95703125 63.24609375 C86.62672396 63.86225186 88.31157704 64.43719235 90 65 C89.505 63.02 89.505 63.02 89 61 C88.34 61 87.68 61 87 61 C87 60.34 87 59.68 87 59 C86.443125 58.79375 85.88625 58.5875 85.3125 58.375 C82.69080162 56.81615232 81.21938226 54.87294607 79.33984375 52.5078125 C77.23749225 50.1419009 74.66972273 48.67512015 72 47 C69.89521274 45.41059056 67.81105408 43.79780203 65.734375 42.171875 C64.07266483 40.81338086 64.07266483 40.81338086 62 41 C62 40.34 62 39.68 62 39 C57.21282939 35.17026352 52.05632262 32.29633148 46.6484375 29.4296875 C44.04820553 28.02602245 41.53041049 26.52523209 39 25 C26.25914896 17.21033793 26.25914896 17.21033793 12 14 Z " fill="#FAFDFE" transform="translate(173,269)"/>
<path d="M0 0 C4.09341499 -0.02469575 8.18680121 -0.04285793 12.28027344 -0.05493164 C13.67318477 -0.0599643 15.0660908 -0.06679098 16.45898438 -0.07543945 C18.45961246 -0.08755152 20.46027888 -0.09270412 22.4609375 -0.09765625 C23.66540527 -0.10289307 24.86987305 -0.10812988 26.11083984 -0.11352539 C29 0 29 0 31 1 C31 2.32 31 3.64 31 5 C28.69 5.33 26.38 5.66 24 6 C23.13888484 9.02769315 22.81769107 11.84266637 22.68359375 14.984375 C22.64169922 15.91894531 22.59980469 16.85351562 22.55664062 17.81640625 C22.51732422 18.78449219 22.47800781 19.75257813 22.4375 20.75 C22.39431641 21.73355469 22.35113281 22.71710938 22.30664062 23.73046875 C22.20077948 26.15351275 22.09869829 28.5766554 22 31 C22.66 31 23.32 31 24 31 C24 30.34 24 29.68 24 29 C25.609375 27.44921875 25.609375 27.44921875 27.75 25.6875 C30.91430454 23.00872367 33.46237325 20.28951615 36 17 C36.99 16.34 37.98 15.68 39 15 C39.33 14.01 39.66 13.02 40 12 C41 11 42 10 43 9 C43.33 8.01 43.66 7.02 44 6 C41.525 5.505 41.525 5.505 39 5 C39.33 3.35 39.66 1.7 40 0 C48.58 0 57.16 0 66 0 C66.495 2.475 66.495 2.475 67 5 C64.69 5.33 62.38 5.66 60 6 C60 6.66 60 7.32 60 8 C59.401875 8.26039063 58.80375 8.52078125 58.1875 8.7890625 C55.85352153 10.08108629 54.66026805 11.30868813 53 13.375 C50.78080615 16.05932791 48.60548448 18.67367457 46 21 C45.34 21 44.68 21 44 21 C43.34 22.32 42.68 23.64 42 25 C41.34 25 40.68 25 40 25 C39.34 26.32 38.68 27.64 38 29 C37.34 29 36.68 29 36 29 C34.4861164 31.94366255 33.86282431 33.41014452 34.625 36.6875 C36.1602068 39.26943872 37.22082528 39.98096927 40 41 C40 41.66 40 42.32 40 43 C41.32 43.66 42.64 44.32 44 45 C44 45.66 44 46.32 44 47 C45.32 47.66 46.64 48.32 48 49 C48 49.66 48 50.32 48 51 C48.99 51.33 49.98 51.66 51 52 C51.33333333 53.33333333 51.66666667 54.66666667 52 56 C52.99 56.33 53.98 56.66 55 57 C57.1875 58.9375 57.1875 58.9375 59 61 C59 61.66 59 62.32 59 63 C59.639375 63.103125 60.27875 63.20625 60.9375 63.3125 C61.618125 63.539375 62.29875 63.76625 63 64 C63.33 64.99 63.66 65.98 64 67 C66.08272894 67.33708908 68.16621037 67.66953116 70.25 68 C71.99023438 68.2784375 71.99023438 68.2784375 73.765625 68.5625 C77.11667846 69.08936331 77.11667846 69.08936331 81 69 C81 48.87 81 28.74 81 8 C76.545 6.02 76.545 6.02 72 4 C72 3.01 72 2.02 72 1 C74.3845183 -0.19225915 75.84909216 -0.12682707 78.50976562 -0.12939453 C79.91131897 -0.13412277 79.91131897 -0.13412277 81.34118652 -0.13894653 C82.85839294 -0.13591019 82.85839294 -0.13591019 84.40625 -0.1328125 C85.44189087 -0.13376923 86.47753174 -0.13472595 87.54455566 -0.13571167 C89.7368984 -0.13639298 91.92924315 -0.13454209 94.12158203 -0.13037109 C97.4860485 -0.12502218 100.85038146 -0.13031775 104.21484375 -0.13671875 C106.34114613 -0.13605796 108.46744843 -0.13477678 110.59375 -0.1328125 C111.60522095 -0.13483673 112.61669189 -0.13686096 113.65881348 -0.13894653 C114.59318237 -0.13579437 115.52755127 -0.13264221 116.49023438 -0.12939453 C117.72694885 -0.12820114 117.72694885 -0.12820114 118.98864746 -0.12698364 C121 0 121 0 123 1 C123 1.66 123 2.32 123 3 C124.32 3.66 125.64 4.32 127 5 C127 5.99 127 6.98 127 8 C127.99 8.33 128.98 8.66 130 9 C130.6875 11.0625 130.6875 11.0625 131 13 C131.66 13 132.32 13 133 13 C134.5078125 14.6796875 134.5078125 14.6796875 136.125 16.875 C136.66382813 17.59429687 137.20265625 18.31359375 137.7578125 19.0546875 C139 21 139 21 139 23 C139.66 23 140.32 23 141 23 C141.4021875 23.928125 141.4021875 23.928125 141.8125 24.875 C142.95556848 27.2995233 142.95556848 27.2995233 146 29 C146.33 29.99 146.66 30.98 147 32 C147.7425 32.7115625 147.7425 32.7115625 148.5 33.4375 C150 35 150 35 150.4375 37.0625 C150.82450832 39.21173571 150.82450832 39.21173571 153.0625 40.25 C153.701875 40.4975 154.34125 40.745 155 41 C155 41.66 155 42.32 155 43 C155.99 43.33 156.98 43.66 158 44 C158.33 44.99 158.66 45.98 159 47 C159.66 47.33 160.32 47.66 161 48 C160.67 34.14 160.34 20.28 160 6 C157.69 5.67 155.38 5.34 153 5 C152.4375 3.0625 152.4375 3.0625 152 1 C153.6438397 -0.6438397 155.54378391 -0.12997064 157.8046875 -0.1328125 C159.26841797 -0.13474609 159.26841797 -0.13474609 160.76171875 -0.13671875 C162.30279297 -0.13091797 162.30279297 -0.13091797 163.875 -0.125 C165.40447266 -0.13080078 165.40447266 -0.13080078 166.96484375 -0.13671875 C168.43244141 -0.13478516 168.43244141 -0.13478516 169.9296875 -0.1328125 C171.27909424 -0.13112061 171.27909424 -0.13112061 172.65576172 -0.12939453 C175 0 175 0 178 1 C178 2.32 178 3.64 178 5 C174.535 6.485 174.535 6.485 171 8 C169.5640099 30.64248677 169.90444608 53.32432054 170 76 C166.265625 77.0703125 166.265625 77.0703125 163.875 76.4375 C161.21745528 74.40004905 160.82658804 72.16858749 160 69 C159.34 69 158.68 69 158 69 C157.896875 68.360625 157.79375 67.72125 157.6875 67.0625 C157.3471875 66.0415625 157.3471875 66.0415625 157 65 C156.01 64.67 155.02 64.34 154 64 C153.67 63.01 153.34 62.02 153 61 C151.68945377 59.64426252 150.35251497 58.31387169 149 57 C145 52.44444444 145 52.44444444 145 49 C144.43410156 48.79117188 143.86820313 48.58234375 143.28515625 48.3671875 C140.14954212 46.49117904 138.57053112 44.07731719 136.4375 41.125 C135.67308594 40.07570313 134.90867187 39.02640625 134.12109375 37.9453125 C133.42113281 36.97335937 132.72117187 36.00140625 132 35 C131.41347656 34.25492187 130.82695313 33.50984375 130.22265625 32.7421875 C129 31 129 31 129 29 C128.01 28.67 127.02 28.34 126 28 C125.505 26.515 125.505 26.515 125 25 C124.34 24.67 123.68 24.34 123 24 C123 38.52 123 53.04 123 68 C125.31 68.66 127.62 69.32 130 70 C130.38218767 71.65614657 130.71395102 73.32457024 131 75 C129.2065574 76.7934426 126.77567798 76.12629287 124.38777161 76.13552856 C123.58256577 76.13350433 122.77735992 76.1314801 121.94775391 76.12939453 C120.68192223 76.13202301 120.68192223 76.13202301 119.39051819 76.13470459 C116.5858457 76.13912508 113.78123569 76.13618391 110.9765625 76.1328125 C109.03461698 76.13348561 107.09267155 76.13445569 105.15072632 76.13571167 C101.07345785 76.13718901 96.99621124 76.13503339 92.91894531 76.13037109 C87.68753119 76.12468135 82.45616846 76.1279478 77.22475624 76.13394356 C73.21167615 76.13755465 69.19860826 76.13640792 65.1855278 76.13381577 C63.25657521 76.13314762 61.32762151 76.133971 59.3986702 76.13629532 C56.70276195 76.13882995 54.00693717 76.13496938 51.31103516 76.12939453 C50.50987778 76.13141876 49.7087204 76.13344299 48.88328552 76.13552856 C45.65853925 76.12315196 43.08178845 76.02726282 40 75 C40 71 40 71 42 68.75 C42.66 68.1725 43.32 67.595 44 67 C43.34 66.01 42.68 65.02 42 64 C42 63.01 42 62.02 42 61 C40.68 60.34 39.36 59.68 38 59 C38 58.34 38 57.68 38 57 C36.68 56.34 35.36 55.68 34 55 C34 54.34 34 53.68 34 53 C32.68 52.34 31.36 51.68 30 51 C30 50.34 30 49.68 30 49 C28.68 48.34 27.36 47.68 26 47 C26 46.34 26 45.68 26 45 C24.515 44.505 24.515 44.505 23 44 C22.97106068 47.62498334 22.95322208 51.24993713 22.9375 54.875 C22.92912109 55.90753906 22.92074219 56.94007813 22.91210938 58.00390625 C22.90888672 58.99003906 22.90566406 59.97617187 22.90234375 60.9921875 C22.89710693 61.90339355 22.89187012 62.81459961 22.88647461 63.75341797 C22.85114435 66.03687509 22.85114435 66.03687509 24 68 C26.30965848 69.05352843 28.6429774 70.05719096 31 71 C31 72.32 31 73.64 31 75 C28.26305716 76.36847142 26.06400753 76.12967921 23.00390625 76.1328125 C21.80572266 76.13410156 20.60753906 76.13539063 19.37304688 76.13671875 C18.11556641 76.13285156 16.85808594 76.12898438 15.5625 76.125 C14.30888672 76.12886719 13.05527344 76.13273437 11.76367188 76.13671875 C10.56419922 76.13542969 9.36472656 76.13414062 8.12890625 76.1328125 C7.02619385 76.13168457 5.92348145 76.13055664 4.78735352 76.12939453 C2 76 2 76 -1 75 C-0.9375 72.6875 -0.9375 72.6875 0 70 C2.29862024 68.92260061 4.6325618 67.916341 7 67 C7.1685632 59.27716951 7.32838989 51.55419344 7.48217773 43.83105469 C7.53550865 41.20438555 7.5908308 38.57775606 7.64819336 35.95117188 C7.73035285 32.17326401 7.80532312 28.39527095 7.87890625 24.6171875 C7.90594131 23.44509735 7.93297638 22.2730072 7.96083069 21.06539917 C7.98092697 19.964711 8.00102325 18.86402283 8.02172852 17.72998047 C8.05170677 16.28436234 8.05170677 16.28436234 8.08229065 14.80953979 C7.99402028 11.79584235 7.55863632 8.95973482 7 6 C4.36 5.67 1.72 5.34 -1 5 C-0.67 3.35 -0.34 1.7 0 0 Z M98 6 C98 6.66 98 7.32 98 8 C97.34 8 96.68 8 96 8 C95.06433713 11.1793829 94.86286614 14.05480305 94.83886719 17.36352539 C94.82925964 18.4346608 94.8196521 19.5057962 94.80975342 20.60939026 C94.80550354 21.76051804 94.80125366 22.91164581 94.796875 24.09765625 C94.79117493 25.28346786 94.78547485 26.46927948 94.77960205 27.69102478 C94.77016034 30.19675811 94.76362136 32.7025038 94.75976562 35.20825195 C94.75002873 39.05116154 94.71898412 42.89354333 94.6875 46.73632812 C94.68097295 49.16926765 94.67572131 51.60221101 94.671875 54.03515625 C94.6595282 55.18830826 94.6471814 56.34146027 94.63446045 57.52955627 C94.63746155 58.59753952 94.64046265 59.66552277 94.64355469 60.76586914 C94.63990906 61.70644669 94.63626343 62.64702423 94.63250732 63.61610413 C95.0689644 66.44736658 95.77571739 67.26266738 98 69 C102.39332821 71.79575432 106.08497967 70.66470123 110.890625 69.60546875 C112.96792369 69.19360095 112.96792369 69.19360095 114 68 C114.10939667 66.23645999 114.14908451 64.4685489 114.16113281 62.70166016 C114.17074036 61.5702359 114.1803479 60.43881165 114.19024658 59.27310181 C114.1966214 57.42475235 114.1966214 57.42475235 114.203125 55.5390625 C114.21167511 53.65409561 114.21167511 53.65409561 114.22039795 51.73104858 C114.22986577 49.06610487 114.23675333 46.40127427 114.24023438 43.73632812 C114.24571728 40.32078182 114.26973667 36.90563457 114.29820633 33.49021339 C114.32130817 30.23569314 114.32328105 26.9811533 114.328125 23.7265625 C114.3404718 22.49837799 114.3528186 21.27019348 114.36553955 20.00479126 C114.36253845 18.86706268 114.35953735 17.72933411 114.35644531 16.55712891 C114.36009094 15.55420807 114.36373657 14.55128723 114.36749268 13.51797485 C114.20009322 10.95625454 114.20009322 10.95625454 112.60272217 9.15267944 C111.05841613 7.80537418 111.05841613 7.80537418 109 8 C109 7.34 109 6.68 109 6 C107.54263913 5.80508548 106.08405407 5.61930642 104.625 5.4375 C103.40683594 5.28087891 103.40683594 5.28087891 102.1640625 5.12109375 C99.95100814 4.81762672 99.95100814 4.81762672 98 6 Z " fill="#F9FDFE" transform="translate(477,425)"/>
<path d="M0 0 C2.34375 0.13671875 2.34375 0.13671875 5 1 C6.40625 3.51953125 6.40625 3.51953125 7.5 6.8125 C7.91378906 7.99714844 8.32757813 9.18179687 8.75390625 10.40234375 C9.16511719 11.58957031 9.57632813 12.77679688 10 14 C10.79490649 15.96554048 11.60680092 17.92431686 12.4375 19.875 C16.79105871 30.23346727 20.90395623 40.68197363 24.8984375 51.18359375 C25.80939158 53.51266428 26.77848032 55.78669033 27.8125 58.0625 C29 61 29 61 29 65 C29.66 65 30.32 65 31 65 C31.33 66.32 31.66 67.64 32 69 C33.56132309 69.1970602 35.12415264 69.38220155 36.6875 69.5625 C37.55761719 69.66691406 38.42773438 69.77132812 39.32421875 69.87890625 C42.41121685 70.1259706 42.41121685 70.1259706 47 69 C47 49.86 47 30.72 47 11 C45.68 10.34 44.36 9.68 43 9 C43 8.34 43 7.68 43 7 C42.05125 7.020625 41.1025 7.04125 40.125 7.0625 C37 7 37 7 35 6 C35.33 4.35 35.66 2.7 36 1 C39.0446094 0.81008872 42.07731366 0.67198433 45.125 0.5625 C45.9809375 0.50384766 46.836875 0.44519531 47.71875 0.38476562 C53.99034256 0.21591506 53.99034256 0.21591506 56.95605469 2.51904297 C61 7.10384516 61 7.10384516 61 10 C61.66 10 62.32 10 63 10 C65 13 65 13 65 16 C66.98 16.99 66.98 16.99 69 18 C69 18.66 69 19.32 69 20 C69.66 20 70.32 20 71 20 C71.28875 20.639375 71.5775 21.27875 71.875 21.9375 C72.82823451 24.15206079 72.82823451 24.15206079 75 25 C75.66666667 26.33333333 76.33333333 27.66666667 77 29 C77.97753644 30.02196992 78.9805881 31.01979625 80 32 C84 36.57142857 84 36.57142857 84 40 C84.598125 40.268125 85.19625 40.53625 85.8125 40.8125 C89.31088537 42.71162349 90.73345454 44.20036361 92 48 C92.66 48 93.32 48 94 48 C94.09895826 42.80393014 94.17150993 37.60841002 94.21972656 32.41162109 C94.2398285 30.64427128 94.26711472 28.87698787 94.30175781 27.10986328 C94.35034009 24.56786715 94.37298226 22.02675104 94.390625 19.484375 C94.41127014 18.69569031 94.43191528 17.90700562 94.45318604 17.09442139 C94.45465924 13.48380303 94.33144596 11.43694508 92.11621094 8.51660156 C90.01213396 7.00869591 88.54510371 6.36358624 86 6 C86.33 4.35 86.66 2.7 87 1 C90.79165074 0.9710663 94.58327327 0.95322399 98.375 0.9375 C99.99535156 0.92493164 99.99535156 0.92493164 101.6484375 0.91210938 C103.1953125 0.90727539 103.1953125 0.90727539 104.7734375 0.90234375 C105.72653809 0.89710693 106.67963867 0.89187012 107.66162109 0.88647461 C110 1 110 1 112 2 C112 3.32 112 4.64 112 6 C109.36 6.33 106.72 6.66 104 7 C103.67 30.1 103.34 53.2 103 77 C100.69 77 98.38 77 96 77 C94.25 74.75 94.25 74.75 93 72 C92.443125 71.278125 91.88625 70.55625 91.3125 69.8125 C90 68 90 68 90 66 C89.34 66 88.68 66 88 66 C87.731875 65.38125 87.46375 64.7625 87.1875 64.125 C86.04443152 61.7004767 86.04443152 61.7004767 83 60 C82.67 59.01 82.34 58.02 82 57 C81.2575 56.2884375 81.2575 56.2884375 80.5 55.5625 C79 54 79 54 78.5625 51.9375 C78.17549168 49.78826429 78.17549168 49.78826429 75.9375 48.75 C75.298125 48.5025 74.65875 48.255 74 48 C74 47.01 74 46.02 74 45 C73.01 44.67 72.02 44.34 71 44 C69.21434697 41.95098486 67.56616618 39.91681351 65.9375 37.75 C65.49083984 37.17636719 65.04417969 36.60273438 64.58398438 36.01171875 C62.13881852 32.802667 60.28832928 29.87226654 59 26 C58.34 26 57.68 26 57 26 C57 40.19 57 54.38 57 69 C59.31 69.99 61.62 70.98 64 72 C65 74.125 65 74.125 65 76 C63.35045419 77.64954581 61.43125617 77.12741483 59.16064453 77.12939453 C57.61366379 77.13412277 57.61366379 77.13412277 56.03543091 77.13894653 C54.3511348 77.13591019 54.3511348 77.13591019 52.6328125 77.1328125 C51.48714813 77.13376923 50.34148376 77.13472595 49.16110229 77.13571167 C46.73158717 77.1363938 44.30207024 77.13453725 41.87255859 77.13037109 C38.14807032 77.12503306 34.42370319 77.13030997 30.69921875 77.13671875 C28.34374973 77.13605778 25.98828079 77.13477623 23.6328125 77.1328125 C22.51399689 77.13483673 21.39518127 77.13686096 20.24246216 77.13894653 C19.20483734 77.13579437 18.16721252 77.13264221 17.09814453 77.12939453 C16.18404816 77.12859894 15.26995178 77.12780334 14.32815552 77.12698364 C12 77 12 77 9 76 C9 74.68 9 73.36 9 72 C12 70 12 70 15 70 C15 67.03 15 64.06 15 61 C14.34 61 13.68 61 13 61 C12.34 58.69 11.68 56.38 11 54 C7.9317362 53.10250178 5.20730024 52.88288232 2.015625 52.90234375 C1.08105469 52.90556641 0.14648438 52.90878906 -0.81640625 52.91210938 C-1.78449219 52.92048828 -2.75257813 52.92886719 -3.75 52.9375 C-4.73355469 52.94201172 -5.71710938 52.94652344 -6.73046875 52.95117188 C-9.15367194 52.962935 -11.57684377 52.98086982 -14 53 C-14.66 55.97 -15.32 58.94 -16 62 C-16.66 62 -17.32 62 -18 62 C-18 64.31 -18 66.62 -18 69 C-15.69 70.32 -13.38 71.64 -11 73 C-11 73.99 -11 74.98 -11 76 C-13.93479445 76.97826482 -15.82617152 77.12660743 -18.8828125 77.12939453 C-19.87394043 77.13254669 -20.86506836 77.13569885 -21.88623047 77.13894653 C-22.95502441 77.1369223 -24.02381836 77.13489807 -25.125 77.1328125 C-26.77266357 77.13424759 -26.77266357 77.13424759 -28.45361328 77.13571167 C-30.77701881 77.13639245 -33.10042624 77.13454525 -35.42382812 77.13037109 C-38.98572043 77.12502145 -42.54748663 77.13031956 -46.109375 77.13671875 C-48.36458361 77.13605795 -50.61979215 77.13477675 -52.875 77.1328125 C-54.47819092 77.13584885 -54.47819092 77.13584885 -56.11376953 77.13894653 C-57.10489746 77.13579437 -58.09602539 77.13264221 -59.1171875 77.12939453 C-59.98972168 77.12859894 -60.86225586 77.12780334 -61.76123047 77.12698364 C-64 77 -64 77 -67 76 C-66.9375 73.6875 -66.9375 73.6875 -66 71 C-64.865625 70.525625 -63.73125 70.05125 -62.5625 69.5625 C-58.87887859 68.40062291 -58.87887859 68.40062291 -57.80322266 65.59521484 C-56.70568437 60.68264684 -56.64285032 55.9345473 -56.5859375 50.9140625 C-56.56657135 49.85714203 -56.5472052 48.80022156 -56.5272522 47.71127319 C-56.46767086 44.34926316 -56.42115658 40.98721849 -56.375 37.625 C-56.33680052 35.33982916 -56.29774764 33.05467242 -56.2578125 30.76953125 C-56.16198698 25.179813 -56.07687711 19.59000924 -56 14 C-56.66 14 -57.32 14 -58 14 C-58.33 11.69 -58.66 9.38 -59 7 C-61.64 6.67 -64.28 6.34 -67 6 C-66.67 4.35 -66.34 2.7 -66 1 C-61.90658501 0.97530425 -57.81319879 0.95714207 -53.71972656 0.94506836 C-52.32681523 0.9400357 -50.9339092 0.93320902 -49.54101562 0.92456055 C-47.54038754 0.91244848 -45.53972112 0.90729588 -43.5390625 0.90234375 C-42.33459473 0.89710693 -41.13012695 0.89187012 -39.88916016 0.88647461 C-37 1 -37 1 -35 2 C-35 3.32 -35 4.64 -35 6 C-37.31 6.33 -39.62 6.66 -42 7 C-43.05111609 10.15334826 -43.12070472 12.35512283 -43.11352539 15.66479492 C-43.11341209 17.40626045 -43.11341209 17.40626045 -43.11329651 19.1829071 C-43.10813522 20.43610245 -43.10297394 21.68929779 -43.09765625 22.98046875 C-43.0962413 24.26359451 -43.09482635 25.54672028 -43.09336853 26.86872864 C-43.08955405 30.27670241 -43.07973291 33.68463343 -43.06866455 37.09259033 C-43.05842743 40.57148663 -43.05386598 44.05038985 -43.04882812 47.52929688 C-43.03810967 54.35288212 -43.02104609 61.17643901 -43 68 C-39.71984109 69.77322244 -37.97027096 70.17209867 -34.25 69.625 C-33.45078125 69.51414062 -32.6515625 69.40328125 -31.828125 69.2890625 C-31.22484375 69.19367188 -30.6215625 69.09828125 -30 69 C-30 68.34 -30 67.68 -30 67 C-29.34 67 -28.68 67 -28 67 C-27.9175 66.195625 -27.835 65.39125 -27.75 64.5625 C-26.94274922 60.72805881 -25.59556085 57.58025636 -23.9375 54.05078125 C-22.89971945 51.87719712 -22.89971945 51.87719712 -22 49 C-21.34 49 -20.68 49 -20 49 C-19.9071875 47.63875 -19.9071875 47.63875 -19.8125 46.25 C-18.98753822 40.47526757 -16.32017591 35.3004582 -14 30 C-13.18362045 28.04328077 -12.37107967 26.08495526 -11.5625 24.125 C-10.70861404 22.08321592 -9.85442931 20.04155676 -9 18 C-8.75072754 17.39768555 -8.50145508 16.79537109 -8.24462891 16.17480469 C-7.46012774 14.28091285 -6.66816627 12.39027681 -5.875 10.5 C-5.15957031 8.78296875 -5.15957031 8.78296875 -4.4296875 7.03125 C-3.1718677 4.3643971 -1.87245872 2.26024603 0 0 Z M-2 23 C-3.0063655 25.43504509 -4.00526413 27.87270864 -5 30.3125 C-5.28617187 31.00279297 -5.57234375 31.69308594 -5.8671875 32.40429688 C-7.08910744 35.41545674 -8 37.71886984 -8 41 C-8.66 41 -9.32 41 -10 41 C-10 42.32 -10 43.64 -10 45 C-4.06 45 1.88 45 8 45 C7.34 43.02 6.68 41.04 6 39 C5 36 4 33 3 30 C2.34 30 1.68 30 1 30 C0.87625 29.21625 0.7525 28.4325 0.625 27.625 C0.20882007 24.85942178 0.20882007 24.85942178 -2 23 Z " fill="#F9FDFD" transform="translate(342,424)"/>
<path d="M0 0 C0 0.66 0 1.32 0 2 C0.99 2 1.98 2 3 2 C3.33 1.01 3.66 0.02 4 -1 C6.0625 -1.6875 6.0625 -1.6875 8 -2 C12.08777892 6.00523372 11.26866484 14.24351645 11 23 C9.1875 23.6875 9.1875 23.6875 7 24 C4.36501472 22.11169673 3.5589331 20.17205179 2.6875 17.125 C1.10200881 12.56985865 -1.0521204 10.71416723 -5 8 C-5.99 7.67 -6.98 7.34 -8 7 C-8 6.34 -8 5.68 -8 5 C-12.95 5 -17.9 5 -23 5 C-23 5.66 -23 6.32 -23 7 C-23.7425 7.2475 -24.485 7.495 -25.25 7.75 C-28.24840999 9.11291363 -29.87959545 10.50095178 -32 13 C-32.33 13.99 -32.66 14.98 -33 16 C-33.66 16 -34.32 16 -35 16 C-35.13277344 16.71027344 -35.26554688 17.42054688 -35.40234375 18.15234375 C-35.66724609 19.53099609 -35.66724609 19.53099609 -35.9375 20.9375 C-36.19853516 22.31228516 -36.19853516 22.31228516 -36.46484375 23.71484375 C-37 26 -37 26 -38 27 C-38.12770009 29.74109726 -38.185221 32.44585997 -38.1875 35.1875 C-38.19974609 35.94353516 -38.21199219 36.69957031 -38.22460938 37.47851562 C-38.24362521 44.78693558 -35.9074817 50.3370211 -33 57 C-32.5359375 58.3921875 -32.5359375 58.3921875 -32.0625 59.8125 C-30.72912139 62.55769126 -29.80882214 62.90768028 -27 64 C-26.0925 64.515625 -25.185 65.03125 -24.25 65.5625 C-16.76355889 68.87381049 -12.11179119 67.80262026 -4 66 C-4 57.42 -4 48.84 -4 40 C-5.65 39.34 -7.3 38.68 -9 38 C-9 37.34 -9 36.68 -9 36 C-9.66 36 -10.32 36 -11 36 C-10.125 32.125 -10.125 32.125 -9 31 C-7.181878 30.90035112 -5.35991216 30.86919505 -3.5390625 30.8671875 C-1.87230469 30.86525391 -1.87230469 30.86525391 -0.171875 30.86328125 C0.99859375 30.86714844 2.1690625 30.87101562 3.375 30.875 C4.53773438 30.87113281 5.70046875 30.86726563 6.8984375 30.86328125 C8.5690625 30.86521484 8.5690625 30.86521484 10.2734375 30.8671875 C11.81136963 30.86887939 11.81136963 30.86887939 13.38037109 30.87060547 C16 31 16 31 19 32 C19 33.65 19 35.3 19 37 C17.02 37.66 15.04 38.32 13 39 C12.96241577 40.29417847 12.96241577 40.29417847 12.92407227 41.61450195 C12.82888615 44.81823769 12.72965556 48.02181537 12.62768555 51.2253418 C12.58439782 52.61135983 12.54271836 53.99742906 12.50268555 55.38354492 C12.44483416 57.37691798 12.38070224 59.37010565 12.31640625 61.36328125 C12.27974854 62.56251221 12.24309082 63.76174316 12.20532227 64.99731445 C12 68 12 68 11 71 C7.535 71.495 7.535 71.495 4 72 C4 72.66 4 73.32 4 74 C-7.34398831 77.36118172 -20.65601169 77.36118172 -32 74 C-32 73.34 -32 72.68 -32 72 C-32.78375 71.855625 -33.5675 71.71125 -34.375 71.5625 C-37 71 -37 71 -39 70 C-39 69.34 -39 68.68 -39 68 C-39.763125 67.731875 -40.52625 67.46375 -41.3125 67.1875 C-45.40526905 65.37906716 -47.3224507 63.12935212 -49 59 C-49 58.01 -49 57.02 -49 56 C-49.66 56 -50.32 56 -51 56 C-53.4823332 50.23744079 -53.29690216 44.718409 -53.25 38.5625 C-53.25773438 37.55123047 -53.26546875 36.53996094 -53.2734375 35.49804688 C-53.2589333 29.93931112 -52.86017447 25.24834941 -51 20 C-50.34 20 -49.68 20 -49 20 C-48.938125 19.319375 -48.87625 18.63875 -48.8125 17.9375 C-47.01810952 11.45008827 -42.38089402 6.8114666 -37 3 C-34.125 2.1875 -34.125 2.1875 -32 2 C-32 1.34 -32 0.68 -32 0 C-20.29187282 -3.73947788 -11.70812718 -3.73947788 0 0 Z " fill="#F9FDFE" transform="translate(710,426)"/>
<path d="M0 0 C3.73232915 0.91000251 5.70655869 0.60571219 9.1875 -1.1875 C9.8475 -0.8575 10.5075 -0.5275 11.1875 -0.1875 C11.1875 8.0625 11.1875 16.3125 11.1875 24.8125 C9.2075 25.8025 9.2075 25.8025 7.1875 26.8125 C6.6925 23.8425 6.6925 23.8425 6.1875 20.8125 C5.5275 20.8125 4.8675 20.8125 4.1875 20.8125 C3.5275 17.8425 2.8675 14.8725 2.1875 11.8125 C1.5275 11.8125 0.8675 11.8125 0.1875 11.8125 C-0.3075 10.8225 -0.3075 10.8225 -0.8125 9.8125 C-5.51212561 7.46268719 -9.53495155 6.35102535 -14.8125 5.8125 C-14.8125 6.4725 -14.8125 7.1325 -14.8125 7.8125 C-15.43125 8.01875 -16.05 8.225 -16.6875 8.4375 C-19.04277948 9.71028492 -19.04277948 9.71028492 -20.1875 12.5 C-20.97380109 16.66739578 -20.58820073 18.96514842 -18.8125 22.8125 C-15.80655579 24.34396378 -15.80655579 24.34396378 -12.8125 24.8125 C-12.8125 25.4725 -12.8125 26.1325 -12.8125 26.8125 C-10.8325 27.4725 -8.8525 28.1325 -6.8125 28.8125 C-6.8125 29.4725 -6.8125 30.1325 -6.8125 30.8125 C-4.8325 31.1425 -2.8525 31.4725 -0.8125 31.8125 C-0.4825 32.8025 -0.1525 33.7925 0.1875 34.8125 C2.06838585 35.40800299 2.06838585 35.40800299 4.1875 35.8125 C10.34601126 39.08083273 13.49695523 43.30438061 15.9375 49.8125 C16.74369306 56.26204444 15.80562322 60.98777633 13.1875 66.8125 C12.90132812 67.49570312 12.61515625 68.17890625 12.3203125 68.8828125 C9.84224156 73.10407817 4.88524789 75.33270168 0.3125 76.625 C-9.27544261 77.20027656 -17.92360216 76.82684096 -26.8125 72.8125 C-27.1425 73.8025 -27.4725 74.7925 -27.8125 75.8125 C-29.4625 75.8125 -31.1125 75.8125 -32.8125 75.8125 C-32.84142385 71.68751462 -32.85927267 67.56255515 -32.875 63.4375 C-32.88337891 62.261875 -32.89175781 61.08625 -32.90039062 59.875 C-32.90361328 58.75351562 -32.90683594 57.63203125 -32.91015625 56.4765625 C-32.91539307 55.43967285 -32.92062988 54.4027832 -32.92602539 53.33447266 C-32.8125 50.8125 -32.8125 50.8125 -31.8125 48.8125 C-30.4925 48.8125 -29.1725 48.8125 -27.8125 48.8125 C-27.48636719 49.79992187 -27.16023437 50.78734375 -26.82421875 51.8046875 C-26.38335356 53.09914273 -25.94191745 54.39340362 -25.5 55.6875 C-25.28666016 56.33847656 -25.07332031 56.98945313 -24.85351562 57.66015625 C-23.60426658 61.27738484 -23.09118116 62.62671256 -19.8125 64.8125 C-19.8125 65.4725 -19.8125 66.1325 -19.8125 66.8125 C-10.1429342 68.53943354 -10.1429342 68.53943354 -0.8125 66.4375 C1.28466677 64.96163969 1.28466677 64.96163969 2.1875 62.8125 C2.25746014 61.10547265 2.27190154 59.39581997 2.25 57.6875 C2.24097656 56.77742188 2.23195312 55.86734375 2.22265625 54.9296875 C2.21105469 54.23101562 2.19945312 53.53234375 2.1875 52.8125 C0.8675 52.1525 -0.4525 51.4925 -1.8125 50.8125 C-1.8125 50.1525 -1.8125 49.4925 -1.8125 48.8125 C-2.410625 48.668125 -3.00875 48.52375 -3.625 48.375 C-5.37400404 47.9252561 -7.09927023 47.38357659 -8.8125 46.8125 C-9.1425 46.1525 -9.4725 45.4925 -9.8125 44.8125 C-11.79416034 43.7766321 -13.79723831 42.78137581 -15.8125 41.8125 C-18.6875 40.25 -18.6875 40.25 -20.8125 38.8125 C-20.8125 38.1525 -20.8125 37.4925 -20.8125 36.8125 C-21.39644531 36.72742188 -21.98039063 36.64234375 -22.58203125 36.5546875 C-25.44546827 35.60188009 -26.56452146 34.22984551 -28.5 31.9375 C-29.10199219 31.23882812 -29.70398438 30.54015625 -30.32421875 29.8203125 C-32.93885975 26.29294906 -32.97344614 23.19673879 -33 18.9375 C-33.01417969 17.90882813 -33.02835938 16.88015625 -33.04296875 15.8203125 C-32.80831369 12.75786512 -32.10434572 10.58001139 -30.8125 7.8125 C-30.1525 7.8125 -29.4925 7.8125 -28.8125 7.8125 C-28.4825 6.4925 -28.1525 5.1725 -27.8125 3.8125 C-26.4925 3.4825 -25.1725 3.1525 -23.8125 2.8125 C-23.8125 2.1525 -23.8125 1.4925 -23.8125 0.8125 C-15.33832167 -2.81051827 -8.78186771 -2.21367146 0 0 Z " fill="#FAFDFE" transform="translate(200.8125,425.1875)"/>
<path d="M0 0 C4.8929813 -0.02477941 9.7859258 -0.04289763 14.67895508 -0.05493164 C16.34237301 -0.05995023 18.00578656 -0.06676652 19.66918945 -0.07543945 C22.06462693 -0.08761357 24.46000591 -0.09325314 26.85546875 -0.09765625 C27.96513252 -0.10539818 27.96513252 -0.10539818 29.09721375 -0.11329651 C32.86083154 -0.11370241 36.34140381 0.09241691 40 1 C40 1.66 40 2.32 40 3 C40.70125 3.061875 41.4025 3.12375 42.125 3.1875 C47.31878188 4.65530792 50.1452634 7.60393022 52.875 12.0625 C55.18540124 18.34734146 55.1259082 26.09787223 52.5 32.25 C52.005 33.1575 51.51 34.065 51 35 C50.34 35 49.68 35 49 35 C48.79375 35.804375 48.5875 36.60875 48.375 37.4375 C47.694375 38.7059375 47.694375 38.7059375 47 40 C43.875 40.8125 43.875 40.8125 41 41 C41 41.66 41 42.32 41 43 C38.98011288 43.19743258 36.95901122 43.3824556 34.9375 43.5625 C33.24947266 43.71912109 33.24947266 43.71912109 31.52734375 43.87890625 C28 44 28 44 21 43 C21 50.92 21 58.84 21 67 C22.98 67.66 24.96 68.32 27 69 C28.34721283 69.63815344 29.68747118 70.29325371 31 71 C31 72.32 31 73.64 31 75 C28.32395355 76.33802323 26.25106812 76.12960724 23.2578125 76.1328125 C22.10925781 76.13410156 20.96070313 76.13539063 19.77734375 76.13671875 C18.57207031 76.13285156 17.36679688 76.12898438 16.125 76.125 C14.92746094 76.12886719 13.72992188 76.13273437 12.49609375 76.13671875 C11.34496094 76.13542969 10.19382813 76.13414062 9.0078125 76.1328125 C7.42444092 76.13112061 7.42444092 76.13112061 5.80908203 76.12939453 C3.36524049 76.01682404 1.33067501 75.70543725 -1 75 C-0.9375 72.6875 -0.9375 72.6875 0 70 C2.31 69.01 4.62 68.02 7 67 C7 46.87 7 26.74 7 6 C4.36 5.67 1.72 5.34 -1 5 C-0.67 3.35 -0.34 1.7 0 0 Z M21 9 C21 17.58 21 26.16 21 35 C24.47478021 36.73739011 28.20931136 36.59680392 32 36 C35.53974885 33.2133892 38.7128777 30.1267082 39.3359375 25.51171875 C39.41900451 19.50597368 39.2721952 15.61858941 35 11 C30.87500497 7.65540944 25.93261485 6.53369258 21 9 Z " fill="#F9FEFE" transform="translate(220,425)"/>
<path d="M0 0 C2.0625 0.4375 2.0625 0.4375 4 1 C4 1.99 4 2.98 4 4 C4.66 4 5.32 4 6 4 C7.00816056 6.58041096 8.0067111 9.16386944 9 11.75 C9.42925781 12.84441406 9.42925781 12.84441406 9.8671875 13.9609375 C10.13789063 14.66992188 10.40859375 15.37890625 10.6875 16.109375 C10.93886719 16.75874023 11.19023437 17.40810547 11.44921875 18.07714844 C12 20 12 20 12 24 C12.66 24 13.32 24 14 24 C14.18175781 24.64066406 14.36351562 25.28132813 14.55078125 25.94140625 C15.74187505 30.03999057 16.9317529 34.04141357 18.6875 37.9375 C20 41 20 41 20 44 C20.66 44 21.32 44 22 44 C22.18175781 44.64066406 22.36351562 45.28132813 22.55078125 45.94140625 C23.74187505 50.03999057 24.9317529 54.04141357 26.6875 57.9375 C28 61 28 61 28 64 C28.66 64 29.32 64 30 64 C30.185625 64.5775 30.37125 65.155 30.5625 65.75 C32.70551122 69.10427843 35.48822563 70.17907996 39 72 C38.67 73.65 38.34 75.3 38 77 C33.70834738 77.02891949 29.41671964 77.04677118 25.125 77.0625 C23.90167969 77.07087891 22.67835938 77.07925781 21.41796875 77.08789062 C19.66806641 77.09272461 19.66806641 77.09272461 17.8828125 77.09765625 C16.26463623 77.10551147 16.26463623 77.10551147 14.61376953 77.11352539 C12 77 12 77 10 76 C10.3125 73.625 10.3125 73.625 11 71 C11.99 70.34 12.98 69.68 14 69 C13.88490339 67.58249437 13.75746342 66.16598831 13.625 64.75 C13.52058594 63.56664062 13.52058594 63.56664062 13.4140625 62.359375 C12.98326166 59.90462303 12.12090052 58.20534899 11 56 C11 55.01 11 54.02 11 53 C2.42 53 -6.16 53 -15 53 C-15.33 55.31 -15.66 57.62 -16 60 C-16.33 60.66 -16.66 61.32 -17 62 C-17.66 62 -18.32 62 -19 62 C-19 64.64 -19 67.28 -19 70 C-17.02 70.33 -15.04 70.66 -13 71 C-12.61781233 72.65614657 -12.28604898 74.32457024 -12 76 C-13.57887856 77.57887856 -15.180593 77.12978098 -17.3671875 77.1328125 C-18.69556641 77.13474609 -18.69556641 77.13474609 -20.05078125 77.13671875 C-20.98277344 77.13285156 -21.91476563 77.12898438 -22.875 77.125 C-23.79925781 77.12886719 -24.72351563 77.13273437 -25.67578125 77.13671875 C-26.56394531 77.13542969 -27.45210937 77.13414062 -28.3671875 77.1328125 C-29.18300293 77.13168457 -29.99881836 77.13055664 -30.83935547 77.12939453 C-33 77 -33 77 -36 76 C-36.6875 73.9375 -36.6875 73.9375 -37 72 C-31.25 68 -31.25 68 -29 68 C-28.896875 67.29875 -28.79375 66.5975 -28.6875 65.875 C-28 63 -28 63 -26.63671875 60.30078125 C-24.86164929 56.72098724 -23.4776673 53.06439095 -22.125 49.3125 C-19.9975041 43.51060247 -17.66107652 37.8831792 -15.03515625 32.28515625 C-13.81119882 29.58321249 -12.84503635 26.84239499 -12 24 C-11.34 24 -10.68 24 -10 24 C-9.34 20.7 -8.68 17.4 -8 14 C-7.34 14 -6.68 14 -6 14 C-5.34 11.03 -4.68 8.06 -4 5 C-3.34 5 -2.68 5 -2 5 C-1.855625 4.360625 -1.71125 3.72125 -1.5625 3.0625 C-1 1 -1 1 0 0 Z M-2 24 C-4.76223278 26.76223278 -4.57856291 29.20706617 -5 33 C-5.66 33 -6.32 33 -7 33 C-7.66 35.97 -8.32 38.94 -9 42 C-9.66 42 -10.32 42 -11 42 C-11 42.99 -11 43.98 -11 45 C-5.06 45 0.88 45 7 45 C6.67 42.69 6.34 40.38 6 38 C5.34 38 4.68 38 4 38 C3.34 35.03 2.68 32.06 2 29 C1.34 29 0.68 29 0 29 C-0.33 27.35 -0.66 25.7 -1 24 C-1.33 24 -1.66 24 -2 24 Z " fill="#FAFDFE" transform="translate(126,424)"/>
<path d="M0 0 C0 -0.99 0 -1.98 0 -3 C1.65614657 -3.38218767 3.32457024 -3.71395102 5 -4 C6 -3 6 -3 6.09765625 -0.49609375 C6.08605469 0.51324219 6.07445312 1.52257812 6.0625 2.5625 C6.05347656 3.57441406 6.04445312 4.58632813 6.03515625 5.62890625 C6.02355469 6.41136719 6.01195312 7.19382812 6 8 C6.66 8 7.32 8 8 8 C8 12.62 8 17.24 8 22 C6.02 22 4.04 22 2 22 C0.74335022 19.09399739 0 17.20395416 0 14 C-0.66 14 -1.32 14 -2 14 C-3.02611949 12.34928604 -4.02308143 10.68029994 -5 9 C-7.12808023 6.40929363 -8.69730521 5.56943014 -12 5 C-12 4.34 -12 3.68 -12 3 C-16.62 3 -21.24 3 -26 3 C-26 3.66 -26 4.32 -26 5 C-27.11375 5.5775 -28.2275 6.155 -29.375 6.75 C-32.33192143 8.42260202 -33.92315721 9.64982242 -35 13 C-35.66 13 -36.32 13 -37 13 C-37.13277344 13.71027344 -37.26554687 14.42054688 -37.40234375 15.15234375 C-37.66724609 16.53099609 -37.66724609 16.53099609 -37.9375 17.9375 C-38.19853516 19.31228516 -38.19853516 19.31228516 -38.46484375 20.71484375 C-39 23 -39 23 -40 24 C-40.28213534 27.51258504 -40.23192406 31.03995157 -40.25 34.5625 C-40.270625 35.54025391 -40.29125 36.51800781 -40.3125 37.52539062 C-40.34600512 43.77828418 -39.49334237 48.27187398 -37 54 C-37 54.66 -37 55.32 -37 56 C-36.34 56 -35.68 56 -35 56 C-34.814375 56.5775 -34.62875 57.155 -34.4375 57.75 C-32.07341863 61.45030127 -28.21750258 63.31769152 -24.0703125 64.59375 C-17.52582961 65.87795042 -11.60329643 65.593425 -5.75 62.27734375 C-2.9184585 60.21057127 -1.09318002 57.81084175 1 55 C2.5 53.0625 2.5 53.0625 4 52 C6.6875 52.3125 6.6875 52.3125 9 53 C8.67 54.65 8.34 56.3 8 58 C7.34 58 6.68 58 6 58 C5.855625 58.61875 5.71125 59.2375 5.5625 59.875 C5 62 5 62 4 64 C3.34 64 2.68 64 2 64 C2 64.66 2 65.32 2 66 C1.34 66 0.68 66 0 66 C0 66.66 0 67.32 0 68 C-3 70 -3 70 -6 70 C-6 70.66 -6 71.32 -6 72 C-15.87130867 74.63234898 -25.1791009 75.02181511 -35 72 C-35 71.34 -35 70.68 -35 70 C-35.78375 69.855625 -36.5675 69.71125 -37.375 69.5625 C-40 69 -40 69 -42 68 C-42 67.34 -42 66.68 -42 66 C-43.65 65.34 -45.3 64.68 -47 64 C-47 63.01 -47 62.02 -47 61 C-47.99 60.67 -48.98 60.34 -50 60 C-57.56490119 49.91346507 -56.68798904 35.92600955 -55 24 C-52.77379146 14.92985331 -48.18455739 5.7482166 -39.9375 0.75 C-38 0 -38 0 -35 0 C-35 -0.66 -35 -1.32 -35 -2 C-21.7860306 -5.69991143 -12.69163528 -5.49970862 0 0 Z " fill="#FAFDFE" transform="translate(81,428)"/>
<path d="M0 0 C2.625 0.9375 2.625 0.9375 5 2 C4.38992042 9.44297082 4.38992042 9.44297082 2.6875 11.875 C1 13 1 13 -0.875 13.8125 C-3.37919401 15.21190254 -4.74309364 17.04436256 -6.5 19.2734375 C-9.33223527 22.53345831 -12.71362497 25.21272398 -16 28 C-16.33 28.33 -16.66 28.66 -17 29 C-18.99958364 29.04080783 -21.00045254 29.04254356 -23 29 C-23.33 28.01 -23.66 27.02 -24 26 C-24.66 26 -25.32 26 -26 26 C-26 24.02 -26 22.04 -26 20 C-25.34 20 -24.68 20 -24 20 C-23.9175 19.4225 -23.835 18.845 -23.75 18.25 C-22.79421474 15.38264421 -21.14915257 14.08199155 -19 12 C-18.67 11.01 -18.34 10.02 -18 9 C-17.34 9 -16.68 9 -16 9 C-15.79375 8.38511719 -15.5875 7.77023437 -15.375 7.13671875 C-13.42407133 4.10501993 -11.40954535 3.81651275 -8 2.8125 C-3.90904085 1.63461229 -3.90904085 1.63461229 0 0 Z " fill="#FAFEFE" transform="translate(448,262)"/>
<path d="M0 0 C0.33 0 0.66 0 1 0 C1 14.52 1 29.04 1 44 C-0.485 44.495 -0.485 44.495 -2 45 C-2 32.46 -2 19.92 -2 7 C-1.34 7 -0.68 7 0 7 C0 4.69 0 2.38 0 0 Z " fill="#EDF4F7" transform="translate(595,446)"/>
<path d="M0 0 C4.95 0 9.9 0 15 0 C14.67 1.32 14.34 2.64 14 4 C9.71 4 5.42 4 1 4 C0.67 2.68 0.34 1.36 0 0 Z " fill="#E0E4ED" transform="translate(367,63)"/>
<path d="M0 0 C1.32 0 2.64 0 4 0 C4.10867302 1.58179615 4.18589827 3.16577153 4.25 4.75 C4.29640625 5.63171875 4.3428125 6.5134375 4.390625 7.421875 C4 10 4 10 0 14 C0 9.38 0 4.76 0 0 Z " fill="#D8DCE5" transform="translate(388,25)"/>
<path d="M0 0 C4.29 0.99 8.58 1.98 13 3 C13 3.33 13 3.66 13 4 C11.04174127 4.02694851 9.08337774 4.04637218 7.125 4.0625 C6.03445313 4.07410156 4.94390625 4.08570313 3.8203125 4.09765625 C1 4 1 4 -1 3 C-0.67 2.01 -0.34 1.02 0 0 Z " fill="#EEF4F8" transform="translate(584,495)"/>
<path d="M0 0 C0.99 0.33 1.98 0.66 3 1 C3 2.98 3 4.96 3 7 C2.01 7 1.02 7 0 7 C0 4.69 0 2.38 0 0 Z " fill="#BCBFD1" transform="translate(388,26)"/>
</svg>
