<svg id="Layer_1" data-name="Layer 1" xmlns="http://www.w3.org/2000/svg" viewBox="0 0 262.63 50"><path d="M45.74,24.86l-.1.1L35.3,35.3,25,25l-.1-.1a14.62,14.62,0,1,1,20.88,0Z" fill="#012d5a"/><path d="M66.32,45.64a14.62,14.62,0,0,1-20.58.1l-.1-.1L35.3,35.3,45.64,25l.1-.1A14.62,14.62,0,0,1,66.32,45.64Z" fill="#a5bb2a"/><path d="M35.3,35.3,25,45.64l-.1.1a14.62,14.62,0,1,1,0-20.88l.1.1Z" fill="#eb752f"/><path d="M104.71,50A25,25,0,0,1,104.64.05c9.44-.52,16.48,3.07,20.94,10.67a2.47,2.47,0,0,1-4.26,2.5c-3.5-6-8.89-8.67-16.46-8.24h-.15a20,20,0,1,0,19.89,22.5H101.9a1.75,1.75,0,0,1-.4,0A2.48,2.48,0,0,1,99,25.06v0a2.48,2.48,0,0,1,2.47-2.47h25.72A2.48,2.48,0,0,1,129.69,25,25,25,0,0,1,104.71,50Z" fill="#012d5a"/><path d="M138,50a2.48,2.48,0,0,1-2.47-2.47V24.94h0V2.52A2.47,2.47,0,0,1,138,.05h22.37a13.65,13.65,0,1,1,0,27.3l-19.9,0V47.53A2.47,2.47,0,0,1,138,50Zm2.47-45V22.46l19.89-.05a8.71,8.71,0,1,0,0-17.42Z" fill="#012d5a"/><path d="M199.07.05a19.26,19.26,0,0,0-19.24,19.24V47.53a2.47,2.47,0,1,0,4.93,0V29.17h28.61V47.53a2.47,2.47,0,0,0,4.94,0V19.29A19.26,19.26,0,0,0,199.07.05ZM184.76,24.23V19.29a14.31,14.31,0,0,1,28.61,0v4.94Z" fill="#012d5a"/><path d="M262.14,46.05a2.47,2.47,0,0,1-4,3L243.39,29.16,228.59,49a2.47,2.47,0,1,1-4-3L240.3,25,224.63,4a2.47,2.47,0,0,1,4-2.95l14.8,19.85L258.18,1a2.47,2.47,0,0,1,4,3L246.47,25Z" fill="#012d5a"/></svg>