<svg width="100" height="23" viewBox="0 0 100 23" fill="none" xmlns="http://www.w3.org/2000/svg">
<g clip-path="url(#clip0_2099_666)">
<path d="M5.66023 0H3.77344V1.91667H5.66023V0Z" fill="white"/>
<path d="M7.54695 0H5.66016V1.91667H7.54695V0Z" fill="white"/>
<path d="M9.43416 0H7.54736V1.91667H9.43416V0Z" fill="white"/>
<path d="M11.3209 0H9.43408V1.91667H11.3209V0Z" fill="white"/>
<path d="M13.2076 0H11.3208V1.91667H13.2076V0Z" fill="white"/>
<path d="M15.0943 0H13.2075V1.91667H15.0943V0Z" fill="white"/>
<path d="M16.981 0H15.0942V1.91667H16.981V0Z" fill="white"/>
<path d="M18.8677 0H16.981V1.91667H18.8677V0Z" fill="white"/>
<path d="M1.88679 1.91669H0V3.83335H1.88679V1.91669Z" fill="white"/>
<path d="M3.77351 1.91669H1.88672V3.83335H3.77351V1.91669Z" fill="white"/>
<path d="M5.66023 1.91669H3.77344V3.83335H5.66023V1.91669Z" fill="white"/>
<path d="M7.54695 1.91669H5.66016V3.83335H7.54695V1.91669Z" fill="white"/>
<path d="M9.43416 1.91669H7.54736V3.83335H9.43416V1.91669Z" fill="white"/>
<path d="M11.3209 1.91669H9.43408V3.83335H11.3209V1.91669Z" fill="white"/>
<path d="M13.2076 1.91669H11.3208V3.83335H13.2076V1.91669Z" fill="white"/>
<path d="M15.0943 1.91669H13.2075V3.83335H15.0943V1.91669Z" fill="white"/>
<path d="M16.981 1.91669H15.0942V3.83335H16.981V1.91669Z" fill="white"/>
<path d="M18.8677 1.91669H16.981V3.83335H18.8677V1.91669Z" fill="white"/>
<path d="M20.755 1.91669H18.8682V3.83335H20.755V1.91669Z" fill="white"/>
<path d="M22.6417 1.91669H20.7549V3.83335H22.6417V1.91669Z" fill="white"/>
<path d="M1.88679 3.83331H0V5.74998H1.88679V3.83331Z" fill="white"/>
<path d="M3.77351 3.83331H1.88672V5.74998H3.77351V3.83331Z" fill="white"/>
<path d="M5.66023 3.83331H3.77344V5.74998H5.66023V3.83331Z" fill="white"/>
<path d="M16.981 3.83331H15.0942V5.74998H16.981V3.83331Z" fill="white"/>
<path d="M18.8677 3.83331H16.981V5.74998H18.8677V3.83331Z" fill="white"/>
<path d="M20.755 3.83331H18.8682V5.74998H20.755V3.83331Z" fill="white"/>
<path d="M22.6417 3.83331H20.7549V5.74998H22.6417V3.83331Z" fill="white"/>
<path d="M1.88679 5.75H0V7.66667H1.88679V5.75Z" fill="white"/>
<path d="M3.77351 5.75H1.88672V7.66667H3.77351V5.75Z" fill="white"/>
<path d="M5.66023 5.75H3.77344V7.66667H5.66023V5.75Z" fill="white"/>
<path d="M11.3209 5.75H9.43408V7.66667H11.3209V5.75Z" fill="white"/>
<path d="M13.2076 5.75H11.3208V7.66667H13.2076V5.75Z" fill="white"/>
<path d="M15.0943 5.75H13.2075V7.66667H15.0943V5.75Z" fill="white"/>
<path d="M18.8677 5.75H16.981V7.66667H18.8677V5.75Z" fill="white"/>
<path d="M20.755 5.75H18.8682V7.66667H20.755V5.75Z" fill="white"/>
<path d="M22.6417 5.75H20.7549V7.66667H22.6417V5.75Z" fill="white"/>
<path d="M1.88679 7.66669H0V9.58335H1.88679V7.66669Z" fill="white"/>
<path d="M3.77351 7.66669H1.88672V9.58335H3.77351V7.66669Z" fill="white"/>
<path d="M5.66023 7.66669H3.77344V9.58335H5.66023V7.66669Z" fill="white"/>
<path d="M9.43416 7.66669H7.54736V9.58335H9.43416V7.66669Z" fill="white"/>
<path d="M11.3209 7.66669H9.43408V9.58335H11.3209V7.66669Z" fill="white"/>
<path d="M13.2076 7.66669H11.3208V9.58335H13.2076V7.66669Z" fill="white"/>
<path d="M18.8677 7.66669H16.981V9.58335H18.8677V7.66669Z" fill="white"/>
<path d="M20.755 7.66669H18.8682V9.58335H20.755V7.66669Z" fill="white"/>
<path d="M22.6417 7.66669H20.7549V9.58335H22.6417V7.66669Z" fill="white"/>
<path d="M1.88679 9.58331H0V11.5H1.88679V9.58331Z" fill="white"/>
<path d="M3.77351 9.58331H1.88672V11.5H3.77351V9.58331Z" fill="white"/>
<path d="M5.66023 9.58331H3.77344V11.5H5.66023V9.58331Z" fill="white"/>
<path d="M7.54695 9.58331H5.66016V11.5H7.54695V9.58331Z" fill="white"/>
<path d="M18.8677 9.58331H16.981V11.5H18.8677V9.58331Z" fill="white"/>
<path d="M20.755 9.58331H18.8682V11.5H20.755V9.58331Z" fill="white"/>
<path d="M22.6417 9.58331H20.7549V11.5H22.6417V9.58331Z" fill="white"/>
<path d="M1.88679 11.5H0V13.4167H1.88679V11.5Z" fill="white"/>
<path d="M3.77351 11.5H1.88672V13.4167H3.77351V11.5Z" fill="white"/>
<path d="M5.66023 11.5H3.77344V13.4167H5.66023V11.5Z" fill="white"/>
<path d="M7.54695 11.5H5.66016V13.4167H7.54695V11.5Z" fill="white"/>
<path d="M9.43416 11.5H7.54736V13.4167H9.43416V11.5Z" fill="white"/>
<path d="M11.3209 11.5H9.43408V13.4167H11.3209V11.5Z" fill="white"/>
<path d="M13.2076 11.5H11.3208V13.4167H13.2076V11.5Z" fill="white"/>
<path d="M15.0943 11.5H13.2075V13.4167H15.0943V11.5Z" fill="white"/>
<path d="M16.981 11.5H15.0942V13.4167H16.981V11.5Z" fill="white"/>
<path d="M18.8677 11.5H16.981V13.4167H18.8677V11.5Z" fill="white"/>
<path d="M20.755 11.5H18.8682V13.4167H20.755V11.5Z" fill="white"/>
<path d="M22.6417 11.5H20.7549V13.4167H22.6417V11.5Z" fill="white"/>
<path d="M1.88679 13.4167H0V15.3334H1.88679V13.4167Z" fill="white"/>
<path d="M3.77351 13.4167H1.88672V15.3334H3.77351V13.4167Z" fill="white"/>
<path d="M5.66023 13.4167H3.77344V15.3334H5.66023V13.4167Z" fill="white"/>
<path d="M7.54695 13.4167H5.66016V15.3334H7.54695V13.4167Z" fill="white"/>
<path d="M9.43416 13.4167H7.54736V15.3334H9.43416V13.4167Z" fill="white"/>
<path d="M11.3209 13.4167H9.43408V15.3334H11.3209V13.4167Z" fill="white"/>
<path d="M13.2076 13.4167H11.3208V15.3334H13.2076V13.4167Z" fill="white"/>
<path d="M15.0943 13.4167H13.2075V15.3334H15.0943V13.4167Z" fill="white"/>
<path d="M16.981 13.4167H15.0942V15.3334H16.981V13.4167Z" fill="white"/>
<path d="M18.8677 13.4167H16.981V15.3334H18.8677V13.4167Z" fill="white"/>
<path d="M1.88679 15.3333H0V17.25H1.88679V15.3333Z" fill="white"/>
<path d="M3.77351 15.3333H1.88672V17.25H3.77351V15.3333Z" fill="white"/>
<path d="M5.66023 15.3333H3.77344V17.25H5.66023V15.3333Z" fill="white"/>
<path d="M1.88679 17.25H0V19.1667H1.88679V17.25Z" fill="white"/>
<path d="M3.77351 17.25H1.88672V19.1667H3.77351V17.25Z" fill="white"/>
<path d="M5.66023 17.25H3.77344V19.1667H5.66023V17.25Z" fill="white"/>
<path d="M1.88679 19.1667H0V21.0834H1.88679V19.1667Z" fill="white"/>
<path d="M3.77351 19.1667H1.88672V21.0834H3.77351V19.1667Z" fill="white"/>
<path d="M5.66023 19.1667H3.77344V21.0834H5.66023V19.1667Z" fill="white"/>
<path d="M1.88679 21.0833H0V23H1.88679V21.0833Z" fill="white"/>
<path d="M3.77351 21.0833H1.88672V23H3.77351V21.0833Z" fill="white"/>
<path opacity="0.3" d="M35.8491 5.75V21.0833" stroke="white"/>
<path d="M58.9195 10.9587H49.557L46.2266 14.935H55.5892L58.9195 10.9587Z" fill="white"/>
<path d="M72.5038 15.2154C71.5255 15.2154 71.1755 15.0026 71.1755 14.294C71.1755 13.6561 71.5255 13.4005 72.5766 13.4005H73.6273V14.1379C73.6273 14.8465 73.2772 15.2154 72.5038 15.2154ZM71.5988 16.7751C72.7369 16.7751 73.2477 16.4063 73.6129 15.8677V16.6916H75.6705V11.5434C75.6705 9.82838 75.0137 8.96368 72.7369 8.96368C70.533 8.96368 69.4504 9.71986 69.4504 11.43L71.4853 11.4555C71.4996 11.3845 71.5258 11.2933 71.5423 11.2327C71.677 10.7372 71.9098 10.5797 72.6641 10.5797C73.4813 10.5797 73.6129 10.9198 73.6129 11.4871V12.0117H72.6494C70.0373 12.0117 69.147 12.8054 69.147 14.4217C69.147 16.0094 69.9498 16.7751 71.5988 16.7751Z" fill="white"/>
<path d="M66.0706 14.2597C65.9226 14.0215 65.5767 13.9198 64.9976 13.8114C64.9315 13.8002 64.8641 13.7891 64.7959 13.7778C63.4809 13.5609 61.8463 13.2911 61.8599 11.4579C61.8599 9.96921 62.6775 9.03381 64.9976 9.03381C67.1138 9.03381 68.0396 9.94126 68.0787 11.4584L66.0851 11.5002C66.0118 10.8343 65.7437 10.6072 64.956 10.6072C64.3135 10.6072 63.9032 10.7776 63.9032 11.2312C63.9032 11.8404 64.3556 11.9258 65.3481 12.0959C66.6171 12.3038 68.1393 12.6195 68.2088 14.2597C68.2113 14.3123 68.2124 14.3665 68.212 14.4219C68.212 15.9106 67.3945 16.846 65.0743 16.846C62.9582 16.846 61.9665 15.9385 61.9274 14.4214L63.954 14.3796C64.0272 15.0454 64.3447 15.2726 65.1324 15.2726C65.7748 15.2726 66.1687 15.1022 66.1687 14.6486C66.1687 14.4863 66.1366 14.3592 66.0706 14.2597Z" fill="white"/>
<path d="M76.8203 8.26389L78.922 5.75V16.6948H76.8203V8.26389Z" fill="white"/>
<path d="M90.7506 16.8133C93.1586 16.8133 94.1507 15.5797 94.1507 13.9214V11.8798C94.1507 10.1927 93.1586 8.98792 90.7506 8.98792C88.3425 8.98792 87.3794 10.1927 87.3794 11.8798V13.9214C87.3794 15.5802 88.3278 16.8133 90.7506 16.8133ZM90.7506 15.1685C89.904 15.1685 89.4807 14.7294 89.4807 14.0204V11.8371C89.4807 11.1145 89.904 10.675 90.7501 10.675C91.5967 10.675 92.049 11.1141 92.049 11.8375V14.0204C92.049 14.7294 91.5967 15.1685 90.7506 15.1685Z" fill="white"/>
<path d="M82.006 12.0782V11.6954C82.006 11.0291 82.3123 10.5752 83.2317 10.5752C84.122 10.5752 84.414 10.9584 84.414 11.6954V12.0782H82.006ZM83.2313 16.8133C85.1911 16.8133 85.9858 16.0711 86.2952 15.1871C86.3591 15.0045 86.4023 14.8157 86.4308 14.6262C86.4381 14.5106 86.4403 14.4364 86.4421 14.3952L84.4273 14.3456C84.4273 14.3539 84.4239 14.3787 84.4239 14.3787C84.4239 14.3787 84.3992 14.5335 84.3804 14.6096C84.2709 15.0532 84.0297 15.2824 83.2317 15.2824C82.2248 15.2824 82.0056 14.7861 82.0056 14.1338V13.5102H86.4421V12.1489C86.4421 10.2494 85.6982 8.98792 83.2317 8.98792C80.7942 8.98792 79.9624 10.2638 79.9624 11.8798V13.9214C79.9624 15.4947 80.8085 16.8133 83.2313 16.8133Z" fill="white"/>
<path d="M100 9.05426L98.2667 11.1273L98.2494 11.1449H97.1231V16.6949H95.0215V11.1421L96.7673 9.05426H100Z" fill="white"/>
</g>
<defs>
<clipPath id="clip0_2099_666">
<rect width="100" height="23" fill="white"/>
</clipPath>
</defs>
</svg>
