<svg width="400" height="250" viewBox="0 0 400 250" fill="none" xmlns="http://www.w3.org/2000/svg">
<path fill-rule="evenodd" clip-rule="evenodd" d="M85.7148 170.169C105.969 170.169 111.061 161.934 111.061 150.653C111.061 136.778 98.6773 134.183 88.3767 132.491C80.5065 131.137 76.9186 130.461 76.9186 125.61C76.9186 122.001 80.0433 120.646 85.1362 120.646C91.3861 120.646 93.1218 122.451 93.7009 127.753L110.136 125.271C108.746 113.878 102.381 108.125 85.5989 108.125C67.1971 108.125 60.7157 115.571 60.7157 127.415C60.6004 142.757 74.9516 144.336 85.5989 146.141C92.1954 147.382 94.7427 148.509 94.7427 152.909C94.7427 156.519 92.5438 158.098 85.9461 158.098C78.6549 158.098 76.456 156.858 75.5301 150.879L59.5586 153.248C61.063 165.318 68.1229 170.169 85.7148 170.169" fill="#28234A"/>
<path fill-rule="evenodd" clip-rule="evenodd" d="M141.477 157.758C133.722 157.758 130.945 156.066 130.945 150.425C130.945 145.349 133.722 143.319 142.056 143.319H150.389V149.185C150.389 154.825 147.611 157.758 141.477 157.758M134.302 170.168C143.329 170.168 147.38 167.235 150.274 162.948V169.378H166.592V128.542C166.592 114.893 161.384 108.011 143.329 108.011C125.853 108.011 119.719 112.974 117.288 125.158L133.492 127.639C134.533 122.451 136.038 120.871 142.751 120.871C149.232 120.871 150.274 123.578 150.274 128.091V132.265H142.635C121.918 132.265 114.858 138.582 114.858 151.442C114.858 164.076 121.224 170.168 134.302 170.168" fill="#28234A"/>
<path fill-rule="evenodd" clip-rule="evenodd" d="M174.412 169.379H191.078V82.3447L174.412 98.9817V169.379Z" fill="#28234A"/>
<path fill-rule="evenodd" clip-rule="evenodd" d="M213.94 132.6V129.554C213.94 124.253 216.371 120.642 223.662 120.642C230.722 120.642 233.038 123.688 233.038 129.554V132.6H213.94ZM223.662 170.279C242.875 170.279 247.967 161.254 249.124 152.23L233.269 149.861C232.574 155.276 231.533 158.096 223.662 158.096C215.677 158.096 213.94 154.148 213.94 148.959V143.995H249.124V133.166C249.124 118.049 243.222 108.01 223.662 108.01C204.335 108.01 197.737 118.163 197.737 131.023V147.267C197.737 159.788 204.45 170.279 223.662 170.279V170.279Z" fill="#28234A"/>
<path fill-rule="evenodd" clip-rule="evenodd" d="M281.308 170.281C300.405 170.281 308.274 160.467 308.274 147.268V131.025C308.274 117.601 300.405 108.011 281.308 108.011C262.211 108.011 254.573 117.601 254.573 131.025V147.268C254.573 160.467 262.096 170.281 281.308 170.281M281.305 157.193C274.592 157.193 271.236 153.697 271.236 148.056V130.684C271.236 124.931 274.592 121.434 281.305 121.434C288.017 121.434 291.605 124.931 291.605 130.684V148.056C291.605 153.697 288.017 157.193 281.305 157.193" fill="#28234A"/>
<path fill-rule="evenodd" clip-rule="evenodd" d="M339.717 125.226H330.784V169.024H314.118V125.226H314.118L330.401 108.59H356L339.717 125.226Z" fill="#28234A"/>
<path opacity="0.7" fill-rule="evenodd" clip-rule="evenodd" d="M107.196 56.189L84.8445 79.5729H140.059L162.41 56.189H107.196Z" fill="#036DFF"/>
<path fill-rule="evenodd" clip-rule="evenodd" d="M59.3052 64.1664C59.7566 63.7144 60.3692 63.4604 61.008 63.4604H133.627C134.6 63.4604 135.478 64.0465 135.85 64.9454C136.223 65.8444 136.018 66.8793 135.33 67.5678L114.391 88.5327C113.939 88.9846 113.327 89.2386 112.688 89.2386H40.0686C39.0954 89.2386 38.2181 88.6525 37.8454 87.7536C37.4727 86.8547 37.6781 85.8198 38.3658 85.1312L59.3052 64.1664ZM62.0057 68.2737L45.8737 84.4253H111.69L127.822 68.2737H62.0057Z" fill="#28234A"/>
</svg>
