<svg xmlns="http://www.w3.org/2000/svg" xmlns:xlink="http://www.w3.org/1999/xlink" width="180" zoomAndPan="magnify" viewBox="0 0 135 135.000003" height="180" preserveAspectRatio="xMidYMid meet" version="1.0"><defs><g/><clipPath id="6fd60513e5"><path d="M 0.496094 0 L 134.503906 0 L 134.503906 134.007812 L 0.496094 134.007812 Z M 0.496094 0 " clip-rule="nonzero"/></clipPath><clipPath id="c78ccfd5f1"><path d="M 6.867188 6.371094 L 128.21875 6.371094 L 128.21875 127.722656 L 6.867188 127.722656 Z M 6.867188 6.371094 " clip-rule="nonzero"/></clipPath></defs><g clip-path="url(#6fd60513e5)"><path fill="#ffffff" d="M 0.496094 0 L 134.503906 0 L 134.503906 134.007812 L 0.496094 134.007812 Z M 0.496094 0 " fill-opacity="1" fill-rule="nonzero"/><path fill="#ffffff" d="M 0.496094 0 L 134.503906 0 L 134.503906 134.007812 L 0.496094 134.007812 Z M 0.496094 0 " fill-opacity="1" fill-rule="nonzero"/></g><g clip-path="url(#c78ccfd5f1)"><path fill="#000000" d="M 128.222656 67.035156 C 128.222656 69.023438 128.125 71.003906 127.929688 72.984375 C 127.734375 74.960938 127.445312 76.925781 127.054688 78.875 C 126.667969 80.824219 126.1875 82.75 125.609375 84.652344 C 125.03125 86.554688 124.363281 88.425781 123.601562 90.261719 C 122.839844 92.097656 121.992188 93.894531 121.054688 95.648438 C 120.117188 97.402344 119.097656 99.105469 117.992188 100.757812 C 116.886719 102.410156 115.707031 104.003906 114.445312 105.542969 C 113.183594 107.078125 111.851562 108.550781 110.445312 109.953125 C 109.039062 111.359375 107.566406 112.695312 106.03125 113.957031 C 104.492188 115.214844 102.898438 116.398438 101.246094 117.503906 C 99.59375 118.609375 97.890625 119.628906 96.136719 120.566406 C 94.382812 121.503906 92.589844 122.351562 90.75 123.113281 C 88.914062 123.875 87.046875 124.542969 85.144531 125.121094 C 83.242188 125.695312 81.316406 126.179688 79.363281 126.566406 C 77.414062 126.953125 75.453125 127.246094 73.472656 127.441406 C 71.496094 127.636719 69.511719 127.734375 67.523438 127.734375 C 65.535156 127.734375 63.550781 127.636719 61.574219 127.441406 C 59.59375 127.246094 57.632812 126.953125 55.679688 126.566406 C 53.730469 126.179688 51.804688 125.695312 49.902344 125.121094 C 48 124.542969 46.132812 123.875 44.292969 123.113281 C 42.457031 122.351562 40.664062 121.503906 38.910156 120.566406 C 37.15625 119.628906 35.453125 118.609375 33.800781 117.503906 C 32.148438 116.398438 30.550781 115.214844 29.015625 113.957031 C 27.480469 112.695312 26.007812 111.359375 24.601562 109.953125 C 23.195312 108.550781 21.863281 107.078125 20.601562 105.542969 C 19.339844 104.003906 18.15625 102.410156 17.054688 100.757812 C 15.949219 99.105469 14.929688 97.402344 13.992188 95.648438 C 13.054688 93.894531 12.203125 92.097656 11.445312 90.261719 C 10.683594 88.425781 10.015625 86.554688 9.4375 84.652344 C 8.859375 82.75 8.378906 80.824219 7.988281 78.875 C 7.601562 76.925781 7.3125 74.960938 7.117188 72.984375 C 6.921875 71.003906 6.824219 69.023438 6.824219 67.035156 C 6.824219 65.046875 6.921875 63.0625 7.117188 61.085938 C 7.3125 59.105469 7.601562 57.140625 7.988281 55.191406 C 8.378906 53.242188 8.859375 51.316406 9.4375 49.414062 C 10.015625 47.511719 10.683594 45.640625 11.445312 43.804688 C 12.203125 41.96875 13.054688 40.171875 13.992188 38.421875 C 14.929688 36.667969 15.949219 34.964844 17.054688 33.3125 C 18.15625 31.65625 19.339844 30.0625 20.601562 28.527344 C 21.863281 26.988281 23.195312 25.519531 24.601562 24.113281 C 26.007812 22.707031 27.480469 21.375 29.015625 20.113281 C 30.550781 18.851562 32.148438 17.667969 33.800781 16.5625 C 35.453125 15.460938 37.15625 14.4375 38.910156 13.5 C 40.664062 12.566406 42.457031 11.714844 44.292969 10.953125 C 46.132812 10.195312 48 9.523438 49.902344 8.949219 C 51.804688 8.371094 53.730469 7.886719 55.679688 7.5 C 57.632812 7.113281 59.59375 6.820312 61.574219 6.625 C 63.550781 6.433594 65.535156 6.335938 67.523438 6.335938 C 69.511719 6.335938 71.496094 6.433594 73.472656 6.625 C 75.453125 6.820312 77.414062 7.113281 79.363281 7.5 C 81.316406 7.886719 83.242188 8.371094 85.144531 8.949219 C 87.046875 9.523438 88.914062 10.195312 90.75 10.953125 C 92.589844 11.714844 94.382812 12.566406 96.136719 13.5 C 97.890625 14.4375 99.59375 15.460938 101.246094 16.5625 C 102.898438 17.667969 104.492188 18.851562 106.03125 20.113281 C 107.566406 21.375 109.039062 22.707031 110.445312 24.113281 C 111.851562 25.519531 113.183594 26.988281 114.445312 28.527344 C 115.707031 30.0625 116.886719 31.65625 117.992188 33.3125 C 119.097656 34.964844 120.117188 36.667969 121.054688 38.421875 C 121.992188 40.171875 122.839844 41.96875 123.601562 43.804688 C 124.363281 45.640625 125.03125 47.511719 125.609375 49.414062 C 126.1875 51.316406 126.667969 53.242188 127.054688 55.191406 C 127.445312 57.140625 127.734375 59.105469 127.929688 61.085938 C 128.125 63.0625 128.222656 65.046875 128.222656 67.035156 Z M 128.222656 67.035156 " fill-opacity="1" fill-rule="nonzero"/></g><g fill="#ffffff" fill-opacity="1"><g transform="translate(29.641354, 93.411888)"><g><path d="M 18.25 0 L 7.625 0 L 7.625 -58.625 L 22.78125 -58.625 L 37.609375 -15.515625 L 38.453125 -15.515625 L 53.21875 -58.625 L 68.015625 -58.625 L 68.015625 0 L 57.015625 0 L 57.015625 -38.734375 L 56.015625 -38.890625 L 42.46875 0 L 32.796875 0 L 19.25 -38.890625 L 18.25 -38.734375 Z M 18.25 0 "/></g></g></g></svg>