<svg width="110" height="131" viewBox="0 0 110 131" fill="none" xmlns="http://www.w3.org/2000/svg">
<path fill-rule="evenodd" clip-rule="evenodd" d="M55.9671 130.763C98.7657 130.763 109.528 113.481 109.528 89.806C109.528 60.6856 83.3584 55.2411 61.592 51.6891C44.9614 48.8487 37.3797 47.4291 37.3797 37.2483C37.3797 29.6739 43.9827 26.8311 54.7446 26.8311C67.9512 26.8311 71.6189 30.6195 72.8427 41.7459L107.571 36.5379C104.635 12.6266 91.184 0.553772 55.7221 0.553772C16.8371 0.553772 3.14122 16.1786 3.14122 41.0355C2.89743 73.234 33.2232 76.5484 55.7221 80.3356C69.6613 82.9408 75.0441 85.3072 75.0441 94.5413C75.0441 102.117 70.3975 105.431 56.4559 105.431C41.0487 105.431 36.4021 102.827 34.4457 90.2801L0.696045 95.2517C3.87502 120.584 18.7935 130.763 55.9671 130.763Z" fill="#28234A"/>
</svg>
