<svg width="106" height="67" viewBox="0 0 106 67" fill="none" xmlns="http://www.w3.org/2000/svg">
<g clip-path="url(#clip0_22_21)">
<path d="M9.54196 59.2564C9.90433 59.4282 10.2062 59.615 10.4477 59.8192C10.7339 60.0592 10.9789 60.3327 11.1838 60.6374L10.5796 61.02C10.4108 60.7725 10.2137 60.5542 9.98638 60.3646C9.77359 60.1904 9.52861 60.0375 9.25027 59.9067C8.97231 59.7754 8.64607 59.71 8.27271 59.71C7.8919 59.71 7.52247 59.7936 7.16364 59.9611C6.8052 60.1289 6.48798 60.3544 6.21356 60.6378C5.93835 60.9219 5.71929 61.2565 5.55479 61.6424C5.3899 62.0282 5.30746 62.4393 5.30746 62.8763C5.30746 63.3134 5.3899 63.7245 5.55479 64.1099C5.71929 64.4958 5.93875 64.8304 6.21356 65.1145C6.48838 65.3991 6.8052 65.6245 7.16364 65.7916C7.52247 65.9595 7.8919 66.0427 8.27271 66.0427C8.69789 66.0427 9.06732 65.9631 9.38257 65.8027C9.69743 65.6427 9.96047 65.4685 10.1733 65.2789C10.4222 65.0538 10.631 64.7985 10.799 64.5151L11.4032 64.897C11.1983 65.2462 10.9459 65.5556 10.6455 65.8251C10.4771 65.9922 10.3181 66.1239 10.1678 66.2177C10.0174 66.3123 9.8474 66.4001 9.6566 66.4802C9.46698 66.5602 9.25615 66.6256 9.0257 66.676C8.79486 66.7273 8.54399 66.7525 8.2731 66.7525C7.78275 66.7525 7.31007 66.6508 6.85663 66.4467C6.4024 66.2429 6.0051 65.965 5.66432 65.6119C5.32434 65.2588 5.0511 64.8481 4.84616 64.3775C4.64162 63.9085 4.53915 63.408 4.53915 62.8767C4.53915 62.3455 4.64162 61.8449 4.84616 61.3755C5.0511 60.9058 5.32434 60.4951 5.66432 60.1416C6.0047 59.7884 6.40201 59.5102 6.85663 59.3064C7.31047 59.1023 7.78315 59.001 8.2731 59.001C8.75678 59.0002 9.17921 59.0853 9.54196 59.2564Z" fill="black"/>
<path d="M8.2727 59.2489C7.82004 59.2489 7.37759 59.3443 6.95869 59.5331C6.53587 59.7219 6.16134 59.9847 5.84412 60.3134C5.52534 60.6445 5.26662 61.0351 5.07425 61.4737C4.88463 61.9092 4.78805 62.3814 4.78805 62.8768C4.78805 63.3714 4.88423 63.8435 5.07425 64.279C5.26662 64.7189 5.52573 65.1102 5.84373 65.4401C6.16016 65.768 6.53508 66.0305 6.9583 66.2201C7.60883 66.5133 8.3732 66.5657 8.97112 66.4333C9.18626 66.3864 9.38413 66.3245 9.55923 66.2508C9.73668 66.1763 9.89607 66.0943 10.0335 66.0076C10.1658 65.9245 10.3118 65.8035 10.4689 65.6482C10.6966 65.4437 10.8933 65.2186 11.0601 64.9731L10.8748 64.856C10.7213 65.0763 10.5423 65.2789 10.3405 65.4618C10.1124 65.6651 9.82815 65.8539 9.49602 66.023C8.83293 66.3608 7.8805 66.4002 7.05684 66.0159C6.67249 65.8362 6.3274 65.5911 6.03335 65.286C5.73891 64.9825 5.5006 64.6188 5.32394 64.2065C5.14727 63.7919 5.05737 63.3442 5.05737 62.8764C5.05737 62.4082 5.14727 61.9604 5.32394 61.5454C5.50021 61.1332 5.73891 60.769 6.03335 60.4659C6.3278 60.1621 6.67249 59.9162 7.05684 59.736C7.83417 59.3742 8.73282 59.3872 9.35704 59.6828C9.65109 59.8208 9.91609 59.9859 10.145 60.1731C10.3283 60.3264 10.4948 60.4983 10.6432 60.6859L10.8265 60.5696C10.6671 60.3643 10.4865 60.1771 10.2863 60.0088C10.0621 59.82 9.77633 59.6418 9.43477 59.481C9.10814 59.3269 8.71751 59.2493 8.2727 59.2489ZM8.2727 67.0004C7.74859 67.0004 7.23665 66.8897 6.75297 66.6733C6.27126 66.4561 5.84412 66.157 5.48333 65.783C5.12371 65.4105 4.83241 64.9707 4.61648 64.4769C4.3986 63.9771 4.28906 63.4396 4.28906 62.8768C4.28906 62.3136 4.39899 61.7756 4.61648 61.2766C4.83202 60.7832 5.12411 60.3438 5.48333 59.9701C5.8453 59.5949 6.27244 59.2962 6.75337 59.0798C7.71483 58.6479 8.8557 58.6601 9.64834 59.0325V59.0333C10.0299 59.2134 10.3527 59.4144 10.6086 59.6312C10.9094 59.883 11.1732 60.1763 11.3911 60.5002L11.5328 60.7111L10.5085 61.3594L10.3727 61.16C10.218 60.933 10.0339 60.7284 9.8254 60.5558C9.62989 60.3962 9.40023 60.2519 9.14308 60.1317C8.65234 59.8992 7.91112 59.8866 7.26963 60.1865C6.94024 60.3398 6.64501 60.5503 6.39297 60.8104C6.14092 61.0709 5.93599 61.3835 5.78406 61.7397C5.6333 62.0929 5.55674 62.4756 5.55674 62.8768C5.55674 63.278 5.63291 63.6603 5.78406 64.0138C5.93638 64.3701 6.14092 64.6826 6.39297 64.9427C6.6454 65.2036 6.94024 65.4137 7.26963 65.5662C7.95391 65.887 8.74224 65.8488 9.26831 65.5816C9.56237 65.4322 9.81088 65.2675 10.006 65.0937C10.2337 64.8876 10.4284 64.6503 10.5835 64.3882L10.7142 64.1675L11.7397 64.8158L11.6184 65.0219C11.4013 65.3916 11.1304 65.7235 10.8124 66.0088C10.6365 66.1838 10.4665 66.3237 10.3008 66.4278C10.1407 66.5283 9.95692 66.6228 9.75434 66.708C9.55098 66.7943 9.32406 66.8641 9.07909 66.9184C8.83097 66.9724 8.55969 67.0004 8.2727 67.0004Z" fill="black"/>
<path d="M19.3034 66.5331H15.4034V59.2183H16.1175V65.8241H19.303V66.5331H19.3034Z" fill="black"/>
<path d="M15.6535 66.2855H19.0541V66.0723H15.8686V59.4669H15.6535V66.2855ZM19.5531 66.7821H15.1541V58.9707H16.3676V65.5761H19.5531V66.7821V66.7821Z" fill="black"/>
<path d="M28.8449 61.6424C28.6801 61.2569 28.4602 60.9223 28.1858 60.6385C27.9114 60.3544 27.5965 60.1289 27.2408 59.961C26.8859 59.7935 26.5137 59.7096 26.1262 59.7096C25.7454 59.7096 25.376 59.7935 25.0168 59.961C24.6576 60.1289 24.3411 60.3544 24.0667 60.6385C23.7915 60.9223 23.572 61.2569 23.4071 61.6424C23.2427 62.0282 23.1602 62.4393 23.1602 62.8763C23.1602 63.3134 23.2427 63.7245 23.4071 64.1103C23.5716 64.4962 23.7915 64.8308 24.0667 65.1145C24.3411 65.3991 24.6576 65.6245 25.0168 65.7916C25.376 65.9595 25.745 66.0427 26.1262 66.0427C26.5141 66.0427 26.8859 65.9595 27.2408 65.7916C27.5965 65.6245 27.9114 65.3991 28.1858 65.1145C28.4598 64.8308 28.6801 64.4962 28.8449 64.1103C29.0094 63.7245 29.0919 63.3138 29.0919 62.8763C29.0923 62.4397 29.0098 62.0282 28.8449 61.6424ZM22.6985 61.3751C22.9042 60.9057 23.1767 60.4951 23.5171 60.1412C23.8575 59.7884 24.2548 59.5098 24.709 59.306C25.1628 59.1023 25.6351 59.001 26.1258 59.001C26.624 59.001 27.0979 59.1023 27.5482 59.306C27.9993 59.5102 28.3946 59.7888 28.7342 60.1412C29.075 60.4947 29.3479 60.9054 29.5528 61.3751C29.7577 61.8441 29.8606 62.3451 29.8606 62.8763C29.8606 63.4084 29.7581 63.9077 29.5528 64.3775C29.3479 64.8473 29.075 65.2584 28.7342 65.6115C28.3942 65.9646 27.9989 66.2433 27.5482 66.4466C27.0979 66.6508 26.624 66.7525 26.1258 66.7525C25.6351 66.7525 25.1628 66.6504 24.709 66.4466C24.2548 66.2429 23.8575 65.9646 23.5171 65.6115C23.1763 65.2584 22.9038 64.8477 22.6985 64.3775C22.494 63.9081 22.3915 63.408 22.3915 62.8763C22.3915 62.3451 22.4936 61.8445 22.6985 61.3751Z" fill="black"/>
<path d="M26.1263 59.9579C25.7847 59.9579 25.4475 60.0344 25.1232 60.1857C24.7938 60.3398 24.499 60.5495 24.2465 60.81C23.9945 61.0701 23.7895 61.3826 23.6372 61.7389C23.4865 62.092 23.4099 62.4747 23.4099 62.8759C23.4099 63.2771 23.4865 63.6594 23.6372 64.013C23.7895 64.3696 23.9945 64.6822 24.2465 64.9419C24.4986 65.2028 24.7938 65.4129 25.1232 65.5662C25.7769 65.8716 26.5031 65.8645 27.134 65.5674C27.4599 65.4137 27.7536 65.2028 28.006 64.9419C28.258 64.681 28.4634 64.3685 28.6149 64.013C28.7657 63.6598 28.8422 63.2768 28.8422 62.8759C28.8422 62.4747 28.7661 62.0924 28.6149 61.7389C28.463 61.3834 28.2576 61.0709 28.006 60.81C27.7532 60.5487 27.4595 60.339 27.134 60.1853C26.8141 60.0343 26.4753 59.9579 26.1263 59.9579ZM26.1263 66.2902C25.7097 66.2902 25.301 66.1976 24.9108 66.0155C24.5264 65.8362 24.1814 65.5914 23.8873 65.286C23.5929 64.9821 23.3542 64.6191 23.1779 64.2069C23.0012 63.7919 22.9113 63.3441 22.9113 62.8759C22.9113 62.4073 23.0012 61.96 23.1779 61.545C23.3542 61.1331 23.5929 60.7698 23.8873 60.4655C24.1817 60.1613 24.5264 59.9161 24.9108 59.736C25.7011 59.3687 26.5809 59.375 27.3484 59.736C27.7288 59.9161 28.0712 60.1609 28.366 60.4655C28.6608 60.7706 28.8991 61.1339 29.0754 61.545C29.2521 61.96 29.342 62.4073 29.342 62.8759C29.342 63.3441 29.2521 63.7919 29.0754 64.2069C28.8991 64.6183 28.6612 64.9813 28.366 65.286C28.0716 65.591 27.7288 65.8362 27.348 66.0155C26.9621 66.1976 26.551 66.2902 26.1263 66.2902ZM22.9278 61.4733C22.7378 61.9092 22.6412 62.3809 22.6412 62.8759C22.6412 63.3709 22.7378 63.8427 22.9278 64.2782C23.1202 64.7188 23.3793 65.1094 23.6973 65.4393C24.0137 65.7672 24.3886 66.0297 24.8119 66.2196C25.6559 66.6 26.6209 66.5933 27.445 66.2204C27.8647 66.0305 28.2384 65.7672 28.5541 65.4393C28.8724 65.1098 29.1316 64.7192 29.3243 64.2782C29.5143 63.8431 29.6109 63.3709 29.6109 62.8759C29.6109 62.3809 29.5147 61.9096 29.3243 61.4733C29.1316 61.033 28.8724 60.6425 28.5544 60.3126C28.2368 59.9843 27.8635 59.7214 27.445 59.5322C26.6209 59.159 25.6563 59.1527 24.8115 59.5326C24.3886 59.721 24.0141 59.9843 23.6969 60.3126C23.3789 60.6437 23.1202 61.0338 22.9278 61.4733ZM26.1263 67C25.6021 67 25.0902 66.8896 24.6065 66.6725C24.1244 66.4561 23.6973 66.1558 23.3369 65.7822C22.9773 65.4097 22.6856 64.9703 22.4696 64.4757C22.2522 63.9771 22.1422 63.4391 22.1422 62.8759C22.1422 62.3123 22.2522 61.7752 22.4696 61.2754C22.6852 60.782 22.9773 60.3425 23.3369 59.9693C23.6989 59.5945 24.1256 59.2954 24.6069 59.0794C25.5809 58.6431 26.6971 58.6474 27.6523 59.0802C28.1289 59.2954 28.5537 59.5953 28.9148 59.9693C29.2745 60.341 29.5665 60.7816 29.7825 61.2754C30.0004 61.774 30.1103 62.3123 30.1103 62.8759C30.1103 63.4395 30 63.9783 29.7825 64.4757C29.5658 64.9715 29.2745 65.4109 28.9148 65.7826C28.5548 66.1566 28.1301 66.4557 27.6523 66.6721C27.1713 66.8896 26.6578 67 26.1263 67Z" fill="black"/>
<path d="M35.7777 66.5331H35.064V59.9285H32.9774V59.2183H37.8652V59.9285H35.7777V66.5331Z" fill="black"/>
<path d="M35.3141 66.2855H35.5284V59.6801H37.6155V59.4669H33.2267V59.6801H35.3141V66.2855ZM36.0278 66.7821H34.8147V60.1767H32.7277V58.9707H38.1148V60.1767H36.0282V66.7821H36.0278Z" fill="black"/>
<path d="M42.5354 63.4771V66.5331H41.8213V59.2183H42.5354V62.7665H46.2152V59.2183H46.9289V66.5331H46.2152V63.4771H42.5354V63.4771Z" fill="black"/>
<path d="M46.4649 66.2855H46.6793V59.4665H46.4645V63.0155H42.2858V59.4665H42.0706V66.2855H42.2858V63.2295H46.4645V66.2855H46.4649ZM47.1782 66.7821H45.9651V63.7253H42.7847V66.7821H41.5716V58.9707H42.7851V62.5193H45.9655V58.9707H47.1786V66.7821H47.1782Z" fill="black"/>
<path d="M55.6928 59.2188V59.929H52.4531V62.4395H54.8146V63.1497H52.4531V65.8246H55.8035V66.5336H51.739V59.2188H55.6928Z" fill="black"/>
<path d="M51.9883 66.2855H55.5538V66.0723H52.2034V62.9016H54.5645V62.6876H52.2034V59.6801H55.4431V59.4669H51.9879V66.2863V66.2855H51.9883ZM56.0532 66.7821H51.4889V58.9707H55.9425V60.1771H52.7024V62.1914H55.0639V63.3978H52.7024V65.5761H56.0528V66.7817V66.7821H56.0532Z" fill="black"/>
<path d="M62.9962 59.1864C63.2565 59.3098 63.474 59.4477 63.6499 59.601C63.8548 59.7752 64.0307 59.9758 64.1771 60.2017L63.5729 60.5836C63.4634 60.4239 63.3315 60.2777 63.1772 60.1469C63.0457 60.0306 62.8898 59.9289 62.7108 59.8418C62.5306 59.7543 62.3237 59.7106 62.0897 59.7106C61.6209 59.7106 61.257 59.8308 60.9967 60.0708C60.7372 60.3108 60.6069 60.6092 60.6069 60.9658C60.6069 61.25 60.698 61.479 60.8817 61.654C61.0646 61.8282 61.2916 61.9835 61.5621 62.1175C61.8333 62.2526 62.1282 62.3799 62.4462 62.5002C62.765 62.6204 63.0598 62.7678 63.3311 62.942C63.602 63.1166 63.8289 63.3321 64.0118 63.5867C64.1944 63.8417 64.2863 64.1692 64.2863 64.5693C64.2863 64.853 64.2238 65.1277 64.0998 65.3938C63.9753 65.6594 63.803 65.8927 63.5835 66.0918C63.3629 66.2924 63.1038 66.452 62.8034 66.5726C62.5031 66.6928 62.1737 66.7527 61.8149 66.7527C61.3756 66.7527 61.0003 66.6727 60.6893 66.5123C60.378 66.3523 60.1236 66.1777 59.9257 65.9889C59.6913 65.7627 59.497 65.5077 59.3439 65.2247L59.9481 64.842C60.0651 65.0682 60.2119 65.2684 60.3866 65.4422C60.5484 65.603 60.7439 65.7434 60.9747 65.8632C61.2056 65.9826 61.4863 66.0425 61.8153 66.0425C62.0791 66.0425 62.315 66.0047 62.5239 65.9286C62.7328 65.8521 62.9098 65.7461 63.0567 65.6113C63.2031 65.4765 63.3166 65.3205 63.397 65.1427C63.4775 64.9642 63.518 64.773 63.518 64.5693C63.518 64.2709 63.4265 64.027 63.2435 63.8382C63.0602 63.6486 62.8329 63.4851 62.5624 63.3463C62.2919 63.208 61.9967 63.0771 61.6783 62.9538C61.3595 62.8304 61.0646 62.6842 60.7941 62.5171C60.5229 62.3496 60.2959 62.1439 60.113 61.9011C59.93 61.6571 59.8386 61.3454 59.8386 60.9666C59.8386 60.7195 59.8971 60.4799 60.0137 60.2462C60.1318 60.0137 60.2904 59.8044 60.4915 59.6188C60.694 59.4331 60.9312 59.2834 61.206 59.171C61.4804 59.0583 61.7756 59.002 62.0901 59.002C62.4344 59.0012 62.7363 59.0626 62.9962 59.1864Z" fill="black"/>
<path d="M59.6815 65.304C59.8005 65.4876 59.9406 65.6567 60.0996 65.8096C60.2795 65.9811 60.5166 66.1435 60.804 66.2913C61.0776 66.4323 61.4176 66.5041 61.8149 66.5041C62.1399 66.5041 62.4411 66.4493 62.71 66.3417C62.9813 66.2329 63.2176 66.0875 63.4147 65.9082C63.6094 65.7312 63.7637 65.5227 63.8732 65.2886C63.982 65.0561 64.0366 64.8149 64.0366 64.569C64.0366 64.2233 63.96 63.9415 63.8085 63.7299C63.644 63.5017 63.4382 63.3066 63.1948 63.1493C62.9404 62.9854 62.6582 62.8455 62.3578 62.7312C62.0324 62.6078 61.7273 62.4766 61.4502 62.3386C61.1589 62.194 60.9088 62.0237 60.7086 61.833C60.4746 61.6099 60.3568 61.3175 60.3568 60.9655C60.3568 60.5391 60.5146 60.1765 60.8267 59.8892C61.1322 59.6054 61.5573 59.4624 62.0897 59.4624C62.3618 59.4624 62.6071 59.5148 62.8203 59.6192C63.019 59.7154 63.1941 59.8309 63.3425 59.9609C63.4469 60.0504 63.5442 60.1474 63.6322 60.2514L63.8202 60.1324C63.7205 60.0078 63.6086 59.8931 63.4865 59.7895C63.3279 59.65 63.1269 59.5235 62.8878 59.41C62.4568 59.2038 61.8058 59.19 61.3006 59.3989C61.0544 59.5006 60.8397 59.6346 60.6603 59.7993C60.4824 59.9633 60.3407 60.1509 60.2363 60.3566C60.1373 60.5537 60.0875 60.7586 60.0875 60.9655C60.0875 61.2875 60.1629 61.552 60.312 61.7514C60.4754 61.9686 60.6815 62.155 60.9249 62.3055C61.1832 62.4648 61.4678 62.6051 61.7678 62.7221C62.0909 62.8475 62.3963 62.983 62.6754 63.1245C62.9715 63.2763 63.2223 63.4587 63.4229 63.6649C63.651 63.9021 63.7672 64.206 63.7672 64.569C63.7672 64.8066 63.719 65.0336 63.6239 65.2433C63.5313 65.4506 63.3962 65.6358 63.2255 65.7935C63.0547 65.9499 62.8478 66.0737 62.6095 66.1612C62.3735 66.2471 62.1058 66.2909 61.8145 66.2909C61.4462 66.2909 61.1251 66.2207 60.8589 66.0828C60.6061 65.9511 60.3882 65.7947 60.21 65.6177C60.0796 65.4884 59.9634 65.345 59.8621 65.1901L59.6804 65.3048L59.6815 65.304ZM61.8153 67.0003C61.3371 67.0003 60.9198 66.91 60.5747 66.7319C60.2449 66.5616 59.9681 66.3717 59.7534 66.1663C59.5005 65.9243 59.2889 65.6465 59.1241 65.341L59.0137 65.1381L60.0451 64.4862L60.1699 64.7278C60.2736 64.9288 60.4067 65.1101 60.5633 65.2658C60.7054 65.4072 60.8833 65.5338 61.0902 65.6429C61.4411 65.8238 62.0347 65.8416 62.4375 65.6946C62.6138 65.6299 62.7653 65.5401 62.8874 65.4281C63.0103 65.315 63.1022 65.1881 63.1689 65.0403C63.2349 64.8949 63.2679 64.7357 63.2679 64.5686C63.2679 64.3345 63.2011 64.1512 63.0629 64.0085C62.9016 63.841 62.6947 63.6916 62.4477 63.5659C62.1839 63.4315 61.8942 63.3027 61.5876 63.1836C61.2582 63.0559 60.9472 62.9018 60.6622 62.7269C60.3662 62.5432 60.1142 62.3154 59.9132 62.0474C59.6976 61.7601 59.5893 61.3963 59.5893 60.9651C59.5893 60.6798 59.6572 60.4 59.7907 60.1336C59.9222 59.8746 60.1008 59.6393 60.3226 59.4352C60.5448 59.2298 60.8102 59.0643 61.111 58.9402C61.7458 58.6789 62.5455 58.697 63.1045 58.9618C63.3849 59.0951 63.6236 59.2476 63.8151 59.4139C64.0342 59.6007 64.2281 59.8202 64.3871 60.0662L64.5242 60.2754L63.503 60.9222L63.3668 60.7232C63.2698 60.5817 63.152 60.4512 63.015 60.3346C62.8977 60.2305 62.7595 60.141 62.6012 60.0638C62.4576 59.9929 62.2852 59.9574 62.0905 59.9574C61.683 59.9574 61.3811 60.0532 61.1671 60.2514C60.9579 60.4441 60.8566 60.6774 60.8566 60.9651C60.8566 61.1799 60.9217 61.3463 61.0544 61.4739C61.2193 61.6308 61.4278 61.7727 61.6739 61.8949C61.9362 62.0253 62.2259 62.1503 62.5353 62.2669C62.8694 62.3926 63.1819 62.5499 63.4669 62.7324C63.7629 62.9235 64.015 63.162 64.2148 63.4414C64.428 63.7386 64.5359 64.1173 64.5359 64.5682C64.5359 64.8862 64.4649 65.1988 64.3267 65.4971C64.1877 65.7903 63.9949 66.0528 63.7523 66.2743C63.5109 66.493 63.2235 66.6704 62.8965 66.8016C62.5683 66.9333 62.2043 67.0003 61.8153 67.0003Z" fill="black"/>
<path d="M71.3788 60.6374L68.9624 64.022V64.0772H71.4342V60.6374H71.3788V60.6374ZM73.1369 64.7866H72.1479V66.5334H71.4342V64.7866H67.9185V64.2412L71.7636 58.8906H72.1479V64.0772H73.1369V64.7866V64.7866Z" fill="black"/>
<path d="M69.4064 63.8297H71.1841V61.3392L69.4064 63.8297ZM71.6835 64.3259H68.712V63.9436L71.2501 60.3898H71.6835V64.3259ZM71.6835 66.2854H71.8978V64.5391H72.8864V64.3255H71.8978L71.8916 59.1397L68.169 64.3207V64.5391H71.6835V66.2854ZM72.3972 66.782H71.1841V65.0353H67.6696V64.1615L71.6348 58.6431H72.3972V63.8293H73.3866V65.0353H72.3972V66.782Z" fill="black"/>
<path d="M77.0302 59.2188L78.9523 63.0401H79.0077L80.9298 59.2188H81.7535L79.3367 63.9139V66.5332H78.6237V63.9139L76.2069 59.2188H77.0302Z" fill="black"/>
<path d="M91.2279 61.6424C91.063 61.2569 90.8432 60.9223 90.5692 60.6385C90.2939 60.3544 89.9795 60.1289 89.6238 59.961C89.2689 59.7935 88.8967 59.7096 88.5088 59.7096C88.1284 59.7096 87.759 59.7935 87.3994 59.961C87.0405 60.1289 86.7245 60.3544 86.4501 60.6385C86.1749 60.9223 85.9546 61.2569 85.7905 61.6424C85.6256 62.0282 85.5436 62.4393 85.5436 62.8763C85.5436 63.3134 85.6256 63.7245 85.7905 64.1103C85.9546 64.4962 86.1749 64.8308 86.4501 65.1145C86.7245 65.3991 87.0405 65.6245 87.3994 65.7916C87.759 65.9595 88.1284 66.0427 88.5088 66.0427C88.8967 66.0427 89.2689 65.9595 89.6238 65.7916C89.9795 65.6245 90.2939 65.3991 90.5692 65.1145C90.8428 64.8308 91.063 64.4962 91.2279 64.1103C91.3928 63.7245 91.4749 63.3138 91.4749 62.8763C91.4749 62.4397 91.3928 62.0282 91.2279 61.6424ZM85.0815 61.3751C85.2876 60.9057 85.5601 60.4951 85.9004 60.1412C86.2408 59.7884 86.6381 59.5098 87.092 59.306C87.5458 59.1023 88.0181 59.001 88.5088 59.001C89.0074 59.001 89.4813 59.1023 89.9312 59.306C90.3819 59.5102 90.7776 59.7888 91.1172 60.1412C91.4584 60.4947 91.7308 60.9054 91.9362 61.3751C92.1407 61.8441 92.2436 62.3451 92.2436 62.8763C92.2436 63.4084 92.1415 63.9077 91.9362 64.3775C91.7308 64.8473 91.4584 65.2584 91.1172 65.6115C90.7776 65.9646 90.3819 66.2433 89.9312 66.4466C89.4813 66.6508 89.007 66.7525 88.5088 66.7525C88.0181 66.7525 87.5458 66.6504 87.092 66.4466C86.6381 66.2429 86.2408 65.9646 85.9004 65.6115C85.5601 65.2584 85.2876 64.8477 85.0815 64.3775C84.8769 63.9081 84.7749 63.408 84.7749 62.8763C84.7749 62.3451 84.8765 61.8445 85.0815 61.3751Z" fill="black"/>
<path d="M88.5088 59.9579C88.1677 59.9579 87.83 60.0344 87.5065 60.1857C87.1768 60.3398 86.8815 60.5495 86.6295 60.81C86.377 61.0701 86.1725 61.3826 86.0206 61.7389C85.8694 62.092 85.7937 62.4747 85.7937 62.8759C85.7937 63.2771 85.8694 63.6594 86.0206 64.013C86.1725 64.3696 86.377 64.6822 86.6295 64.9419C86.8819 65.2028 87.1771 65.4129 87.5065 65.5662C88.159 65.8716 88.8853 65.8645 89.517 65.5674C89.8429 65.4137 90.1357 65.2028 90.3889 64.9419C90.6414 64.681 90.8459 64.3685 90.9979 64.013C91.149 63.6598 91.2256 63.2768 91.2256 62.8759C91.2256 62.4747 91.149 62.0924 90.9979 61.7389C90.8459 61.3834 90.6414 61.0709 90.3889 60.81C90.1357 60.5487 89.8429 60.339 89.517 60.1853C89.1966 60.0343 88.8578 59.9579 88.5088 59.9579ZM88.5088 66.2902C88.0931 66.2902 87.6836 66.1976 87.2934 66.0155C86.909 65.8362 86.5643 65.5914 86.2699 65.286C85.9754 64.9821 85.7371 64.6191 85.5604 64.2069C85.3842 63.7919 85.2935 63.3441 85.2935 62.8759C85.2935 62.4073 85.3838 61.96 85.5604 61.545C85.7367 61.1331 85.9754 60.7698 86.2699 60.4655C86.5643 60.1613 86.9094 59.9161 87.2934 59.736C88.084 59.3687 88.9642 59.375 89.731 59.736C90.1114 59.9161 90.4541 60.1609 90.7486 60.4655C91.0438 60.7706 91.2813 61.1339 91.458 61.545C91.635 61.96 91.7249 62.4073 91.7249 62.8759C91.7249 63.3441 91.635 63.7919 91.458 64.2069C91.2817 64.6183 91.0438 64.9813 90.7486 65.286C90.4541 65.591 90.1114 65.8362 89.731 66.0155C89.3447 66.1976 88.9336 66.2902 88.5088 66.2902ZM85.3115 61.4733C85.1215 61.9092 85.025 62.3809 85.025 62.8759C85.025 63.3709 85.1207 63.8427 85.3115 64.2782C85.5031 64.7188 85.7622 65.1094 86.0806 65.4393C86.3975 65.7672 86.7724 66.0297 87.1956 66.2196C88.0389 66.6 89.0035 66.5933 89.8287 66.2204C90.248 66.0305 90.6218 65.7672 90.9374 65.4393C91.2558 65.1098 91.5149 64.7192 91.7081 64.2782C91.8981 63.8431 91.9943 63.3709 91.9943 62.8759C91.9943 62.3809 91.8985 61.9096 91.7081 61.4733C91.5157 61.033 91.2566 60.6425 90.9382 60.3126C90.6206 59.9843 90.2472 59.7214 89.8287 59.5322C89.0043 59.159 88.0397 59.1527 87.1956 59.5326C86.7724 59.721 86.3982 59.9843 86.0806 60.3126C85.7622 60.6437 85.5031 61.0338 85.3115 61.4733ZM88.5088 67C87.9851 67 87.4728 66.8896 86.9899 66.6725C86.5074 66.4561 86.0806 66.1558 85.7202 65.7822C85.3606 65.4097 85.0693 64.9703 84.853 64.4757C84.6351 63.9771 84.5256 63.4391 84.5256 62.8759C84.5256 62.3123 84.6351 61.7752 84.853 61.2754C85.0685 60.782 85.3606 60.3425 85.7202 59.9693C86.0822 59.5945 86.5093 59.2954 86.9899 59.0794C87.9643 58.6431 89.08 58.6474 90.0348 59.0802C90.5118 59.2954 90.9366 59.5953 91.2978 59.9693C91.6574 60.341 91.9495 60.7816 92.1658 61.2754C92.3837 61.774 92.494 62.3123 92.494 62.8759C92.494 63.4395 92.3837 63.9783 92.1658 64.4757C91.9487 64.9715 91.6574 65.4109 91.2978 65.7826C90.9382 66.1566 90.5134 66.4557 90.0348 66.6721C89.5547 66.8896 89.0412 67 88.5088 67Z" fill="black"/>
<path d="M101.461 59.2188V64.1318C101.461 64.5252 101.4 64.8834 101.274 65.2074C101.15 65.5309 100.978 65.808 100.758 66.0366C100.538 66.266 100.278 66.4425 99.978 66.5671C99.6789 66.6904 99.3491 66.7523 98.9903 66.7523C98.6314 66.7523 98.3016 66.6904 98.0009 66.5671C97.701 66.4429 97.4411 66.266 97.2212 66.0366C97.0018 65.808 96.8302 65.5309 96.7054 65.2074C96.5813 64.8834 96.5189 64.5252 96.5189 64.1318V59.2188H97.2318V64.1318C97.2318 64.736 97.3936 65.2058 97.7155 65.5404C98.0374 65.875 98.4614 66.0421 98.9899 66.0421C99.5167 66.0421 99.9415 65.875 100.264 65.5404C100.585 65.2054 100.747 64.736 100.747 64.1318V59.2188H101.461Z" fill="black"/>
<path d="M96.7678 59.4669V64.1317C96.7678 64.4923 96.8247 64.8245 96.9374 65.1193C97.0501 65.4106 97.2067 65.662 97.4022 65.8662C97.5962 66.0692 97.8301 66.228 98.0971 66.3379C98.6346 66.5587 99.3455 66.5587 99.8822 66.3379C100.15 66.2272 100.384 66.0688 100.577 65.8662C100.773 65.662 100.929 65.411 101.041 65.1193C101.154 64.8261 101.212 64.4935 101.212 64.1317V59.4669H100.997V64.1317C100.997 64.7989 100.811 65.3302 100.444 65.7121C100.075 66.0956 99.5854 66.291 98.9899 66.291C98.3947 66.291 97.9047 66.0956 97.5353 65.7121C97.1686 65.331 96.9833 64.7997 96.9833 64.1317V59.4669H96.7678ZM98.9903 67.0005C98.6 67.0005 98.2357 66.9315 97.9051 66.7955C97.5746 66.6588 97.2833 66.4613 97.0402 66.2079C96.7996 65.9557 96.6076 65.6494 96.4722 65.2959C96.3371 64.9443 96.268 64.5526 96.268 64.1317V58.9707H97.4819V64.1317C97.4819 64.6752 97.6178 65.0795 97.8961 65.3688C98.1713 65.6557 98.5293 65.7945 98.9895 65.7945C99.4504 65.7945 99.8084 65.6553 100.084 65.3688C100.358 65.0827 100.498 64.6669 100.498 64.1317V58.9707H101.711V64.1317C101.711 64.5542 101.643 64.9455 101.508 65.2959C101.372 65.6494 101.18 65.956 100.939 66.2079C100.697 66.4609 100.406 66.6584 100.074 66.7955C99.744 66.9315 99.3797 67.0005 98.9895 67.0005H98.9903Z" fill="black"/>
<path d="M28.5713 1.37016C30.506 2.28294 32.1188 3.2836 33.4088 4.37176C34.9337 5.65382 36.2434 7.11088 37.3383 8.74252L34.1135 10.7821C33.2137 9.4614 32.1584 8.2956 30.9469 7.28547C29.8127 6.3526 28.5034 5.53678 27.0182 4.83801C25.5327 4.13845 23.7927 3.78847 21.7995 3.78847C19.7666 3.78847 17.7927 4.235 15.8768 5.12925C13.9614 6.02311 12.2705 7.22714 10.8049 8.74252C9.33899 10.2583 8.16671 12.0456 7.28691 14.1049C6.40711 16.1642 5.96701 18.3598 5.96701 20.6906C5.96701 23.0218 6.4075 25.2174 7.28691 27.2759C8.16671 29.3356 9.3386 31.1229 10.8049 32.6387C12.2705 34.1537 13.9614 35.3585 15.8768 36.2519C17.7927 37.1458 19.767 37.5919 21.7995 37.5919C24.0663 37.5919 26.0407 37.1647 27.7217 36.3095C29.4028 35.4546 30.8095 34.5222 31.9437 33.512C33.2726 32.3076 34.3864 30.9475 35.2854 29.4321L38.511 31.4721C37.416 33.3371 36.0679 34.9884 34.4645 36.4258C33.5655 37.32 32.7147 38.0188 31.9135 38.5244C31.1122 39.0293 30.2037 39.4951 29.1873 39.9231C28.1709 40.35 27.0473 40.7 25.8153 40.9719C24.5841 41.2438 23.2454 41.3798 21.7991 41.3798C19.1801 41.3798 16.6581 40.8359 14.2342 39.7474C11.8111 38.6596 9.69036 37.1738 7.87227 35.2891C6.05495 33.404 4.59844 31.2092 3.50389 28.7026C2.40973 26.1968 1.86246 23.5255 1.86246 20.689C1.86246 17.853 2.40973 15.1808 3.50389 12.675C4.59883 10.1688 6.05495 7.9736 7.87227 6.08933C9.69036 4.20465 11.8111 2.71884 14.2342 1.63068C16.6581 0.542518 19.1801 -0.000976562 21.7991 -0.000976562C24.3792 0.000205791 26.6366 0.45699 28.5713 1.37016Z" fill="black"/>
<path d="M61.1683 9.52661L47.9889 27.9843V28.2819H61.4674V9.52661H61.1683ZM70.7522 32.1521H65.3612V41.3808H61.4674V32.1521H42.2983V29.1753L63.2647 0H65.3612V28.2815H70.7522V32.1521V32.1521Z" fill="black"/>
<path d="M101.978 0.29834V27.0916C101.978 29.2352 101.639 31.1901 100.959 32.9561C100.281 34.7226 99.3428 36.2312 98.1434 37.4814C96.9464 38.7319 95.5288 39.6943 93.8909 40.3691C92.2538 41.0438 90.4565 41.3816 88.4998 41.3816C86.5431 41.3816 84.7454 41.0438 83.1087 40.3691C81.472 39.6943 80.0539 38.7323 78.8561 37.4814C77.6576 36.2312 76.7193 34.7226 76.0397 32.9561C75.3609 31.1905 75.0213 29.2352 75.0213 27.0916V0.29834H78.915V27.0916C78.915 30.3865 79.7937 32.9463 81.5513 34.773C83.3081 36.5986 85.6244 37.5113 88.4998 37.5113C91.3751 37.5113 93.6918 36.5986 95.4491 34.773C97.2059 32.9463 98.0837 30.3865 98.0837 27.0916V0.29834H101.978Z" fill="black"/>
<path d="M106 51.2253H0V50.2329H106V51.2253Z" fill="black"/>
</g>
<defs>
<clipPath id="clip0_22_21">
<rect width="106" height="67" fill="white"/>
</clipPath>
</defs>
</svg>
