<svg width="270" height="170" viewBox="0 0 270 170" fill="none" xmlns="http://www.w3.org/2000/svg">
<g clip-path="url(#clip0_22_21)">
<path d="M24.305 150.352C25.228 150.788 25.997 151.262 26.612 151.78C27.341 152.389 27.965 153.083 28.487 153.856L26.948 154.827C26.518 154.199 26.016 153.645 25.437 153.164C24.895 152.722 24.271 152.334 23.562 152.002C22.854 151.669 22.023 151.503 21.072 151.503C20.102 151.503 19.161 151.715 18.247 152.14C17.334 152.566 16.526 153.138 15.827 153.857C15.126 154.578 14.568 155.427 14.149 156.406C13.729 157.385 13.519 158.428 13.519 159.537C13.519 160.646 13.729 161.689 14.149 162.667C14.568 163.646 15.127 164.495 15.827 165.216C16.527 165.938 17.334 166.51 18.247 166.934C19.161 167.36 20.102 167.571 21.072 167.571C22.155 167.571 23.096 167.369 23.899 166.962C24.701 166.556 25.371 166.114 25.913 165.633C26.547 165.062 27.079 164.414 27.507 163.695L29.046 164.664C28.524 165.55 27.881 166.335 27.116 167.019C26.687 167.443 26.282 167.777 25.899 168.015C25.516 168.255 25.083 168.478 24.597 168.681C24.114 168.884 23.577 169.05 22.99 169.178C22.402 169.308 21.763 169.372 21.073 169.372C19.824 169.372 18.62 169.114 17.465 168.596C16.308 168.079 15.296 167.374 14.428 166.478C13.562 165.582 12.866 164.54 12.344 163.346C11.823 162.156 11.562 160.886 11.562 159.538C11.562 158.19 11.823 156.92 12.344 155.729C12.866 154.537 13.562 153.495 14.428 152.598C15.295 151.702 16.307 150.996 17.465 150.479C18.621 149.961 19.825 149.704 21.073 149.704C22.305 149.702 23.381 149.918 24.305 150.352Z" fill="black"/>
<path d="M21.072 150.332C19.919 150.332 18.792 150.574 17.725 151.053C16.648 151.532 15.694 152.199 14.886 153.033C14.074 153.873 13.415 154.864 12.925 155.977C12.442 157.082 12.196 158.28 12.196 159.537C12.196 160.792 12.441 161.99 12.925 163.095C13.415 164.211 14.075 165.204 14.885 166.041C15.691 166.873 16.646 167.539 17.724 168.02C19.381 168.764 21.328 168.897 22.851 168.561C23.399 168.442 23.903 168.285 24.349 168.098C24.801 167.909 25.207 167.701 25.557 167.481C25.894 167.27 26.266 166.963 26.666 166.569C27.246 166.05 27.747 165.479 28.172 164.856L27.7 164.559C27.309 165.118 26.853 165.632 26.339 166.096C25.758 166.612 25.034 167.091 24.188 167.52C22.499 168.377 20.073 168.477 17.975 167.502C16.996 167.046 16.117 166.424 15.368 165.65C14.618 164.88 14.011 163.957 13.561 162.911C13.111 161.859 12.882 160.723 12.882 159.536C12.882 158.348 13.111 157.212 13.561 156.159C14.01 155.113 14.618 154.189 15.368 153.42C16.118 152.649 16.996 152.025 17.975 151.568C19.955 150.65 22.244 150.683 23.834 151.433C24.583 151.783 25.258 152.202 25.841 152.677C26.308 153.066 26.732 153.502 27.11 153.978L27.577 153.683C27.171 153.162 26.711 152.687 26.201 152.26C25.63 151.781 24.902 151.329 24.032 150.921C23.2 150.53 22.205 150.333 21.072 150.332ZM21.072 170C19.737 170 18.433 169.719 17.201 169.17C15.974 168.619 14.886 167.86 13.967 166.911C13.051 165.966 12.309 164.85 11.759 163.597C11.204 162.329 10.925 160.965 10.925 159.537C10.925 158.108 11.205 156.743 11.759 155.477C12.308 154.225 13.052 153.11 13.967 152.162C14.889 151.21 15.977 150.452 17.202 149.903C19.651 148.807 22.557 148.838 24.576 149.783V149.785C25.548 150.242 26.37 150.752 27.022 151.302C27.788 151.941 28.46 152.685 29.015 153.507L29.376 154.042L26.767 155.687L26.421 155.181C26.027 154.605 25.558 154.086 25.027 153.648C24.529 153.243 23.944 152.877 23.289 152.572C22.039 151.982 20.151 151.95 18.517 152.711C17.678 153.1 16.926 153.634 16.284 154.294C15.642 154.955 15.12 155.748 14.733 156.652C14.349 157.548 14.154 158.519 14.154 159.537C14.154 160.555 14.348 161.525 14.733 162.422C15.121 163.326 15.642 164.119 16.284 164.779C16.927 165.441 17.678 165.974 18.517 166.361C20.26 167.175 22.268 167.078 23.608 166.4C24.357 166.021 24.99 165.603 25.487 165.162C26.067 164.639 26.563 164.037 26.958 163.372L27.291 162.812L29.903 164.457L29.594 164.98C29.041 165.918 28.351 166.76 27.541 167.484C27.093 167.928 26.66 168.283 26.238 168.547C25.83 168.802 25.362 169.042 24.846 169.258C24.328 169.477 23.75 169.654 23.126 169.792C22.494 169.929 21.803 170 21.072 170Z" fill="black"/>
<path d="M49.169 168.815H39.235V150.255H41.054V167.016H49.168V168.815H49.169Z" fill="black"/>
<path d="M39.872 168.186H48.534V167.645H40.42V150.885H39.872V168.186ZM49.805 169.446H38.6V149.626H41.691V166.386H49.805V169.446V169.446Z" fill="black"/>
<path d="M73.473 156.405C73.053 155.427 72.493 154.578 71.794 153.858C71.095 153.137 70.293 152.565 69.387 152.139C68.483 151.714 67.535 151.501 66.548 151.501C65.578 151.501 64.637 151.714 63.722 152.139C62.807 152.565 62.001 153.137 61.302 153.858C60.601 154.578 60.042 155.427 59.622 156.405C59.203 157.384 58.993 158.427 58.993 159.536C58.993 160.645 59.203 161.688 59.622 162.667C60.041 163.646 60.601 164.495 61.302 165.215C62.001 165.937 62.807 166.509 63.722 166.933C64.637 167.359 65.577 167.57 66.548 167.57C67.536 167.57 68.483 167.359 69.387 166.933C70.293 166.509 71.095 165.937 71.794 165.215C72.492 164.495 73.053 163.646 73.473 162.667C73.892 161.688 74.102 160.646 74.102 159.536C74.103 158.428 73.893 157.384 73.473 156.405ZM57.817 155.727C58.341 154.536 59.035 153.494 59.902 152.596C60.769 151.701 61.781 150.994 62.938 150.477C64.094 149.96 65.297 149.703 66.547 149.703C67.816 149.703 69.023 149.96 70.17 150.477C71.319 150.995 72.326 151.702 73.191 152.596C74.059 153.493 74.754 154.535 75.276 155.727C75.798 156.917 76.06 158.188 76.06 159.536C76.06 160.886 75.799 162.153 75.276 163.345C74.754 164.537 74.059 165.58 73.191 166.476C72.325 167.372 71.318 168.079 70.17 168.595C69.023 169.113 67.816 169.371 66.547 169.371C65.297 169.371 64.094 169.112 62.938 168.595C61.781 168.078 60.769 167.372 59.902 166.476C59.034 165.58 58.34 164.538 57.817 163.345C57.296 162.154 57.035 160.885 57.035 159.536C57.035 158.188 57.295 156.918 57.817 155.727Z" fill="black"/>
<path d="M66.548 152.132C65.678 152.132 64.819 152.326 63.993 152.71C63.154 153.101 62.403 153.633 61.76 154.294C61.118 154.954 60.596 155.747 60.208 156.651C59.824 157.547 59.629 158.518 59.629 159.536C59.629 160.554 59.824 161.524 60.208 162.421C60.596 163.326 61.118 164.119 61.76 164.778C62.402 165.44 63.154 165.973 63.993 166.362C65.658 167.137 67.508 167.119 69.115 166.365C69.945 165.975 70.693 165.44 71.336 164.778C71.978 164.116 72.501 163.323 72.887 162.421C73.271 161.525 73.466 160.553 73.466 159.536C73.466 158.518 73.272 157.548 72.887 156.651C72.5 155.749 71.977 154.956 71.336 154.294C70.692 153.631 69.944 153.099 69.115 152.709C68.3 152.326 67.437 152.132 66.548 152.132ZM66.548 168.199C65.487 168.199 64.446 167.964 63.452 167.502C62.473 167.047 61.594 166.426 60.845 165.651C60.095 164.88 59.487 163.959 59.038 162.913C58.588 161.86 58.359 160.724 58.359 159.536C58.359 158.347 58.588 157.212 59.038 156.159C59.487 155.114 60.095 154.192 60.845 153.42C61.595 152.648 62.473 152.026 63.452 151.569C65.465 150.637 67.706 150.653 69.661 151.569C70.63 152.026 71.502 152.647 72.253 153.42C73.004 154.194 73.611 155.116 74.06 156.159C74.51 157.212 74.739 158.347 74.739 159.536C74.739 160.724 74.51 161.86 74.06 162.913C73.611 163.957 73.005 164.878 72.253 165.651C71.503 166.425 70.63 167.047 69.66 167.502C68.677 167.964 67.63 168.199 66.548 168.199ZM58.401 155.977C57.917 157.083 57.671 158.28 57.671 159.536C57.671 160.792 57.917 161.989 58.401 163.094C58.891 164.212 59.551 165.203 60.361 166.04C61.167 166.872 62.122 167.538 63.2 168.02C65.35 168.985 67.808 168.968 69.907 168.022C70.976 167.54 71.928 166.872 72.732 166.04C73.543 165.204 74.203 164.213 74.694 163.094C75.178 161.99 75.424 160.792 75.424 159.536C75.424 158.28 75.179 157.084 74.694 155.977C74.203 154.86 73.543 153.869 72.733 153.032C71.924 152.199 70.973 151.532 69.907 151.052C67.808 150.105 65.351 150.089 63.199 151.053C62.122 151.531 61.168 152.199 60.36 153.032C59.55 153.872 58.891 154.862 58.401 155.977ZM66.548 170C65.213 170 63.909 169.72 62.677 169.169C61.449 168.62 60.361 167.858 59.443 166.91C58.527 165.965 57.784 164.85 57.234 163.595C56.68 162.33 56.4 160.965 56.4 159.536C56.4 158.106 56.68 156.743 57.234 155.475C57.783 154.223 58.527 153.108 59.443 152.161C60.365 151.21 61.452 150.451 62.678 149.903C65.159 148.796 68.002 148.807 70.435 149.905C71.649 150.451 72.731 151.212 73.651 152.161C74.567 153.104 75.311 154.222 75.861 155.475C76.416 156.74 76.696 158.106 76.696 159.536C76.696 160.966 76.415 162.333 75.861 163.595C75.309 164.853 74.567 165.968 73.651 166.911C72.734 167.86 71.652 168.619 70.435 169.168C69.21 169.72 67.902 170 66.548 170Z" fill="black"/>
<path d="M91.132 168.815H89.314V152.057H83.999V150.255H96.449V152.057H91.132V168.815Z" fill="black"/>
<path d="M89.951 168.186H90.497V151.426H95.813V150.885H84.634V151.426H89.951V168.186ZM91.769 169.446H88.679V152.686H83.363V149.626H97.085V152.686H91.77V169.446H91.769Z" fill="black"/>
<path d="M108.345 161.061V168.815H106.526V150.255H108.345V159.258H117.718V150.255H119.536V168.815H117.718V161.061H108.345V161.061Z" fill="black"/>
<path d="M118.354 168.186H118.9V150.884H118.353V159.889H107.709V150.884H107.161V168.186H107.709V160.432H118.353V168.186H118.354ZM120.171 169.446H117.081V161.69H108.98V169.446H105.89V149.626H108.981V158.63H117.082V149.626H120.172V169.446H120.171Z" fill="black"/>
<path d="M141.859 150.256V152.058H133.607V158.428H139.622V160.23H133.607V167.017H142.141V168.816H131.788V150.256H141.859Z" fill="black"/>
<path d="M132.423 168.186H141.505V167.645H132.971V159.6H138.985V159.057H132.971V151.426H141.223V150.885H132.422V168.188V168.186H132.423ZM142.777 169.446H131.151V149.626H142.495V152.687H134.242V157.798H140.257V160.859H134.242V166.386H142.776V169.445V169.446H142.777Z" fill="black"/>
<path d="M160.462 150.174C161.125 150.487 161.679 150.837 162.127 151.226C162.649 151.668 163.097 152.177 163.47 152.75L161.931 153.719C161.652 153.314 161.316 152.943 160.923 152.611C160.588 152.316 160.191 152.058 159.735 151.837C159.276 151.615 158.749 151.504 158.153 151.504C156.959 151.504 156.032 151.809 155.369 152.418C154.708 153.027 154.376 153.784 154.376 154.689C154.376 155.41 154.608 155.991 155.076 156.435C155.542 156.877 156.12 157.271 156.809 157.611C157.5 157.954 158.251 158.277 159.061 158.582C159.873 158.887 160.624 159.261 161.315 159.703C162.005 160.146 162.583 160.693 163.049 161.339C163.514 161.986 163.748 162.817 163.748 163.832C163.748 164.552 163.589 165.249 163.273 165.924C162.956 166.598 162.517 167.19 161.958 167.695C161.396 168.204 160.736 168.609 159.971 168.915C159.206 169.22 158.367 169.372 157.453 169.372C156.334 169.372 155.378 169.169 154.586 168.762C153.793 168.356 153.145 167.913 152.641 167.434C152.044 166.86 151.549 166.213 151.159 165.495L152.698 164.524C152.996 165.098 153.37 165.606 153.815 166.047C154.227 166.455 154.725 166.811 155.313 167.115C155.901 167.418 156.616 167.57 157.454 167.57C158.126 167.57 158.727 167.474 159.259 167.281C159.791 167.087 160.242 166.818 160.616 166.476C160.989 166.134 161.278 165.738 161.483 165.287C161.688 164.834 161.791 164.349 161.791 163.832C161.791 163.075 161.558 162.456 161.092 161.977C160.625 161.496 160.046 161.081 159.357 160.729C158.668 160.378 157.916 160.046 157.105 159.733C156.293 159.42 155.542 159.049 154.853 158.625C154.162 158.2 153.584 157.678 153.118 157.062C152.652 156.443 152.419 155.652 152.419 154.691C152.419 154.064 152.568 153.456 152.865 152.863C153.166 152.273 153.57 151.742 154.082 151.271C154.598 150.8 155.202 150.42 155.902 150.135C156.601 149.849 157.353 149.706 158.154 149.706C159.031 149.704 159.8 149.86 160.462 150.174Z" fill="black"/>
<path d="M152.019 165.696C152.322 166.162 152.679 166.591 153.084 166.979C153.542 167.414 154.146 167.826 154.878 168.201C155.575 168.559 156.441 168.741 157.453 168.741C158.281 168.741 159.048 168.602 159.733 168.329C160.424 168.053 161.026 167.684 161.528 167.229C162.024 166.78 162.417 166.251 162.696 165.657C162.973 165.067 163.112 164.455 163.112 163.831C163.112 162.954 162.917 162.239 162.531 161.702C162.112 161.123 161.588 160.628 160.968 160.229C160.32 159.813 159.601 159.458 158.836 159.168C158.007 158.855 157.23 158.522 156.524 158.172C155.782 157.805 155.145 157.373 154.635 156.889C154.039 156.323 153.739 155.581 153.739 154.688C153.739 153.606 154.141 152.686 154.936 151.957C155.714 151.237 156.797 150.874 158.153 150.874C158.846 150.874 159.471 151.007 160.014 151.272C160.52 151.516 160.966 151.809 161.344 152.139C161.61 152.366 161.858 152.612 162.082 152.876L162.561 152.574C162.307 152.258 162.022 151.967 161.711 151.704C161.307 151.35 160.795 151.029 160.186 150.741C159.088 150.218 157.43 150.183 156.143 150.713C155.516 150.971 154.969 151.311 154.512 151.729C154.059 152.145 153.698 152.621 153.432 153.143C153.18 153.643 153.053 154.163 153.053 154.688C153.053 155.505 153.245 156.176 153.625 156.682C154.041 157.233 154.566 157.706 155.186 158.088C155.844 158.492 156.569 158.848 157.333 159.145C158.156 159.463 158.934 159.807 159.645 160.166C160.399 160.551 161.038 161.014 161.549 161.537C162.13 162.139 162.426 162.91 162.426 163.831C162.426 164.434 162.303 165.01 162.061 165.542C161.825 166.068 161.481 166.538 161.046 166.938C160.611 167.335 160.084 167.649 159.477 167.871C158.876 168.089 158.194 168.2 157.452 168.2C156.514 168.2 155.696 168.022 155.018 167.672C154.374 167.338 153.819 166.941 153.365 166.492C153.033 166.164 152.737 165.8 152.479 165.407L152.016 165.698L152.019 165.696ZM157.454 170C156.236 170 155.173 169.771 154.294 169.319C153.454 168.887 152.749 168.405 152.202 167.884C151.558 167.27 151.019 166.565 150.599 165.79L150.318 165.275L152.945 163.621L153.263 164.234C153.527 164.744 153.866 165.204 154.265 165.599C154.627 165.958 155.08 166.279 155.607 166.556C156.501 167.015 158.013 167.06 159.039 166.687C159.488 166.523 159.874 166.295 160.185 166.011C160.498 165.724 160.732 165.402 160.902 165.027C161.07 164.658 161.154 164.254 161.154 163.83C161.154 163.236 160.984 162.771 160.632 162.409C160.221 161.984 159.694 161.605 159.065 161.286C158.393 160.945 157.655 160.618 156.874 160.316C156.035 159.992 155.243 159.601 154.517 159.157C153.763 158.691 153.121 158.113 152.609 157.433C152.06 156.704 151.784 155.781 151.784 154.687C151.784 153.963 151.957 153.253 152.297 152.577C152.632 151.92 153.087 151.323 153.652 150.805C154.218 150.284 154.894 149.864 155.66 149.549C157.277 148.886 159.314 148.932 160.738 149.604C161.452 149.942 162.06 150.329 162.548 150.751C163.106 151.225 163.6 151.782 164.005 152.406L164.354 152.937L161.753 154.578L161.406 154.073C161.159 153.714 160.859 153.383 160.51 153.087C160.211 152.823 159.859 152.596 159.456 152.4C159.09 152.22 158.651 152.13 158.155 152.13C157.117 152.13 156.348 152.373 155.803 152.876C155.27 153.365 155.012 153.957 155.012 154.687C155.012 155.232 155.178 155.654 155.516 155.978C155.936 156.376 156.467 156.736 157.094 157.046C157.762 157.377 158.5 157.694 159.288 157.99C160.139 158.309 160.935 158.708 161.661 159.171C162.415 159.656 163.057 160.261 163.566 160.97C164.109 161.724 164.384 162.685 164.384 163.829C164.384 164.636 164.203 165.429 163.851 166.186C163.497 166.93 163.006 167.596 162.388 168.158C161.773 168.713 161.041 169.163 160.208 169.496C159.372 169.83 158.445 170 157.454 170Z" fill="black"/>
<path d="M181.814 153.856L175.659 162.444V162.584H181.955V153.856H181.814V153.856ZM186.292 164.384H183.773V168.816H181.955V164.384H173V163L182.794 149.424H183.773V162.584H186.292V164.384V164.384Z" fill="black"/>
<path d="M176.79 161.955H181.318V155.636L176.79 161.955ZM182.59 163.214H175.021V162.244L181.486 153.227H182.59V163.214ZM182.59 168.186H183.136V163.755H185.654V163.213H183.136L183.12 150.055L173.638 163.201V163.755H182.59V168.186ZM184.408 169.446H181.318V165.014H172.366V162.797L182.466 148.795H184.408V161.954H186.928V165.014H184.408V169.446Z" fill="black"/>
<path d="M196.209 150.256L201.105 159.952H201.246L206.142 150.256H208.24L202.084 162.169V168.815H200.268V162.169L194.112 150.256H196.209Z" fill="black"/>
<path d="M232.373 156.405C231.953 155.427 231.393 154.578 230.695 153.858C229.994 153.137 229.193 152.565 228.287 152.139C227.383 151.714 226.435 151.501 225.447 151.501C224.478 151.501 223.537 151.714 222.621 152.139C221.707 152.565 220.902 153.137 220.203 153.858C219.502 154.578 218.941 155.427 218.523 156.405C218.103 157.384 217.894 158.427 217.894 159.536C217.894 160.645 218.103 161.688 218.523 162.667C218.941 163.646 219.502 164.495 220.203 165.215C220.902 165.937 221.707 166.509 222.621 166.933C223.537 167.359 224.478 167.57 225.447 167.57C226.435 167.57 227.383 167.359 228.287 166.933C229.193 166.509 229.994 165.937 230.695 165.215C231.392 164.495 231.953 163.646 232.373 162.667C232.793 161.688 233.002 160.646 233.002 159.536C233.002 158.428 232.793 157.384 232.373 156.405ZM216.717 155.727C217.242 154.536 217.936 153.494 218.803 152.596C219.67 151.701 220.682 150.994 221.838 150.477C222.994 149.96 224.197 149.703 225.447 149.703C226.717 149.703 227.924 149.96 229.07 150.477C230.218 150.995 231.226 151.702 232.091 152.596C232.96 153.493 233.654 154.535 234.177 155.727C234.698 156.917 234.96 158.188 234.96 159.536C234.96 160.886 234.7 162.153 234.177 163.345C233.654 164.537 232.96 165.58 232.091 166.476C231.226 167.372 230.218 168.079 229.07 168.595C227.924 169.113 226.716 169.371 225.447 169.371C224.197 169.371 222.994 169.112 221.838 168.595C220.682 168.078 219.67 167.372 218.803 166.476C217.936 165.58 217.242 164.538 216.717 163.345C216.196 162.154 215.936 160.885 215.936 159.536C215.936 158.188 216.195 156.918 216.717 155.727Z" fill="black"/>
<path d="M225.447 152.132C224.578 152.132 223.718 152.326 222.894 152.71C222.054 153.101 221.302 153.633 220.66 154.294C220.017 154.954 219.496 155.747 219.109 156.651C218.724 157.547 218.531 158.518 218.531 159.536C218.531 160.554 218.724 161.524 219.109 162.421C219.496 163.326 220.017 164.119 220.66 164.778C221.303 165.44 222.055 165.973 222.894 166.362C224.556 167.137 226.406 167.119 228.015 166.365C228.845 165.975 229.591 165.44 230.236 164.778C230.879 164.116 231.4 163.323 231.787 162.421C232.172 161.525 232.367 160.553 232.367 159.536C232.367 158.518 232.172 157.548 231.787 156.651C231.4 155.749 230.879 154.956 230.236 154.294C229.591 153.631 228.845 153.099 228.015 152.709C227.199 152.326 226.336 152.132 225.447 152.132ZM225.447 168.199C224.388 168.199 223.345 167.964 222.351 167.502C221.372 167.047 220.494 166.426 219.744 165.651C218.994 164.88 218.387 163.959 217.937 162.913C217.488 161.86 217.257 160.724 217.257 159.536C217.257 158.347 217.487 157.212 217.937 156.159C218.386 155.114 218.994 154.192 219.744 153.42C220.494 152.648 221.373 152.026 222.351 151.569C224.365 150.637 226.607 150.653 228.56 151.569C229.529 152.026 230.402 152.647 231.152 153.42C231.904 154.194 232.509 155.116 232.959 156.159C233.41 157.212 233.639 158.347 233.639 159.536C233.639 160.724 233.41 161.86 232.959 162.913C232.51 163.957 231.904 164.878 231.152 165.651C230.402 166.425 229.529 167.047 228.56 167.502C227.576 167.964 226.529 168.199 225.447 168.199ZM217.303 155.977C216.819 157.083 216.573 158.28 216.573 159.536C216.573 160.792 216.817 161.989 217.303 163.094C217.791 164.212 218.451 165.203 219.262 166.04C220.069 166.872 221.024 167.538 222.102 168.02C224.25 168.985 226.707 168.968 228.809 168.022C229.877 167.54 230.829 166.872 231.633 166.04C232.444 165.204 233.104 164.213 233.596 163.094C234.08 161.99 234.325 160.792 234.325 159.536C234.325 158.28 234.081 157.084 233.596 155.977C233.106 154.86 232.446 153.869 231.635 153.032C230.826 152.199 229.875 151.532 228.809 151.052C226.709 150.105 224.252 150.089 222.102 151.053C221.024 151.531 220.071 152.199 219.262 153.032C218.451 153.872 217.791 154.862 217.303 155.977ZM225.447 170C224.113 170 222.808 169.72 221.578 169.169C220.349 168.62 219.262 167.858 218.344 166.91C217.428 165.965 216.686 164.85 216.135 163.595C215.58 162.33 215.301 160.965 215.301 159.536C215.301 158.106 215.58 156.743 216.135 155.475C216.684 154.223 217.428 153.108 218.344 152.161C219.266 151.21 220.354 150.451 221.578 149.903C224.06 148.796 226.902 148.807 229.334 149.905C230.549 150.451 231.631 151.212 232.551 152.161C233.467 153.104 234.211 154.222 234.762 155.475C235.317 156.74 235.598 158.106 235.598 159.536C235.598 160.966 235.317 162.333 234.762 163.595C234.209 164.853 233.467 165.968 232.551 166.911C231.635 167.86 230.553 168.619 229.334 169.168C228.111 169.72 226.803 170 225.447 170Z" fill="black"/>
<path d="M258.438 150.256V162.722C258.438 163.72 258.282 164.629 257.963 165.451C257.647 166.272 257.207 166.975 256.649 167.555C256.088 168.137 255.426 168.585 254.661 168.901C253.899 169.214 253.059 169.371 252.145 169.371C251.231 169.371 250.391 169.214 249.625 168.901C248.861 168.586 248.199 168.137 247.639 167.555C247.08 166.975 246.643 166.272 246.325 165.451C246.009 164.629 245.85 163.72 245.85 162.722V150.256H247.666V162.722C247.666 164.255 248.078 165.447 248.898 166.296C249.718 167.145 250.798 167.569 252.144 167.569C253.486 167.569 254.568 167.145 255.39 166.296C256.208 165.446 256.619 164.255 256.619 162.722V150.256H258.438Z" fill="black"/>
<path d="M246.484 150.886V162.722C246.484 163.637 246.629 164.48 246.916 165.228C247.203 165.967 247.602 166.605 248.1 167.123C248.594 167.638 249.19 168.041 249.87 168.32C251.239 168.88 253.05 168.88 254.417 168.32C255.099 168.039 255.694 167.637 256.188 167.123C256.686 166.605 257.084 165.968 257.368 165.228C257.657 164.484 257.804 163.64 257.804 162.722V150.886H257.257V162.722C257.257 164.415 256.782 165.763 255.849 166.732C254.908 167.705 253.661 168.201 252.144 168.201C250.628 168.201 249.38 167.705 248.439 166.732C247.505 165.765 247.033 164.417 247.033 162.722V150.886H246.484ZM252.145 170.001C251.151 170.001 250.223 169.826 249.381 169.481C248.539 169.134 247.797 168.633 247.178 167.99C246.565 167.35 246.076 166.573 245.731 165.676C245.387 164.784 245.211 163.79 245.211 162.722V149.627H248.303V162.722C248.303 164.101 248.649 165.127 249.358 165.861C250.059 166.589 250.971 166.941 252.143 166.941C253.317 166.941 254.229 166.588 254.93 165.861C255.629 165.135 255.985 164.08 255.985 162.722V149.627H259.075V162.722C259.075 163.794 258.901 164.787 258.557 165.676C258.211 166.573 257.723 167.351 257.108 167.99C256.493 168.632 255.751 169.133 254.905 169.481C254.065 169.826 253.137 170.001 252.143 170.001H252.145Z" fill="black"/>
<path d="M72.776 3.47607C77.704 5.79207 81.812 8.33107 85.098 11.0921C88.982 14.3451 92.318 18.0421 95.107 22.1821L86.893 27.3571C84.601 24.0061 81.913 21.0481 78.827 18.4851C75.938 16.1181 72.603 14.0481 68.82 12.2751C65.036 10.5001 60.604 9.61209 55.527 9.61209C50.349 9.61209 45.321 10.7451 40.441 13.0141C35.562 15.2821 31.255 18.3371 27.522 22.1821C23.788 26.0281 20.802 30.5631 18.561 35.7881C16.32 41.0131 15.199 46.5841 15.199 52.4981C15.199 58.4131 16.321 63.9841 18.561 69.2071C20.802 74.4331 23.787 78.9681 27.522 82.8141C31.255 86.6581 35.562 89.7151 40.441 91.9821C45.321 94.2501 50.35 95.3821 55.527 95.3821C61.301 95.3821 66.33 94.2981 70.612 92.1281C74.894 89.9591 78.477 87.5931 81.366 85.0301C84.751 81.9741 87.588 78.5231 89.878 74.6781L98.094 79.8541C95.305 84.5861 91.871 88.7761 87.787 92.4231C85.497 94.6921 83.33 96.4651 81.289 97.7481C79.248 99.0291 76.934 100.211 74.345 101.297C71.756 102.38 68.894 103.268 65.756 103.958C62.62 104.648 59.21 104.993 55.526 104.993C48.855 104.993 42.431 103.613 36.257 100.851C30.085 98.0911 24.683 94.3211 20.052 89.5391C15.423 84.7561 11.713 79.1871 8.925 72.8271C6.138 66.4691 4.744 59.6911 4.744 52.4941C4.744 45.2981 6.138 38.5181 8.925 32.1601C11.714 25.8011 15.423 20.2311 20.052 15.4501C24.683 10.6681 30.085 6.89808 36.257 4.13708C42.431 1.37609 48.855 -0.00292969 55.526 -0.00292969C62.098 7.03125e-05 67.848 1.15907 72.776 3.47607Z" fill="black"/>
<path d="M155.806 24.172L122.236 71.005V71.76H156.568V24.172H155.806ZM180.218 81.58H166.486V104.996H156.568V81.58H107.741V74.027L161.146 0H166.486V71.759H180.218V81.58V81.58Z" fill="black"/>
<path d="M259.756 0.755859V68.7389C259.756 74.1779 258.891 79.1379 257.16 83.6189C255.433 88.1009 253.043 91.9289 249.988 95.1009C246.939 98.2739 243.328 100.716 239.156 102.428C234.986 104.14 230.408 104.997 225.424 104.997C220.44 104.997 215.861 104.14 211.692 102.428C207.523 100.716 203.911 98.2749 200.86 95.1009C197.807 91.9289 195.417 88.1009 193.686 83.6189C191.957 79.1389 191.092 74.1779 191.092 68.7389V0.755859H201.01V68.7389C201.01 77.0989 203.248 83.5939 207.725 88.2289C212.2 92.8609 218.1 95.1769 225.424 95.1769C232.748 95.1769 238.649 92.8609 243.125 88.2289C247.6 83.5939 249.836 77.0989 249.836 68.7389V0.755859H259.756Z" fill="black"/>
<path d="M270 129.974H0V127.456H270V129.974Z" fill="black"/>
</g>
<defs>
<clipPath id="clip0_22_21">
<rect width="270" height="170" fill="white"/>
</clipPath>
</defs>
</svg>
