<svg width="111" height="95" viewBox="0 0 111 95" fill="none" xmlns="http://www.w3.org/2000/svg">
<path d="M53.5875 87.0435C43.0538 87.0435 33.1312 82.9839 25.6841 75.6029C18.2266 68.2321 14.125 58.4112 14.125 47.9855C14.125 37.5598 18.2266 27.7389 25.6841 20.3681C33.1312 12.9871 43.0538 8.92754 53.5875 8.92754C64.1212 8.92754 74.0438 12.9871 81.4909 20.3681C88.9484 27.7492 93.05 37.5598 93.05 47.9855C93.05 58.4112 88.9484 68.2321 81.4909 75.6029C74.0438 82.9839 64.1212 87.0435 53.5875 87.0435ZM53.5875 11.2649C43.6856 11.2649 34.3638 15.0886 27.3517 22.0186C20.3499 28.9486 16.4865 38.1851 16.4865 47.9855C16.4865 57.7859 20.3499 67.0122 27.3517 73.9524C34.3638 80.8824 43.6856 84.7062 53.5875 84.7062C63.4894 84.7062 72.8112 80.8824 79.8233 73.9524C86.8251 67.0122 90.6885 57.7859 90.6885 47.9855C90.6885 38.1851 86.8251 28.9486 79.8233 22.0186C72.8112 15.0886 63.4894 11.2649 53.5875 11.2649Z" fill="black"/>
<path d="M39.2318 61.8757C39.1489 61.5476 39.0764 61.2913 39.0247 61.0966C38.9625 60.912 38.9625 60.748 39.0247 60.6045C39.0764 60.4712 39.1593 60.3482 39.2732 60.2354C39.4079 60.1329 39.5736 60.0202 39.7704 59.9074L42.7948 58.5132C43.3127 58.3287 43.727 58.3697 44.0377 58.6362C44.3381 58.8823 44.5763 59.2 44.7421 59.5793C45.0735 60.3995 45.5707 61.1273 46.2336 61.7527C46.9172 62.3575 47.6629 62.8598 48.4708 63.2699C49.2994 63.6594 50.128 63.9567 50.9566 64.172C51.7852 64.3668 52.4895 64.459 53.0696 64.459C53.8671 64.459 54.7475 64.3565 55.7211 64.131C56.7155 63.885 57.6373 63.5364 58.497 63.0648C59.3463 62.5728 60.0713 61.9474 60.6513 61.1786C61.2314 60.42 61.5214 59.4973 61.5214 58.4312C61.5214 57.3138 61.2417 56.4117 60.6928 55.7248C60.1335 55.0175 59.4188 54.4434 58.5384 54.0026C57.6787 53.5413 56.6947 53.1722 55.5968 52.8954C54.5196 52.6289 53.4217 52.3418 52.3238 52.0343C50.418 51.5422 48.7194 50.9476 47.2279 50.23C45.7364 49.4919 44.4624 48.6513 43.4163 47.6877C42.3598 46.7343 41.5623 45.6579 41.0133 44.4482C40.454 43.2181 40.1847 41.8444 40.1847 40.3067C40.1847 38.6152 40.5161 37.0877 41.179 35.714C41.8419 34.3198 42.7534 33.1306 43.9134 32.1465C45.0942 31.1624 46.5028 30.4038 48.1394 29.8502C49.7966 29.3069 51.6195 29.0301 53.6082 29.0301C55.2343 29.0301 56.6326 29.1838 57.7926 29.4811C58.9734 29.7887 60.0299 30.2192 60.9414 30.7933C61.8528 31.3674 62.6814 32.085 63.4272 32.9256C64.1936 33.7765 65.0015 34.7504 65.8301 35.837C66.0994 36.2778 66.2445 36.6469 66.2445 36.9442C66.2652 37.2517 66.0891 37.549 65.7059 37.8463L63.22 39.6916C62.7229 39.9684 62.35 40.0504 62.1014 39.9376C61.8528 39.8043 61.5732 39.5583 61.2728 39.1995C60.7756 38.6254 60.2888 38.0821 59.8227 37.5593C59.3774 37.0467 58.8491 36.5751 58.2484 36.1651C57.6684 35.755 56.9848 35.427 56.2183 35.1809C55.4725 34.9349 54.5818 34.8119 53.5667 34.8119C52.6242 34.8119 51.7127 34.9246 50.8323 35.1399C49.9726 35.3655 49.1958 35.7038 48.5122 36.1651C47.8183 36.6059 47.2693 37.18 46.855 37.8873C46.4407 38.6049 46.2336 39.4353 46.2336 40.3887C46.2336 41.1268 46.4821 41.8136 46.9793 42.4389C47.4972 43.0438 48.1497 43.6076 48.9265 44.1202C49.7241 44.6123 50.5837 45.0428 51.4952 45.3914C52.4274 45.7502 53.3389 46.0372 54.2296 46.2525C56.239 46.6933 58.0827 47.2776 59.7399 48.0157C61.3971 48.7333 62.8161 49.5739 64.0072 50.5581C65.188 51.5422 66.0994 52.6904 66.7416 54.0026C67.4045 55.3148 67.7359 56.791 67.7359 58.4312C67.7359 60.2662 67.3631 61.9167 66.6173 63.3929C65.8923 64.8486 64.8876 66.0788 63.5929 67.0834C62.2878 68.0983 60.7446 68.8774 58.9527 69.4207C57.1505 69.9641 55.1929 70.2408 53.0696 70.2408C51.7438 70.2408 50.3766 70.0563 48.968 69.7078C47.5593 69.3797 46.2128 68.8774 44.9492 68.1906C43.7063 67.514 42.567 66.6528 41.5519 65.6072C40.5576 64.541 39.7808 63.3006 39.2318 61.8757Z" fill="black"/>
<path id="small-circle" d="M54.8926 40.42C49.952 40.42 45.9436 44.377 45.9436 49.2772C45.9436 54.1671 49.952 58.1344 54.8926 58.1344C59.8331 58.1344 63.8415 54.1671 63.8415 49.2772C63.8415 44.377 59.8331 40.42 54.8926 40.42Z" fill="#FCCD00"/>
</svg>
