<svg width="91" height="41" viewBox="0 0 91 41" fill="none" xmlns="http://www.w3.org/2000/svg">
<path d="M83.2156 20.8628C85.1793 20.8628 86.9574 21.659 88.2445 22.9461C89.5316 24.2332 90.3277 26.0114 90.3277 27.9749C90.3277 29.9385 89.5316 31.7165 88.2445 33.0036C86.9574 34.2907 85.1793 35.0869 83.2156 35.0869C81.252 35.0869 79.4741 34.2907 78.187 33.0036C76.9 31.7167 76.1037 29.9386 76.1037 27.9749C76.1037 26.0112 76.8999 24.2332 78.187 22.9461C79.4741 21.659 81.252 20.8628 83.2156 20.8628ZM2.64675 30.575C2.84335 30.7715 3.05825 30.9353 3.28755 31.07C3.51695 31.2047 3.73545 31.3143 3.94645 31.3976C4.15775 31.4812 4.34325 31.5434 4.50345 31.5798C4.66335 31.6161 4.77275 31.6345 4.83105 31.6345C4.96935 31.6345 5.14785 31.627 5.36245 31.6161C5.57735 31.6053 5.78115 31.5723 5.97775 31.5179C6.17425 31.4634 6.34535 31.376 6.48745 31.2521C6.62935 31.1283 6.69845 30.9537 6.69845 30.7279C6.69845 30.5241 6.65825 30.3603 6.57825 30.2401C6.49835 30.1199 6.38145 30.018 6.22895 29.9344C6.07625 29.8506 5.89025 29.7778 5.66845 29.7123C5.44655 29.6468 5.19505 29.5704 4.91845 29.483C4.04475 29.25 3.32395 28.9696 2.75615 28.642C2.18835 28.3143 1.74025 27.9465 1.40925 27.5428C1.07775 27.1385 0.844846 26.7054 0.713746 26.2395C0.582746 25.7736 0.517247 25.2821 0.517247 24.7652C0.517247 24.1607 0.637448 23.611 0.877648 23.1159C1.11775 22.6209 1.46035 22.195 1.90435 21.8421C2.34835 21.4892 2.87975 21.2157 3.49865 21.023C4.11745 20.8303 4.80545 20.7354 5.56265 20.7354C6.02135 20.7354 6.45135 20.7717 6.85145 20.8481C7.25185 20.9247 7.63415 21.0447 7.99815 21.2085C8.36215 21.3723 8.71895 21.5838 9.06465 21.8421C9.41035 22.1003 9.75265 22.4099 10.0949 22.7666C10.2187 22.9121 10.2845 23.0468 10.2879 23.1742C10.2915 23.3017 10.2076 23.44 10.0402 23.5857C9.75625 23.8187 9.48695 24.048 9.22845 24.2737C8.96995 24.4994 8.70065 24.7505 8.42405 25.0273C8.33665 25.1 8.24915 25.1436 8.16195 25.1619C8.07455 25.1802 7.99095 25.1802 7.91075 25.1583C7.83075 25.1364 7.75385 25.1 7.68135 25.0492C7.60865 24.9981 7.54305 24.9362 7.48475 24.8634C7.22995 24.5794 6.93865 24.3865 6.61105 24.2882C6.28345 24.1899 5.97775 24.1427 5.69365 24.1427C5.33715 24.1427 5.05315 24.2046 4.84185 24.3284C4.63085 24.452 4.53255 24.6413 4.54705 24.8962C4.56175 25.0856 4.63445 25.2311 4.76185 25.3366C4.88935 25.4421 5.04595 25.5295 5.23145 25.5951C5.41715 25.6606 5.61375 25.7119 5.82115 25.7516C6.02875 25.7914 6.21785 25.8391 6.39275 25.8899C7.04805 26.1012 7.64865 26.3303 8.19475 26.5779C8.74065 26.8253 9.21395 27.1277 9.61435 27.4881C10.0147 27.8484 10.3279 28.2816 10.55 28.7841C10.7721 29.2864 10.8812 29.898 10.8812 30.6188C10.8812 31.3396 10.7393 31.984 10.4517 32.5518C10.164 33.1196 9.76705 33.5966 9.26485 33.9823C8.76255 34.3679 8.16895 34.6631 7.48115 34.8669C6.79315 35.0709 6.05045 35.1728 5.25695 35.1728C4.80545 35.1728 4.34685 35.1326 3.88095 35.0526C3.41505 34.9726 2.96355 34.8413 2.52685 34.6631C2.09005 34.4848 1.67495 34.2552 1.28185 33.975C0.888947 33.6949 0.539146 33.3562 0.233446 32.9558C0.153246 32.8539 0.0949473 32.7448 0.0549473 32.6318C0.0149473 32.519 -0.00315218 32.4097 0.000447822 32.3005C0.00434782 32.1914 0.026046 32.0895 0.066046 31.9985C0.106046 31.9074 0.167948 31.831 0.255148 31.7655L1.66395 30.3567C1.83885 30.211 1.99515 30.1601 2.13005 30.2037C2.26475 30.2471 2.43575 30.3712 2.64675 30.575V30.575ZM27.4619 34.088C27.4619 34.2116 27.44 34.3282 27.3964 34.4409C27.3528 34.5539 27.2798 34.645 27.1779 34.7105C27.0979 34.7905 27.0032 34.8416 26.8941 34.8632C26.7847 34.8852 26.69 34.896 26.6101 34.896H24.4586C24.3058 34.896 24.182 34.8743 24.0873 34.8341C23.9927 34.7941 23.9163 34.7394 23.858 34.6667C23.7997 34.5939 23.7525 34.5029 23.7123 34.3973C23.6723 34.2918 23.6287 34.1788 23.5851 34.0553L23.4429 33.5638C23.2464 33.7604 23.0242 33.9531 22.7732 34.1425C22.522 34.3318 22.2454 34.5029 21.9431 34.6522C21.641 34.8013 21.317 34.9215 20.9713 35.0126C20.6254 35.1037 20.265 35.1509 19.8937 35.1509C19.2313 35.1509 18.5977 35.067 17.9899 34.8996C17.3819 34.7322 16.8141 34.492 16.2863 34.1825C15.7584 33.8731 15.2778 33.5019 14.8483 33.0685C14.4188 32.6354 14.0509 32.1512 13.7416 31.6198C13.432 31.0883 13.1919 30.513 13.0244 29.898C12.857 29.2828 12.7732 28.642 12.7732 27.9687C12.7732 26.9566 12.9589 26.0174 13.3301 25.1436C13.7016 24.2737 14.2075 23.5166 14.8483 22.8722C15.4889 22.2277 16.2424 21.7219 17.1089 21.3542C17.9752 20.9864 18.9036 20.8009 19.8937 20.8009C20.3452 20.8009 20.7672 20.8517 21.1568 20.9536C21.5463 21.0558 21.9031 21.194 22.2271 21.3687C22.5511 21.5472 22.8424 21.7546 23.1045 21.9984C23.3666 22.2461 23.5959 22.5082 23.7925 22.7958L24.1093 21.791C24.182 21.6089 24.2439 21.4598 24.2911 21.3432C24.3386 21.2304 24.3894 21.1466 24.4441 21.0921C24.4986 21.0375 24.5641 21.0011 24.6443 20.9828C24.7243 20.9647 24.8373 20.9536 24.9828 20.9536H26.6101C26.69 20.9536 26.7847 20.9647 26.8941 20.9864C27.0032 21.0083 27.0979 21.0594 27.1779 21.1394C27.2798 21.2196 27.3528 21.3104 27.3964 21.4123C27.44 21.5144 27.4619 21.6308 27.4619 21.7618V34.088V34.088ZM16.7047 27.9687C16.7047 28.449 16.7813 28.9005 16.9304 29.3155C17.0798 29.7342 17.2908 30.0982 17.5676 30.4003C17.8442 30.706 18.179 30.9501 18.5685 31.1283C18.9581 31.3068 19.3876 31.394 19.861 31.394C20.3488 31.394 20.8039 31.3068 21.2223 31.1283C21.641 30.9501 22.005 30.706 22.3146 30.4003C22.6239 30.0982 22.8643 29.7342 23.0389 29.3155C23.2136 28.9005 23.301 28.449 23.301 27.9687C23.301 27.5064 23.2136 27.0621 23.0389 26.6398C22.8643 26.2175 22.6239 25.8463 22.3146 25.5295C22.005 25.2091 21.641 24.9545 21.2223 24.7688C20.8039 24.583 20.3488 24.4922 19.861 24.4922C19.3876 24.4922 18.9581 24.583 18.5685 24.7688C18.179 24.9545 17.8442 25.2091 17.5676 25.5295C17.2908 25.8463 17.0798 26.2175 16.9304 26.6398C16.7813 27.0621 16.7047 27.5064 16.7047 27.9687ZM30.0829 17.7321C30.0829 17.4991 30.1412 17.3025 30.2575 17.1423C30.3741 16.9821 30.5743 16.9022 30.8584 16.9022H33.5338C33.6068 16.9022 33.6832 16.9202 33.7631 16.9605C33.8434 17.0004 33.9197 17.0587 33.9889 17.1315C34.058 17.2042 34.1163 17.2917 34.1638 17.3936C34.211 17.4955 34.2329 17.6082 34.2329 17.7321V34.0478C34.2329 34.3246 34.1563 34.532 33.9999 34.6739C33.8434 34.816 33.6396 34.8888 33.3919 34.8888H30.8584C30.5743 34.8888 30.3741 34.816 30.2575 34.6739C30.1412 34.532 30.0829 34.3246 30.0829 34.0478V17.7321V17.7321ZM36.8431 21.871C36.8431 21.638 36.9086 21.4378 37.0396 21.2704C37.1707 21.103 37.3745 21.0191 37.651 21.0191H40.1521C40.2393 21.0191 40.3339 21.0375 40.4358 21.0774C40.538 21.1174 40.6324 21.1757 40.7199 21.2523C40.8073 21.3287 40.8837 21.4198 40.9456 21.5217C41.0075 21.6236 41.0367 21.7399 41.0367 21.871V34.0478C41.0367 34.3246 40.96 34.532 40.8073 34.6739C40.6543 34.816 40.4358 34.8888 40.1521 34.8888H37.651C37.1124 34.8888 36.8431 34.6084 36.8431 34.0478V21.871V21.871ZM43.9417 21.2049C44.0364 21.1249 44.1383 21.0738 44.2438 21.0519C44.3493 21.0302 44.4476 21.0191 44.5423 21.0191H46.1912C46.3223 21.0191 46.4353 21.0411 46.5299 21.0885C46.6246 21.1357 46.7046 21.2013 46.7701 21.2812C46.8356 21.3615 46.8903 21.4489 46.9303 21.5508C46.9703 21.6527 47.0067 21.7582 47.043 21.8674L47.2724 22.8249C47.3818 22.6028 47.56 22.3699 47.8041 22.1295C48.0478 21.8893 48.3499 21.6708 48.7103 21.4742C49.0707 21.2812 49.4858 21.1174 49.9589 20.9902C50.4323 20.8628 50.9601 20.8009 51.5426 20.8009C52.3725 20.8009 53.1152 20.9611 53.7668 21.2812C54.4185 21.598 54.9718 22.0348 55.4266 22.5881C55.8817 23.1379 56.2276 23.7823 56.4642 24.5211C56.7008 25.2602 56.8174 26.0465 56.8174 26.8839V34.037C56.8174 34.3135 56.7591 34.5212 56.6388 34.6631C56.5189 34.8049 56.3259 34.8779 56.0638 34.8779H53.5412C53.228 34.8779 53.0133 34.8233 52.8967 34.7177C52.7803 34.6122 52.722 34.4082 52.722 34.1025V26.993C52.722 26.6798 52.6529 26.3814 52.5108 26.1012C52.3689 25.8208 52.1795 25.5734 51.9466 25.3585C51.7136 25.1436 51.4515 24.9762 51.1567 24.8526C50.8618 24.7288 50.5597 24.6669 50.2538 24.6669C49.9917 24.6669 49.726 24.7252 49.453 24.8415C49.1801 24.9581 48.9288 25.1183 48.6995 25.3257C48.4701 25.5331 48.2772 25.7772 48.1206 26.0573C47.9643 26.3378 47.8732 26.6435 47.8513 26.9711V34.0697C47.8513 34.1935 47.8293 34.3174 47.7821 34.4409C47.7349 34.5648 47.6619 34.6594 47.5672 34.725C47.4728 34.7833 47.3854 34.8233 47.3015 34.8452C47.2179 34.8669 47.1197 34.8779 47.0103 34.8779H44.5423C44.2291 34.8779 44.0036 34.8013 43.8651 34.6486C43.7268 34.4956 43.6577 34.2918 43.6577 34.037V21.8238C43.6577 21.6855 43.6904 21.558 43.7523 21.4414C43.8143 21.3287 43.8978 21.2376 44.0072 21.1721L43.9417 21.2049V21.2049ZM69.4856 34.3973C69.5364 34.2518 69.5692 34.0916 69.5839 33.9167C69.5984 33.7421 69.6058 33.56 69.6058 33.3709C69.6058 33.3053 69.6058 33.2543 69.6058 33.2215C69.6058 33.1887 69.6058 33.1632 69.602 33.1415C69.5984 33.1196 69.5947 33.0905 69.5947 33.0577C69.5947 33.0249 69.5947 32.9777 69.5947 32.9122C69.3837 33.1379 69.1689 33.3598 68.9504 33.5783C68.7322 33.7968 68.4917 33.9897 68.2259 34.1608C67.9602 34.3318 67.6581 34.4701 67.3233 34.5756C66.9884 34.6814 66.5989 34.7358 66.1547 34.7358C65.1718 34.7358 64.2617 34.5684 63.4246 34.2335C62.5872 33.8987 61.8629 33.4289 61.2512 32.8284C60.6398 32.2278 60.1629 31.5106 59.8208 30.6732C59.4784 29.8361 59.3073 28.9152 59.3073 27.9104C59.3073 26.9128 59.4784 25.9774 59.8208 25.1072C60.1629 24.2373 60.6398 23.4802 61.2512 22.8358C61.8629 22.1914 62.5872 21.6891 63.4246 21.3251C64.2617 20.9611 65.1718 20.779 66.1547 20.779C66.6061 20.779 67.0173 20.83 67.3888 20.9319C67.76 21.0338 68.1024 21.1757 68.4117 21.3542C68.721 21.5325 69.0014 21.7438 69.2563 21.984C69.5112 22.2241 69.7477 22.479 69.9662 22.7519L70.272 21.7691C70.3156 21.6455 70.3555 21.5289 70.3921 21.427C70.4285 21.3251 70.4793 21.2376 70.5376 21.1685C70.5959 21.0994 70.6687 21.0447 70.7597 21.0083C70.8508 20.9719 70.9709 20.9536 71.1166 20.9536H72.7472C72.8493 20.9536 72.9512 20.9719 73.0567 21.0083C73.1586 21.0447 73.2497 21.0958 73.3333 21.1613C73.4171 21.2268 73.4863 21.3104 73.5373 21.4123C73.5882 21.5144 73.6137 21.6308 73.6137 21.7618V32.8794C73.6137 34.015 73.428 35.0271 73.0567 35.9153C72.6816 36.8035 72.1721 37.5534 71.5277 38.165C70.8797 38.7767 70.1154 39.2426 69.2345 39.563C68.3535 39.8834 67.4069 40.0433 66.3949 40.0433C66.0017 40.0433 65.5798 40.007 65.1283 39.9378C64.6769 39.8687 64.2289 39.7668 63.7813 39.6285C63.3335 39.4902 62.9004 39.3117 62.4817 39.0971C62.063 38.8822 61.6918 38.6345 61.3714 38.3508C61.2622 38.2705 61.1712 38.1686 61.0948 38.0484C61.0182 37.9285 60.9783 37.7974 60.9783 37.6517C60.9783 37.4698 61.0473 37.2768 61.1856 37.073L62.2233 35.6423C62.3252 35.5332 62.4198 35.4494 62.5072 35.3947C62.5944 35.3402 62.6891 35.3147 62.791 35.3147C62.9512 35.3147 63.1514 35.4021 63.3918 35.5768C63.5737 35.7514 63.785 35.89 64.0216 35.9955C64.2582 36.101 64.5021 36.1848 64.7531 36.2465C65.0044 36.3084 65.252 36.3486 65.4958 36.3667C65.7396 36.385 65.9581 36.3959 66.1547 36.3959C66.4823 36.3959 66.8246 36.3523 67.1812 36.2648C67.5379 36.1774 67.873 36.0463 68.1823 35.8753C68.4917 35.7042 68.7648 35.4968 69.0014 35.2492C69.238 35.0015 69.3982 34.7177 69.4856 34.3973V34.3973ZM63.2388 27.9323C63.2388 28.4199 63.3152 28.8713 63.4645 29.29C63.6139 29.7087 63.825 30.0727 64.1016 30.3784C64.3784 30.6843 64.7131 30.9245 65.1027 31.0992C65.4922 31.2741 65.9217 31.3613 66.3949 31.3613C66.861 31.3613 67.3015 31.2777 67.7129 31.1139C68.1241 30.9501 68.4809 30.7243 68.7866 30.4331C69.0926 30.1418 69.3399 29.7998 69.5256 29.4066C69.7113 29.0135 69.8132 28.5875 69.8352 28.1289V27.7685C69.8132 27.3242 69.7113 26.9019 69.5256 26.5052C69.3399 26.1084 69.0926 25.7589 68.7866 25.4568C68.4809 25.1547 68.1241 24.9143 67.7129 24.736C67.3015 24.5578 66.861 24.4703 66.3949 24.4703C65.9217 24.4703 65.4922 24.5614 65.1027 24.7468C64.7131 24.9326 64.3784 25.1839 64.1016 25.4968C63.825 25.81 63.6139 26.1776 63.4645 26.5999C63.3152 27.0222 63.2388 27.4661 63.2388 27.9323V27.9323ZM85.6704 25.5201C85.0425 24.8922 84.1744 24.5036 83.2156 24.5036C82.2568 24.5036 81.3888 24.8922 80.7609 25.5201C80.133 26.148 79.7445 27.0161 79.7445 27.9749C79.7445 28.9337 80.1329 29.8017 80.7609 30.4296C81.3888 31.0575 82.2568 31.4461 83.2156 31.4461C84.1744 31.4461 85.0425 31.0575 85.6704 30.4296C86.2983 29.8017 86.687 28.9337 86.687 27.9749C86.687 27.0161 86.2983 26.148 85.6704 25.5201Z" fill="#141515"/>
<path d="M38.9399 19.6093C40.435 19.6093 41.647 18.3973 41.647 16.9022C41.647 15.4071 40.435 14.1951 38.9399 14.1951C37.4449 14.1951 36.2328 15.4071 36.2328 16.9022C36.2328 18.3973 37.4449 19.6093 38.9399 19.6093Z" fill="#FCCD00"/>
<path d="M77.8167 7.0683C79.4878 7.0683 81.0009 7.7459 82.0962 8.841C83.1913 9.9363 83.8689 11.4494 83.8689 13.1204C83.8689 14.7914 83.1913 16.3045 82.0962 17.3998C81.0009 18.4949 79.4878 19.1725 77.8167 19.1725C76.1457 19.1725 74.6326 18.4949 73.5373 17.3998C72.4422 16.3045 71.7646 14.7914 71.7646 13.1204C71.7646 11.4494 72.4422 9.9363 73.5373 8.841C74.6326 7.7459 76.1457 7.0683 77.8167 7.0683V7.0683ZM79.7017 11.2356C79.2195 10.7535 78.5529 10.4551 77.8167 10.4551C77.0805 10.4551 76.4142 10.7535 75.932 11.2356C75.4499 11.7178 75.1514 12.3843 75.1514 13.1204C75.1514 13.8566 75.4499 14.523 75.932 15.0052C76.4142 15.4873 77.0805 15.7857 77.8167 15.7857C78.5529 15.7857 79.2195 15.4873 79.7017 15.0052C80.1838 14.523 80.4821 13.8566 80.4821 13.1204C80.4821 12.3843 80.1838 11.7178 79.7017 11.2356Z" fill="#5B5B5A"/>
<path d="M66.0132 0C67.5037 0 68.8533 0.604399 69.8301 1.5812C70.8069 2.558 71.4113 3.9078 71.4113 5.3982C71.4113 6.8887 70.8069 8.2383 69.8301 9.2151C68.8533 10.1919 67.5037 10.7963 66.0132 10.7963C64.5228 10.7963 63.173 10.1919 62.1962 9.2151C61.2194 8.2383 60.615 6.8887 60.615 5.3982C60.615 3.9076 61.2194 2.558 62.1962 1.5812C63.173 0.604399 64.5228 0 66.0132 0ZM67.6151 3.7962C67.2053 3.3864 66.6388 3.1328 66.0132 3.1328C65.3875 3.1328 64.821 3.3864 64.4112 3.7962C64.0014 4.206 63.7478 4.7725 63.7478 5.3982C63.7478 6.0238 64.0014 6.5903 64.4112 7.0001C64.821 7.4099 65.3875 7.6635 66.0132 7.6635C66.6388 7.6635 67.2053 7.4099 67.6151 7.0001C68.0249 6.5903 68.2785 6.0238 68.2785 5.3982C68.2785 4.7725 68.0249 4.206 67.6151 3.7962Z" fill="#818181"/>
<path d="M53.6019 0.843383C54.8291 0.856083 55.9324 1.36249 56.7237 2.17029C57.5176 2.98088 58.0024 4.09368 57.9897 5.31578C57.977 6.54298 57.4706 7.64628 56.6628 8.43758C55.8522 9.23148 54.7394 9.71628 53.5173 9.70358C52.2901 9.69088 51.1869 9.18468 50.3956 8.37668C49.6017 7.56608 49.1168 6.45348 49.1295 5.23118C49.1422 4.00418 49.6486 2.90068 50.4564 2.10938C51.267 1.31548 52.3798 0.830683 53.6019 0.843383ZM54.6771 4.18309C54.3954 3.89549 54.007 3.71518 53.5795 3.71078C53.1471 3.70638 52.7542 3.87688 52.4692 4.15598C52.1816 4.43768 52.0013 4.82608 51.9969 5.25358C51.9925 5.68608 52.163 6.07878 52.4422 6.36388C52.7239 6.65158 53.1122 6.83178 53.5397 6.83618C53.9721 6.84058 54.365 6.67008 54.65 6.39098C54.9376 6.10928 55.1179 5.72098 55.1223 5.29338C55.1267 4.86098 54.9562 4.46809 54.6771 4.18309Z" fill="#A3A4A4"/>
<path d="M44.1436 6.57599C45.1425 6.57599 46.0507 6.98339 46.7122 7.64229L46.7174 7.64749C47.3763 8.30899 47.7837 9.21709 47.7837 10.2161C47.7837 11.215 47.3763 12.1233 46.7174 12.7848L46.7122 12.79C46.0507 13.4489 45.1425 13.8563 44.1436 13.8563C43.1446 13.8563 42.2365 13.4489 41.575 12.79L41.5698 12.7848C40.9109 12.1233 40.5035 11.215 40.5035 10.2161C40.5035 9.21709 40.9109 8.30899 41.5698 7.64749L41.575 7.64229C42.2365 6.98339 43.1446 6.57599 44.1436 6.57599ZM44.8616 9.49289C44.6812 9.31249 44.4275 9.20079 44.1436 9.20079C43.8597 9.20079 43.606 9.31249 43.4256 9.49289L43.4204 9.49809C43.24 9.67849 43.1283 9.93219 43.1283 10.2161C43.1283 10.5001 43.24 10.7538 43.4204 10.9342L43.4256 10.9394C43.606 11.1198 43.8597 11.2315 44.1436 11.2315C44.4275 11.2315 44.6812 11.1198 44.8616 10.9394L44.8668 10.9342C45.0472 10.7538 45.1589 10.5001 45.1589 10.2161C45.1589 9.93219 45.0472 9.67849 44.8668 9.49809L44.8616 9.49289Z" fill="#C3C4C4"/>
</svg>
