<svg width="191" height="97" viewBox="0 0 191 97" fill="none" xmlns="http://www.w3.org/2000/svg">
<path d="M93.9392 44.2845H93.7644H84.6629C80.9131 44.2845 77.5052 42.7515 75.0356 40.2819C72.566 37.8124 71.033 34.4044 71.033 30.6546V27.9171H83.3095C85.0042 27.9171 86.6291 28.2303 88.129 28.8015C88.346 26.9287 88.8904 25.1491 89.704 23.5219C90.8159 21.2978 92.4325 19.3702 94.4031 17.89C94.9892 17.4505 95.7812 17.4794 96.3305 17.9127C98.2875 19.3899 99.8935 21.309 101 23.5218C101.813 25.1491 102.358 26.9286 102.575 28.8015C104.075 28.2303 105.7 27.9171 107.394 27.9171H119.671V30.6546C119.671 34.4044 118.138 37.8124 115.668 40.2819C113.199 42.7515 109.791 44.2845 106.041 44.2845H97.1703C97.5901 46.2183 98.5612 47.9465 99.9107 49.2961C101.747 51.1319 104.283 52.2675 107.085 52.2675C107.962 52.2675 108.672 52.9783 108.672 53.855C108.672 54.7317 107.962 55.4425 107.085 55.4425C103.407 55.4425 100.077 53.9515 97.6659 51.5409C95.738 49.6129 94.3984 47.0966 93.9392 44.2845V44.2845ZM88.1061 32.2666C86.6671 31.5168 85.0353 31.0921 83.3095 31.0921H74.2173C74.3301 33.7928 75.4815 36.2383 77.2804 38.0371C79.176 39.9327 81.7896 41.1095 84.6629 41.1095H91.9533C91.0694 40.0963 90.3113 38.9699 89.7039 37.755C88.8602 36.0674 88.3059 34.216 88.1061 32.2666ZM98.7506 41.1095H106.041C108.914 41.1095 111.528 39.9327 113.424 38.0371C115.222 36.2383 116.374 33.7928 116.487 31.0921H107.394C105.669 31.0921 104.037 31.5168 102.598 32.2666C102.398 34.216 101.844 36.0675 101 37.7552C100.392 38.9699 99.6345 40.0962 98.7506 41.1095V41.1095ZM98.1721 24.9356C97.4664 23.524 96.5062 22.261 95.3518 21.2066C94.1975 22.261 93.2373 23.5241 92.5316 24.9357C91.6782 26.6425 91.198 28.5789 91.198 30.6385C91.198 32.6983 91.6782 34.6346 92.5315 36.3413C93.2373 37.7529 94.1974 39.0159 95.3518 40.0703C96.5062 39.0159 97.4664 37.7529 98.1721 36.3413C99.0255 34.6344 99.5057 32.6982 99.5057 30.6385C99.5057 28.5788 99.0255 26.6425 98.1721 24.9356Z" fill="#65C947"/>
<path d="M13.4978 74.3748C13.4978 74.8979 13.2379 75.1578 12.718 75.1578H2.1951V79.426C2.1951 79.9427 1.9351 80.2027 1.4152 80.2027H0.7702C0.2567 80.2027 0 79.9427 0 79.4228V70.9763C0 70.2606 0.413999 69.6348 1.2419 69.0989C2.1854 68.4795 3.4338 68.1683 4.9806 68.1683H6.627C7.1468 68.1683 7.4068 68.4283 7.4068 68.945V69.192C7.4068 69.7151 7.1468 69.9783 6.627 69.9783H5.1315C4.3324 69.9783 3.6456 70.0841 3.0648 70.2927C2.4839 70.5013 2.1951 70.7612 2.1951 71.0725V73.3478H12.718C13.2379 73.3478 13.4978 73.6046 13.4978 74.1213V74.3748V74.3748ZM33.1258 79.1019C33.1322 79.1308 33.1386 79.1789 33.1451 79.2431C33.1515 79.3073 33.1547 79.3554 33.1547 79.394C33.1547 79.6154 33.1194 79.7887 33.052 79.9203C32.9846 80.0486 32.8915 80.1513 32.7728 80.2283C32.4904 80.4016 32.2369 80.4915 32.0058 80.4915C31.8293 80.4915 31.6688 80.4434 31.518 80.3471C31.3704 80.2508 31.2228 80.0936 31.0784 79.8721L29.1272 77.0448H19.8687L17.9014 79.8785C17.8373 80.0005 17.7795 80.0871 17.7217 80.1353C17.5869 80.2701 17.4201 80.3375 17.2243 80.3375C17.0959 80.3375 16.9355 80.2989 16.7461 80.2251C16.5279 80.1289 16.3771 80.0165 16.2936 79.8882C16.207 79.7598 16.1653 79.6314 16.1653 79.5063C16.1653 79.4613 16.1685 79.426 16.1749 79.394C16.1813 79.3619 16.191 79.333 16.2038 79.3073L23.1517 68.685C23.3282 68.4379 23.5175 68.2677 23.7197 68.1746C23.9251 68.0816 24.1818 68.0334 24.4963 68.0334C24.7402 68.0527 24.9263 68.0784 25.0515 68.1073C25.4334 68.2164 25.6709 68.4057 25.7639 68.6817L33.1258 79.1019V79.1019ZM27.8242 75.2348L24.4963 70.3248L21.1459 75.2348H27.8242ZM50.4785 77.2278C50.4785 77.8921 50.3662 78.4087 50.1415 78.7778C49.8591 79.2463 49.3585 79.5929 48.6364 79.8176C47.8213 80.0743 46.6788 80.2027 45.209 80.2027H37.6064C37.093 80.2027 36.8362 79.9427 36.8362 79.4196V79.1757C36.8362 78.6526 37.093 78.3927 37.6064 78.3927H45.209C46.3579 78.3927 47.1794 78.2739 47.6833 78.0365C48.0844 77.8503 48.2834 77.5936 48.2834 77.2631V76.2265C48.2834 75.7965 48.0299 75.4884 47.5228 75.3022C47.0158 75.1161 46.252 75.023 45.2379 75.023H42.3336C40.4402 75.023 39.0345 74.7695 38.1135 74.2625C37.2438 73.7779 36.8074 73.0719 36.8074 72.1444V71.2426C36.8074 70.2285 37.1636 69.4808 37.8792 69.0058C38.7136 68.4474 40.1257 68.1683 42.1186 68.1683H43.2386C43.7585 68.1683 44.0184 68.4283 44.0184 68.945V69.192C44.0184 69.7151 43.7585 69.9783 43.2386 69.9783H42.0897C41.1237 69.9783 40.3856 70.0682 39.8785 70.2478C39.2945 70.4564 39.0024 70.7805 39.0024 71.2298V72.061C39.0024 72.4814 39.2592 72.7702 39.7694 72.9307C40.2797 73.0943 41.1205 73.1746 42.2919 73.1746H45.2347C46.8874 73.1746 48.1743 73.4441 49.0953 73.9801C50.0164 74.5192 50.4785 75.2413 50.4785 76.1495V77.2278ZM70.055 79.4228C70.055 79.9427 69.7919 80.2027 69.2688 80.2027H68.6461C68.123 80.2027 67.86 79.9427 67.86 79.426V75.1578H57.2312V79.426C57.2312 79.9427 56.9712 80.2027 56.4513 80.2027H55.8063C55.2928 80.2027 55.0361 79.9427 55.0361 79.4228V68.9384C55.0361 68.425 55.2928 68.1683 55.8063 68.1683H56.4513C56.9712 68.1683 57.2312 68.425 57.2312 68.9384V73.3478H67.86V68.9384C67.86 68.425 68.123 68.1683 68.6461 68.1683H69.2688C69.7919 68.1683 70.055 68.425 70.055 68.9384V79.4228ZM76.9329 79.4228C76.9329 79.9427 76.6729 80.2027 76.153 80.2027H75.508C74.9945 80.2027 74.7378 79.9427 74.7378 79.4228V68.9384C74.7378 68.425 74.9945 68.1683 75.508 68.1683H76.153C76.6729 68.1683 76.9329 68.425 76.9329 68.9384V79.4228ZM96.1918 76.9742C96.1918 77.9819 95.7682 78.7585 94.9242 79.3009C93.9903 79.901 92.5526 80.2027 90.6078 80.2027H87.19C85.7491 80.2027 84.581 80.0262 83.692 79.6764C82.9411 79.3843 82.3891 78.9671 82.0393 78.428C81.7569 77.998 81.6157 77.5134 81.6157 76.9839V71.4352C81.6157 70.2638 82.1645 69.407 83.2588 68.8614C84.1862 68.3993 85.4924 68.1683 87.1804 68.1683H90.6078C92.6713 68.1683 94.1283 68.4314 94.9787 68.9577C95.7874 69.4583 96.1918 70.2831 96.1918 71.4352V76.9742V76.9742ZM93.9967 76.9229V71.4929C93.9967 70.9506 93.7207 70.5623 93.1688 70.328C92.6168 70.0937 91.7792 69.9783 90.6592 69.9783H87.1676C86.0765 69.9783 85.2581 70.0905 84.7126 70.3152C84.1124 70.5655 83.8108 70.957 83.8108 71.4929V76.9229C83.8108 77.4588 84.1028 77.8439 84.6869 78.075C85.2196 78.2868 86.0476 78.3927 87.1676 78.3927H90.6656C91.7471 78.3927 92.5526 78.29 93.0853 78.0846C93.6918 77.8471 93.9967 77.4588 93.9967 76.9229V76.9229ZM115.781 78.9254C115.781 79.4838 115.637 79.8625 115.348 80.0647C115.143 80.2091 114.799 80.2797 114.324 80.2797C114.141 80.2797 113.92 80.1866 113.657 80.0005C113.573 79.9395 113.461 79.8464 113.317 79.7213L103.054 70.9955V79.4389C103.054 79.9588 102.794 80.2187 102.274 80.2187H101.629C101.115 80.2187 100.859 79.9588 100.859 79.4389V69.3877V68.9546C100.859 68.807 100.91 68.6721 101.009 68.5501C101.109 68.4314 101.247 68.3224 101.423 68.2229C101.504 68.1715 101.597 68.1361 101.696 68.1105C101.796 68.0848 101.895 68.0721 101.988 68.0721C102.29 68.0721 102.624 68.1779 102.996 68.3897C103.115 68.4603 103.269 68.5662 103.455 68.7106L113.586 77.324V68.9352C113.586 68.4218 113.846 68.1683 114.366 68.1683H115.002C115.521 68.1683 115.781 68.425 115.781 68.9384V78.9254V78.9254ZM154.132 69.4936L148.202 75.1899V79.426C148.202 79.9427 147.945 80.2027 147.428 80.2027H146.79C146.267 80.2027 146.007 79.9459 146.007 79.4357V75.1899L140.057 69.4936C139.826 69.2658 139.71 69.0411 139.71 68.8165C139.71 68.6271 139.79 68.4731 139.951 68.3512C140.111 68.2292 140.33 68.1683 140.606 68.1683H141.283C141.357 68.1683 141.453 68.1908 141.565 68.2325C141.677 68.2742 141.761 68.3223 141.819 68.38L147.091 73.4281L152.37 68.38C152.422 68.3319 152.502 68.2838 152.618 68.2356C152.73 68.1907 152.826 68.1683 152.906 68.1683H153.593C153.863 68.1683 154.078 68.2292 154.238 68.3512C154.399 68.4731 154.479 68.6271 154.479 68.8165C154.479 69.0411 154.363 69.2658 154.132 69.4936ZM171.016 76.9742C171.016 77.9819 170.593 78.7585 169.749 79.3009C168.815 79.901 167.377 80.2027 165.432 80.2027H162.015C160.574 80.2027 159.406 80.0262 158.517 79.6764C157.766 79.3843 157.214 78.9671 156.864 78.428C156.581 77.998 156.44 77.5134 156.44 76.9839V71.4352C156.44 70.2638 156.989 69.407 158.083 68.8614C159.011 68.3993 160.317 68.1683 162.005 68.1683H165.432C167.496 68.1683 168.953 68.4314 169.803 68.9577C170.612 69.4583 171.016 70.2831 171.016 71.4352V76.9742V76.9742ZM168.821 76.9229V71.4929C168.821 70.9506 168.545 70.5623 167.993 70.328C167.441 70.0937 166.604 69.9783 165.484 69.9783H161.992C160.901 69.9783 160.083 70.0905 159.537 70.3152C158.937 70.5655 158.635 70.957 158.635 71.4929V76.9229C158.635 77.4588 158.927 77.8439 159.511 78.075C160.044 78.2868 160.872 78.3927 161.992 78.3927H165.49C166.572 78.3927 167.377 78.29 167.91 78.0846C168.516 77.8471 168.821 77.4588 168.821 76.9229V76.9229ZM190.702 76.8138C190.702 77.3946 190.564 77.9049 190.288 78.3445C189.938 78.9062 189.367 79.3426 188.578 79.6475C187.631 80.0165 186.376 80.2027 184.816 80.2027H181.732C180.048 80.2027 178.751 80.0486 177.849 79.7438C177.053 79.4742 176.498 79.0634 176.184 78.5114C175.953 78.1071 175.837 77.539 175.837 76.8138V68.9384C175.837 68.425 176.094 68.1683 176.607 68.1683H177.252C177.772 68.1683 178.032 68.425 178.032 68.9384V76.6661C178.032 77.3112 178.344 77.7637 178.963 78.0268C179.534 78.2707 180.465 78.3927 181.755 78.3927H184.784C186.094 78.3927 187.024 78.2772 187.576 78.0461C188.196 77.7829 188.507 77.3272 188.507 76.6758V68.9384C188.507 68.425 188.767 68.1683 189.29 68.1683H189.929C190.445 68.1683 190.702 68.425 190.702 68.9384V76.8138V76.8138Z" fill="black"/>
<path d="M136.42 79.4228C136.42 79.9427 136.16 80.2027 135.643 80.2027H134.722C134.212 80.2027 133.955 79.9427 133.955 79.4228V77.1411H121.221C120.801 77.1411 120.503 77.0159 120.326 76.7656C120.182 76.5667 120.111 76.2714 120.111 75.8831V68.9481C120.111 68.4282 120.368 68.1682 120.878 68.1682H121.809C122.319 68.1682 122.576 68.4282 122.576 68.9481V75.0616H133.955V68.9481C133.955 68.4282 134.212 68.1682 134.722 68.1682H135.643C136.16 68.1682 136.42 68.4282 136.42 68.9481V79.4228Z" fill="#65C947"/>
<path d="M62.645 91.8195H68.2786C68.2169 93.2364 67.7552 94.3831 66.8978 95.2618C66.0405 96.1404 64.9512 96.5808 63.6364 96.5808C62.9513 96.5808 62.3216 96.4489 61.7451 96.1872C61.1685 95.9255 60.6515 95.5383 60.192 95.0235C59.8048 94.5959 59.5112 94.1087 59.3112 93.5619C59.1112 93.0151 59.0112 92.4322 59.0112 91.8089C59.0112 91.1727 59.1325 90.5707 59.3729 90.0005C59.6155 89.4325 59.9686 88.9197 60.4367 88.4623C60.877 88.0219 61.3706 87.6922 61.9174 87.4752C62.4642 87.256 63.0705 87.1475 63.7364 87.1475C64.6576 87.1475 65.4639 87.3624 66.1575 87.7922C66.851 88.2219 67.3765 88.8325 67.7297 89.6239H66.1085C65.8086 89.2389 65.449 88.9495 65.032 88.7538C64.6129 88.5602 64.147 88.4623 63.6343 88.4623C63.2045 88.4623 62.7939 88.5432 62.4067 88.7049C62.0174 88.8666 61.6727 89.1027 61.3728 89.4091C61.06 89.7282 60.8154 90.1005 60.6409 90.5239C60.4643 90.9494 60.3771 91.3812 60.3771 91.8216C60.3771 92.2939 60.4558 92.7407 60.6154 93.1641C60.7728 93.5853 61.0004 93.9491 61.2962 94.2576C61.6089 94.581 61.9706 94.832 62.3791 95.0107C62.7875 95.1894 63.2045 95.2788 63.63 95.2788C64.3236 95.2788 64.9342 95.0958 65.4639 94.7278C65.9936 94.3597 66.4298 93.8151 66.7723 93.096H62.645V91.8195V91.8195ZM75.9046 91.8216C75.9046 92.2939 75.9833 92.7407 76.1407 93.1641C76.3003 93.5853 76.5258 93.9491 76.8215 94.2576C77.1343 94.581 77.4938 94.832 77.9002 95.0107C78.3086 95.1894 78.7235 95.2788 79.1469 95.2788C80.0872 95.2788 80.8723 94.9448 81.5041 94.2789C82.136 93.613 82.453 92.7854 82.453 91.7961C82.453 91.377 82.3764 90.977 82.2253 90.5962C82.0743 90.2154 81.853 89.8665 81.5616 89.5473C81.2169 89.1772 80.8467 88.9027 80.4532 88.7261C80.0617 88.5496 79.6256 88.4623 79.1469 88.4623C78.7193 88.4623 78.3129 88.5432 77.9257 88.7049C77.5385 88.8666 77.196 89.1027 76.896 89.4091C76.5854 89.7282 76.3407 90.1005 76.1663 90.5239C75.9918 90.9494 75.9046 91.3812 75.9046 91.8216ZM74.5387 91.8089C74.5387 91.1727 74.66 90.5707 74.9004 90.0005C75.1408 89.4325 75.494 88.9197 75.9599 88.4623C76.4003 88.0305 76.8896 87.7028 77.4279 87.4816C77.9661 87.2582 78.5448 87.1475 79.1639 87.1475C79.7979 87.1475 80.3872 87.2582 80.9297 87.4816C81.4722 87.7028 81.9679 88.0347 82.4168 88.4751C82.8785 88.9283 83.2253 89.4346 83.4572 89.9941C83.6891 90.5558 83.8061 91.16 83.8061 91.8089C83.8061 92.4514 83.7061 93.0449 83.5061 93.5874C83.3082 94.1299 83.0083 94.6149 82.6104 95.0489C82.1402 95.5553 81.6148 95.9361 81.0361 96.1935C80.4553 96.4509 79.8277 96.5808 79.1511 96.5808C78.4682 96.5808 77.8406 96.4489 77.2662 96.1872C76.6896 95.9255 76.1748 95.5383 75.7174 95.0235C75.3302 94.5959 75.0366 94.1087 74.8387 93.5619C74.6387 93.0151 74.5387 92.4322 74.5387 91.8089V91.8089ZM100.664 96.4021H95.954V87.3263H100.664V88.5389H97.2688V91.2451H100.664V92.4322H97.2688V95.151H100.664V96.4021ZM116.013 94.1299C115.619 94.9214 115.073 95.5277 114.377 95.9489C113.681 96.3702 112.875 96.5808 111.956 96.5808C111.275 96.5808 110.648 96.4489 110.071 96.1872C109.497 95.9255 108.98 95.5383 108.524 95.0235C108.137 94.5959 107.844 94.1087 107.646 93.5619C107.446 93.0151 107.346 92.4322 107.346 91.8089C107.346 91.177 107.467 90.5771 107.707 90.0111C107.948 89.4431 108.301 88.9283 108.767 88.4623C109.207 88.0305 109.697 87.7028 110.235 87.4816C110.771 87.2582 111.35 87.1475 111.969 87.1475C112.901 87.1475 113.718 87.3667 114.422 87.8071C115.126 88.2475 115.656 88.8708 116.013 89.675H114.469C114.177 89.2729 113.82 88.9708 113.396 88.7666C112.971 88.5645 112.492 88.4623 111.954 88.4623C111.526 88.4623 111.12 88.5432 110.733 88.7049C110.345 88.8666 110.003 89.1027 109.703 89.4091C109.392 89.7282 109.148 90.1005 108.973 90.5239C108.799 90.9494 108.712 91.3812 108.712 91.8216C108.712 92.2939 108.79 92.7407 108.948 93.1641C109.107 93.5853 109.333 93.9491 109.628 94.2576C109.939 94.581 110.299 94.832 110.707 95.0107C111.113 95.1894 111.53 95.2788 111.954 95.2788C112.473 95.2788 112.943 95.1809 113.36 94.9831C113.777 94.7873 114.122 94.5023 114.392 94.1299H116.013ZM123.79 91.8216C123.79 92.2939 123.869 92.7407 124.026 93.1641C124.186 93.5853 124.411 93.9491 124.707 94.2576C125.02 94.581 125.379 94.832 125.786 95.0107C126.194 95.1894 126.609 95.2788 127.032 95.2788C127.973 95.2788 128.758 94.9448 129.39 94.2789C130.022 93.613 130.339 92.7854 130.339 91.7961C130.339 91.377 130.262 90.977 130.111 90.5962C129.96 90.2154 129.739 89.8665 129.447 89.5473C129.102 89.1772 128.732 88.9027 128.339 88.7261C127.947 88.5496 127.511 88.4623 127.032 88.4623C126.605 88.4623 126.198 88.5432 125.811 88.7049C125.424 88.8666 125.082 89.1027 124.782 89.4091C124.471 89.7282 124.226 90.1005 124.052 90.5239C123.877 90.9494 123.79 91.3812 123.79 91.8216ZM122.424 91.8089C122.424 91.1727 122.546 90.5707 122.786 90.0005C123.026 89.4325 123.38 88.9197 123.845 88.4623C124.286 88.0305 124.775 87.7028 125.313 87.4816C125.852 87.2582 126.43 87.1475 127.049 87.1475C127.683 87.1475 128.273 87.2582 128.815 87.4816C129.358 87.7028 129.853 88.0347 130.302 88.4751C130.764 88.9283 131.111 89.4346 131.343 89.9941C131.575 90.5558 131.692 91.16 131.692 91.8089C131.692 92.4514 131.592 93.0449 131.392 93.5874C131.194 94.1299 130.894 94.6149 130.496 95.0489C130.026 95.5553 129.5 95.9361 128.922 96.1935C128.341 96.4509 127.713 96.5808 127.037 96.5808C126.354 96.5808 125.726 96.4489 125.152 96.1872C124.575 95.9255 124.06 95.5383 123.603 95.0235C123.216 94.5959 122.922 94.1087 122.724 93.5619C122.524 93.0151 122.424 92.4322 122.424 91.8089V91.8089Z" fill="#65C947"/>
<path d="M88.3637 11.5663C89.1548 11.9361 89.4963 12.8774 89.1265 13.6685C88.7567 14.4596 87.8154 14.8011 87.0243 14.4313C86.4928 14.1813 85.9316 13.9874 85.3488 13.8577C85.0511 13.7915 84.7417 13.7421 84.4215 13.7106L83.6703 13.7563C81.3448 13.8977 79.2638 14.9163 77.7726 16.5024C76.3088 18.0594 75.4128 20.1724 75.4128 22.5472C75.4128 23.4758 75.5884 24.4768 75.9074 25.4895C76.1655 26.3086 76.5123 27.1275 76.932 27.917H73.43C73.221 27.4236 73.0372 26.9271 72.8812 26.4321C72.4662 25.1147 72.2378 23.794 72.2378 22.5472C72.2378 19.3346 73.4634 16.4618 75.4658 14.332C77.2165 12.47 79.5612 11.1827 82.1987 10.7402C82.7841 7.86639 84.2836 5.3284 86.3792 3.4447C88.6355 1.4165 91.5802 0.141101 94.8173 0.0141016C94.8866 0.00490156 94.9573 0 95.0292 0C95.1316 0 95.2336 0.00130107 95.3354 0.00360107L95.3521 0.00350097C98.7991 0.00350097 101.945 1.3053 104.325 3.4447C106.421 5.3284 107.92 7.86629 108.505 10.7402C111.143 11.1827 113.488 12.47 115.238 14.332C117.241 16.4617 118.466 19.3347 118.466 22.5472C118.466 23.7606 118.298 25.0687 117.98 26.3899C117.858 26.9004 117.712 27.411 117.545 27.917H114.178C114.478 27.1767 114.722 26.416 114.905 25.6581C115.158 24.6068 115.291 23.5482 115.291 22.5472C115.291 20.1724 114.395 18.0593 112.931 16.5024C111.723 15.2167 110.126 14.304 108.326 13.929C108.305 14.4887 108.254 15.0345 108.176 15.5662C108.065 16.321 107.9 17.0332 107.688 17.7025C107.424 18.5381 106.533 19.0018 105.698 18.7381C104.862 18.4744 104.398 17.5831 104.662 16.7475C104.827 16.2275 104.953 15.6805 105.038 15.1074C105.12 14.5472 105.163 13.948 105.163 13.3092C105.163 10.5106 104.029 7.97689 102.195 6.1431C100.422 4.3698 97.9944 3.2508 95.3055 3.1788C92.6876 3.1904 90.3031 4.1802 88.5 5.8011C87.0712 7.0853 86.0051 8.7623 85.4734 10.6595C85.6599 10.6917 85.8459 10.7283 86.031 10.7695C86.8473 10.9512 87.6284 11.2205 88.3637 11.5663V11.5663Z" fill="black"/>
</svg>
